# WaveFront *.obj file (generated by Autodesk ATF)

mtllib base_frame_1.mtl

g 본체1

v 0.022500000 0.000000000 0.008000000
v 0.022500000 0.000000000 -0.008000000
v 0.022500000 0.000500000 -0.008000000
v 0.022500000 0.000500000 0.008000000
v -0.022500000 0.000000000 -0.008000000
v -0.022500000 0.000500000 -0.008000000
v -0.022500000 0.000000000 0.008000000
v -0.022500000 0.000500000 0.008000000
vt -16.000000 -0.500000 0.000000
vt -0.000000 -0.500000 0.000000
vt -16.000000 0.000000 0.000000
vt -0.000000 0.000000 0.000000
vt -45.000000 -0.500000 0.000000
vt -0.000000 -0.500000 0.000000
vt -45.000000 0.000000 0.000000
vt -0.000000 0.000000 0.000000
vt 16.000000 -0.500000 0.000000
vt -0.000000 0.000000 0.000000
vt 16.000000 0.000000 0.000000
vt -0.000000 -0.500000 0.000000
vt 45.000000 -0.500000 0.000000
vt -0.000000 0.000000 0.000000
vt 45.000000 0.000000 0.000000
vt 8.000000 22.500000 0.000000
vt -8.000000 22.500000 0.000000
vt 8.000000 -22.500000 0.000000
vt -8.000000 -22.500000 0.000000
vt 8.000000 22.500000 0.000000
vt -8.000000 22.500000 0.000000
vt 8.000000 -22.500000 0.000000
vt -8.000000 -22.500000 0.000000
vn 1.000000000 -0.000000000 -0.000000000
vn 1.000000000 -0.000000000 -0.000000000
vn 1.000000000 -0.000000000 -0.000000000
vn 1.000000000 -0.000000000 -0.000000000
vn -0.000000000 -0.000000000 -1.000000000
vn -0.000000000 -0.000000000 -1.000000000
vn -0.000000000 -0.000000000 -1.000000000
vn -0.000000000 -0.000000000 -1.000000000
vn -1.000000000 -0.000000000 0.000000000
vn -1.000000000 -0.000000000 0.000000000
vn -1.000000000 -0.000000000 0.000000000
vn -1.000000000 -0.000000000 0.000000000
vn -0.000000000 -0.000000000 1.000000000
vn -0.000000000 -0.000000000 1.000000000
vn -0.000000000 -0.000000000 1.000000000
vn -0.000000000 -0.000000000 1.000000000
vn 0.000000000 1.000000000 0.000000000
vn 0.000000000 1.000000000 0.000000000
vn 0.000000000 1.000000000 0.000000000
vn 0.000000000 1.000000000 0.000000000
vn -0.000000000 -1.000000000 -0.000000000
vn -0.000000000 -1.000000000 -0.000000000
vn -0.000000000 -1.000000000 -0.000000000
vn -0.000000000 -1.000000000 -0.000000000
usemtl 강철_-_새틴
f 1/1/1 2/2/2 4/3/3
f 4/3/3 2/2/2 3/4/4
f 2/5/5 5/6/6 3/7/7
f 3/7/7 5/6/6 6/8/8
f 5/6/9 7/9/10 6/10/11
f 6/10/11 7/9/10 8/11/12
f 7/12/13 1/13/14 8/14/15
f 8/14/15 1/13/14 4/15/16
f 4/16/17 3/17/18 8/18/19
f 8/18/19 3/17/18 6/19/20
f 2/20/21 1/21/22 5/22/23
f 5/22/23 1/21/22 7/23/24
# 8 vertices
# 23 texture params
# 24 normals
# 12 facets

# 1 groups
