# WaveFront *.obj file (generated by Autodesk ATF)

mtllib connecting_rod_1.mtl

g 본체1

v 0.077000000 0.000500000 0.005000000
v 0.076913820 0.001595040 0.005000000
v 0.076657400 0.002663120 0.005000000
v 0.076237050 0.003677930 0.005000000
v 0.075663120 0.004614500 0.005000000
v 0.074949750 0.005449750 0.005000000
v 0.074114500 0.006163120 0.005000000
v 0.073177930 0.006737050 0.005000000
v 0.072163120 0.007157400 0.005000000
v 0.071095040 0.007413820 0.005000000
v 0.070000000 0.007500000 0.005000000
v -0.070000000 0.007500000 0.005000000
v -0.071095040 0.007413820 0.005000000
v -0.072163120 0.007157400 0.005000000
v -0.073177930 0.006737050 0.005000000
v -0.074114500 0.006163120 0.005000000
v -0.074949750 0.005449750 0.005000000
v -0.075663120 0.004614500 0.005000000
v -0.076237050 0.003677930 0.005000000
v -0.076657400 0.002663120 0.005000000
v -0.076913820 0.001595040 0.005000000
v -0.077000000 0.000500000 0.005000000
v -0.077000000 -0.000500000 0.005000000
v -0.076913820 -0.001595040 0.005000000
v -0.076657400 -0.002663120 0.005000000
v -0.076237050 -0.003677930 0.005000000
v -0.075663120 -0.004614500 0.005000000
v -0.074949750 -0.005449750 0.005000000
v -0.074114500 -0.006163120 0.005000000
v -0.073177930 -0.006737050 0.005000000
v -0.072163120 -0.007157400 0.005000000
v -0.071095040 -0.007413820 0.005000000
v -0.070000000 -0.007500000 0.005000000
v 0.070000000 -0.007500000 0.005000000
v 0.071095040 -0.007413820 0.005000000
v 0.072163120 -0.007157400 0.005000000
v 0.073177930 -0.006737050 0.005000000
v 0.074114500 -0.006163120 0.005000000
v 0.074949750 -0.005449750 0.005000000
v 0.075663120 -0.004614500 0.005000000
v 0.076237050 -0.003677930 0.005000000
v 0.076657400 -0.002663120 0.005000000
v 0.076913820 -0.001595040 0.005000000
v 0.077000000 -0.000500000 0.005000000
v -0.067200000 0.000000000 0.005000000
v -0.067295410 -0.000724690 0.005000000
v -0.067575130 -0.001400000 0.005000000
v -0.068020100 -0.001979900 0.005000000
v -0.068600000 -0.002424870 0.005000000
v -0.069275310 -0.002704590 0.005000000
v -0.070000000 -0.002800000 0.005000000
v -0.070724690 -0.002704590 0.005000000
v -0.071400000 -0.002424870 0.005000000
v -0.071979900 -0.001979900 0.005000000
v -0.072424870 -0.001400000 0.005000000
v -0.072704590 -0.000724690 0.005000000
v -0.072800000 0.000000000 0.005000000
v -0.072704590 0.000724690 0.005000000
v -0.072424870 0.001400000 0.005000000
v -0.071979900 0.001979900 0.005000000
v -0.071400000 0.002424870 0.005000000
v -0.070724690 0.002704590 0.005000000
v -0.070000000 0.002800000 0.005000000
v -0.069275310 0.002704590 0.005000000
v -0.068600000 0.002424870 0.005000000
v -0.068020100 0.001979900 0.005000000
v -0.067575130 0.001400000 0.005000000
v -0.067295410 0.000724690 0.005000000
v 0.067200000 -0.000000000 0.005000000
v 0.067295410 0.000724690 0.005000000
v 0.067575130 0.001400000 0.005000000
v 0.068020100 0.001979900 0.005000000
v 0.068600000 0.002424870 0.005000000
v 0.069275310 0.002704590 0.005000000
v 0.070000000 0.002800000 0.005000000
v 0.070724690 0.002704590 0.005000000
v 0.071400000 0.002424870 0.005000000
v 0.071979900 0.001979900 0.005000000
v 0.072424870 0.001400000 0.005000000
v 0.072704590 0.000724690 0.005000000
v 0.072800000 -0.000000000 0.005000000
v 0.072704590 -0.000724690 0.005000000
v 0.072424870 -0.001400000 0.005000000
v 0.071979900 -0.001979900 0.005000000
v 0.071400000 -0.002424870 0.005000000
v 0.070724690 -0.002704590 0.005000000
v 0.070000000 -0.002800000 0.005000000
v 0.069275310 -0.002704590 0.005000000
v 0.068600000 -0.002424870 0.005000000
v 0.068020100 -0.001979900 0.005000000
v 0.067575130 -0.001400000 0.005000000
v 0.067295410 -0.000724690 0.005000000
v 0.070000000 0.007500000 0.000000000
v 0.071095040 0.007413820 0.000000000
v 0.072163120 0.007157400 0.000000000
v 0.073177930 0.006737050 0.000000000
v 0.074114500 0.006163120 0.000000000
v 0.074949750 0.005449750 0.000000000
v 0.075663120 0.004614500 0.000000000
v 0.076237050 0.003677930 0.000000000
v 0.076657400 0.002663120 0.000000000
v 0.076913820 0.001595040 0.000000000
v 0.077000000 0.000500000 0.000000000
v 0.077000000 -0.000500000 0.000000000
v 0.076913820 -0.001595040 0.000000000
v 0.076657400 -0.002663120 0.000000000
v 0.076237050 -0.003677930 0.000000000
v 0.075663120 -0.004614500 0.000000000
v 0.074949750 -0.005449750 0.000000000
v 0.074114500 -0.006163120 0.000000000
v 0.073177930 -0.006737050 0.000000000
v 0.072163120 -0.007157400 0.000000000
v 0.071095040 -0.007413820 0.000000000
v 0.070000000 -0.007500000 0.000000000
v -0.070000000 -0.007500000 0.000000000
v -0.071095040 -0.007413820 0.000000000
v -0.072163120 -0.007157400 0.000000000
v -0.073177930 -0.006737050 0.000000000
v -0.074114500 -0.006163120 0.000000000
v -0.074949750 -0.005449750 0.000000000
v -0.075663120 -0.004614500 0.000000000
v -0.076237050 -0.003677930 0.000000000
v -0.076657400 -0.002663120 0.000000000
v -0.076913820 -0.001595040 0.000000000
v -0.077000000 -0.000500000 0.000000000
v -0.077000000 0.000500000 0.000000000
v -0.076913820 0.001595040 0.000000000
v -0.076657400 0.002663120 0.000000000
v -0.076237050 0.003677930 0.000000000
v -0.075663120 0.004614500 0.000000000
v -0.074949750 0.005449750 0.000000000
v -0.074114500 0.006163120 0.000000000
v -0.073177930 0.006737050 0.000000000
v -0.072163120 0.007157400 0.000000000
v -0.071095040 0.007413820 0.000000000
v -0.070000000 0.007500000 0.000000000
v 0.067200000 -0.000000000 0.000000000
v 0.067295410 -0.000724690 0.000000000
v 0.067575130 -0.001400000 0.000000000
v 0.068020100 -0.001979900 0.000000000
v 0.068600000 -0.002424870 0.000000000
v 0.069275310 -0.002704590 0.000000000
v 0.070000000 -0.002800000 0.000000000
v 0.070724690 -0.002704590 0.000000000
v 0.071400000 -0.002424870 0.000000000
v 0.071979900 -0.001979900 0.000000000
v 0.072424870 -0.001400000 0.000000000
v 0.072704590 -0.000724690 0.000000000
v 0.072800000 -0.000000000 0.000000000
v 0.072704590 0.000724690 0.000000000
v 0.072424870 0.001400000 0.000000000
v 0.071979900 0.001979900 0.000000000
v 0.071400000 0.002424870 0.000000000
v 0.070724690 0.002704590 0.000000000
v 0.070000000 0.002800000 0.000000000
v 0.069275310 0.002704590 0.000000000
v 0.068600000 0.002424870 0.000000000
v 0.068020100 0.001979900 0.000000000
v 0.067575130 0.001400000 0.000000000
v 0.067295410 0.000724690 0.000000000
v -0.067200000 0.000000000 0.000000000
v -0.067295410 0.000724690 0.000000000
v -0.067575130 0.001400000 0.000000000
v -0.068020100 0.001979900 0.000000000
v -0.068600000 0.002424870 0.000000000
v -0.069275310 0.002704590 0.000000000
v -0.070000000 0.002800000 0.000000000
v -0.070724690 0.002704590 0.000000000
v -0.071400000 0.002424870 0.000000000
v -0.071979900 0.001979900 0.000000000
v -0.072424870 0.001400000 0.000000000
v -0.072704590 0.000724690 0.000000000
v -0.072800000 0.000000000 0.000000000
v -0.072704590 -0.000724690 0.000000000
v -0.072424870 -0.001400000 0.000000000
v -0.071979900 -0.001979900 0.000000000
v -0.071400000 -0.002424870 0.000000000
v -0.070724690 -0.002704590 0.000000000
v -0.070000000 -0.002800000 0.000000000
v -0.069275310 -0.002704590 0.000000000
v -0.068600000 -0.002424870 0.000000000
v -0.068020100 -0.001979900 0.000000000
v -0.067575130 -0.001400000 0.000000000
v -0.067295410 -0.000724690 0.000000000
vt 0.691382 0.109504 0.000000
vt 0.270459 0.022469 0.000000
vt 0.700000 0.000000 0.000000
vt 0.280000 -0.050000 0.000000
vt 0.700000 -0.100000 0.000000
vt 0.270459 -0.122469 0.000000
vt 0.691382 -0.209504 0.000000
vt 0.242487 -0.190000 0.000000
vt 0.197990 -0.247990 0.000000
vt 0.665740 0.216312 0.000000
vt 0.197990 0.147990 0.000000
vt 0.242487 0.090000 0.000000
vt 0.623705 0.317793 0.000000
vt 0.000000 0.230000 0.000000
vt 0.072469 0.220459 0.000000
vt 0.140000 0.192487 0.000000
vt 0.566312 0.411450 0.000000
vt -0.072469 0.220459 0.000000
vt 0.494975 0.494975 0.000000
vt -14.000000 0.700000 0.000000
vt -0.000000 0.700000 0.000000
vt 0.411450 0.566312 0.000000
vt 0.317793 0.623705 0.000000
vt 0.216312 0.665740 0.000000
vt 0.109504 0.691382 0.000000
vt -14.109504 0.691382 0.000000
vt -14.216312 0.665740 0.000000
vt -14.317793 0.623705 0.000000
vt -14.411450 0.566312 0.000000
vt -14.494975 0.494975 0.000000
vt -13.927531 0.220459 0.000000
vt -14.566312 0.411450 0.000000
vt -14.000000 0.230000 0.000000
vt -14.623705 0.317793 0.000000
vt -14.665740 0.216312 0.000000
vt -14.691382 0.109504 0.000000
vt -14.197990 0.147990 0.000000
vt -14.140000 0.192487 0.000000
vt -14.072469 0.220459 0.000000
vt -14.700000 -0.000000 0.000000
vt -14.270459 0.022469 0.000000
vt -14.242487 0.090000 0.000000
vt -14.280000 -0.050000 0.000000
vt -14.700000 -0.100000 0.000000
vt -14.270459 -0.122469 0.000000
vt -14.691382 -0.209504 0.000000
vt -14.242487 -0.190000 0.000000
vt -14.197990 -0.247990 0.000000
vt -14.665740 -0.316312 0.000000
vt -14.140000 -0.292487 0.000000
vt -14.072469 -0.320459 0.000000
vt -14.000000 -0.330000 0.000000
vt -14.623705 -0.417793 0.000000
vt -14.566312 -0.511450 0.000000
vt -13.927531 -0.320459 0.000000
vt -14.494975 -0.594975 0.000000
vt -14.411450 -0.666312 0.000000
vt -14.000000 -0.800000 0.000000
vt -14.317793 -0.723705 0.000000
vt -14.216312 -0.765740 0.000000
vt -14.109504 -0.791382 0.000000
vt -0.000000 -0.800000 0.000000
vt -0.072469 -0.320459 0.000000
vt -13.860000 -0.292487 0.000000
vt -0.140000 -0.292487 0.000000
vt -13.802010 -0.247990 0.000000
vt -0.197990 -0.247990 0.000000
vt -13.757513 -0.190000 0.000000
vt -0.242487 -0.190000 0.000000
vt -13.729541 -0.122469 0.000000
vt -0.270459 -0.122469 0.000000
vt -13.720000 -0.050000 0.000000
vt -0.280000 -0.050000 0.000000
vt -13.729541 0.022469 0.000000
vt -0.270459 0.022469 0.000000
vt -13.757513 0.090000 0.000000
vt -0.242487 0.090000 0.000000
vt -13.802010 0.147990 0.000000
vt -0.197990 0.147990 0.000000
vt -13.860000 0.192487 0.000000
vt -0.140000 0.192487 0.000000
vt 0.109504 -0.791382 0.000000
vt 0.216312 -0.765740 0.000000
vt 0.317793 -0.723705 0.000000
vt 0.411450 -0.666312 0.000000
vt 0.494975 -0.594975 0.000000
vt 0.566312 -0.511450 0.000000
vt 0.000000 -0.330000 0.000000
vt 0.623705 -0.417793 0.000000
vt 0.665740 -0.316312 0.000000
vt 0.140000 -0.292487 0.000000
vt 0.072469 -0.320459 0.000000
vt -0.109504 0.691382 0.000000
vt -0.216312 0.665740 0.000000
vt 0.000000 0.700000 0.000000
vt -0.317793 0.623705 0.000000
vt -0.411450 0.566312 0.000000
vt -0.494975 0.494975 0.000000
vt 13.927531 0.220459 0.000000
vt 14.494975 0.494975 0.000000
vt 14.566312 0.411450 0.000000
vt 14.000000 0.230000 0.000000
vt 14.623705 0.317793 0.000000
vt 14.665740 0.216312 0.000000
vt 14.072469 0.220459 0.000000
vt 14.140000 0.192487 0.000000
vt 0.072469 0.220459 0.000000
vt -0.566312 0.411450 0.000000
vt -0.000000 0.230000 0.000000
vt -0.623705 0.317793 0.000000
vt -0.665740 0.216312 0.000000
vt -0.691382 0.109504 0.000000
vt -0.197990 0.147990 0.000000
vt -0.140000 0.192487 0.000000
vt -0.072469 0.220459 0.000000
vt -0.700000 0.000000 0.000000
vt -0.270459 0.022469 0.000000
vt -0.242487 0.090000 0.000000
vt -0.280000 -0.050000 0.000000
vt -0.700000 -0.100000 0.000000
vt -0.270459 -0.122469 0.000000
vt -0.691382 -0.209504 0.000000
vt -0.242487 -0.190000 0.000000
vt -0.197990 -0.247990 0.000000
vt -0.665740 -0.316312 0.000000
vt -0.140000 -0.292487 0.000000
vt -0.072469 -0.320459 0.000000
vt -0.000000 -0.330000 0.000000
vt -0.623705 -0.417793 0.000000
vt -0.566312 -0.511450 0.000000
vt 0.072469 -0.320459 0.000000
vt -0.494975 -0.594975 0.000000
vt -0.411450 -0.666312 0.000000
vt 0.000000 -0.800000 0.000000
vt -0.317793 -0.723705 0.000000
vt -0.216312 -0.765740 0.000000
vt -0.109504 -0.791382 0.000000
vt 14.000000 -0.800000 0.000000
vt 13.927531 -0.320459 0.000000
vt 0.140000 -0.292487 0.000000
vt 13.860000 -0.292487 0.000000
vt 0.197990 -0.247990 0.000000
vt 13.802010 -0.247990 0.000000
vt 0.242487 -0.190000 0.000000
vt 13.757513 -0.190000 0.000000
vt 0.270459 -0.122469 0.000000
vt 13.729541 -0.122469 0.000000
vt 0.280000 -0.050000 0.000000
vt 13.720000 -0.050000 0.000000
vt 0.270459 0.022469 0.000000
vt 13.729541 0.022469 0.000000
vt 0.242487 0.090000 0.000000
vt 13.757513 0.090000 0.000000
vt 0.197990 0.147990 0.000000
vt 13.802010 0.147990 0.000000
vt 0.140000 0.192487 0.000000
vt 13.860000 0.192487 0.000000
vt 14.109504 -0.791382 0.000000
vt 14.216312 -0.765740 0.000000
vt 14.317793 -0.723705 0.000000
vt 14.411450 -0.666312 0.000000
vt 14.494975 -0.594975 0.000000
vt 14.566312 -0.511450 0.000000
vt 14.000000 -0.330000 0.000000
vt 14.623705 -0.417793 0.000000
vt 14.665740 -0.316312 0.000000
vt 14.691382 -0.209504 0.000000
vt 14.197990 -0.247990 0.000000
vt 14.140000 -0.292487 0.000000
vt 14.072469 -0.320459 0.000000
vt 14.700000 -0.100000 0.000000
vt 14.270459 -0.122469 0.000000
vt 14.242487 -0.190000 0.000000
vt 14.280000 -0.050000 0.000000
vt 14.700000 -0.000000 0.000000
vt 14.270459 0.022469 0.000000
vt 14.691382 0.109504 0.000000
vt 14.242487 0.090000 0.000000
vt 14.197990 0.147990 0.000000
vt 14.000000 0.700000 0.000000
vt 14.411450 0.566312 0.000000
vt 14.317793 0.623705 0.000000
vt 14.216312 0.665740 0.000000
vt 14.109504 0.691382 0.000000
vt 0.000000 -2.199115 0.000000
vt -0.500000 -2.199115 0.000000
vt 0.000000 -2.309071 0.000000
vt -0.500000 -2.309071 0.000000
vt 0.000000 -2.419026 0.000000
vt -0.500000 -2.419026 0.000000
vt -0.000000 -2.528982 0.000000
vt -0.500000 -2.528982 0.000000
vt 0.000000 -2.638938 0.000000
vt -0.500000 -2.638938 0.000000
vt 0.000000 -2.748894 0.000000
vt -0.500000 -2.748894 0.000000
vt 0.000000 -2.858849 0.000000
vt -0.500000 -2.858849 0.000000
vt 0.000000 -2.968805 0.000000
vt -0.500000 -2.968805 0.000000
vt 0.000000 -3.078761 0.000000
vt -0.500000 -3.078761 0.000000
vt 0.000000 -3.188717 0.000000
vt -0.500000 -3.188717 0.000000
vt -0.000000 -3.298672 0.000000
vt -0.500000 -3.298672 0.000000
vt -0.500000 0.000000 0.000000
vt -0.000000 0.000000 0.000000
vt -0.500000 14.000000 0.000000
vt -0.000000 14.000000 0.000000
vt -0.000000 1.099557 0.000000
vt -0.500000 1.099557 0.000000
vt -0.000000 0.989602 0.000000
vt -0.500000 0.989602 0.000000
vt -0.000000 0.879646 0.000000
vt -0.500000 0.879646 0.000000
vt -0.000000 0.769690 0.000000
vt -0.500000 0.769690 0.000000
vt -0.000000 0.659734 0.000000
vt -0.500000 0.659734 0.000000
vt -0.000000 0.549779 0.000000
vt -0.500000 0.549779 0.000000
vt -0.000000 0.439823 0.000000
vt -0.500000 0.439823 0.000000
vt -0.000000 0.329867 0.000000
vt -0.500000 0.329867 0.000000
vt -0.000000 0.219911 0.000000
vt -0.500000 0.219911 0.000000
vt -0.000000 0.109956 0.000000
vt -0.500000 0.109956 0.000000
vt -0.000000 0.000000 0.000000
vt -0.500000 0.000000 0.000000
vt -0.500000 -0.100000 0.000000
vt 0.000000 -0.100000 0.000000
vt -0.500000 0.000000 0.000000
vt -0.000000 0.000000 0.000000
vt -0.000000 -0.000000 0.000000
vt -0.500000 -0.000000 0.000000
vt -0.000000 -0.109956 0.000000
vt -0.500000 -0.109956 0.000000
vt -0.000000 -0.219911 0.000000
vt -0.500000 -0.219911 0.000000
vt -0.000000 -0.329867 0.000000
vt -0.500000 -0.329867 0.000000
vt -0.000000 -0.439823 0.000000
vt -0.500000 -0.439823 0.000000
vt -0.000000 -0.549779 0.000000
vt -0.500000 -0.549779 0.000000
vt -0.000000 -0.659734 0.000000
vt -0.500000 -0.659734 0.000000
vt -0.000000 -0.769690 0.000000
vt -0.500000 -0.769690 0.000000
vt -0.000000 -0.879646 0.000000
vt -0.500000 -0.879646 0.000000
vt -0.000000 -0.989602 0.000000
vt -0.500000 -0.989602 0.000000
vt -0.000000 -1.099557 0.000000
vt -0.500000 -1.099557 0.000000
vt 0.500000 14.000000 0.000000
vt -0.000000 14.000000 0.000000
vt 0.500000 -0.000000 0.000000
vt -0.000000 -0.000000 0.000000
vt -0.000000 -1.099557 0.000000
vt -0.500000 -1.099557 0.000000
vt -0.000000 -1.209513 0.000000
vt -0.500000 -1.209513 0.000000
vt -0.000000 -1.319469 0.000000
vt -0.500000 -1.319469 0.000000
vt -0.000000 -1.429425 0.000000
vt -0.500000 -1.429425 0.000000
vt -0.000000 -1.539380 0.000000
vt -0.500000 -1.539380 0.000000
vt -0.000000 -1.649336 0.000000
vt -0.500000 -1.649336 0.000000
vt -0.000000 -1.759292 0.000000
vt -0.500000 -1.759292 0.000000
vt -0.000000 -1.869248 0.000000
vt -0.500000 -1.869248 0.000000
vt -0.000000 -1.979203 0.000000
vt -0.500000 -1.979203 0.000000
vt -0.000000 -2.089159 0.000000
vt -0.500000 -2.089159 0.000000
vt 0.000000 -2.199115 0.000000
vt -0.500000 -2.199115 0.000000
vt 0.500000 0.000000 0.000000
vt -0.000000 0.000000 0.000000
vt 0.500000 -0.100000 0.000000
vt -0.000000 -0.100000 0.000000
vt -0.000000 0.806342 0.000000
vt 0.500000 0.806342 0.000000
vt 0.000000 0.879646 0.000000
vt 0.500000 0.879646 0.000000
vt 0.000000 -0.879646 0.000000
vt 0.500000 -0.879646 0.000000
vt 0.000000 -0.806342 0.000000
vt 0.500000 -0.806342 0.000000
vt 0.000000 -0.733038 0.000000
vt 0.500000 -0.733038 0.000000
vt 0.000000 -0.659734 0.000000
vt 0.500000 -0.659734 0.000000
vt 0.000000 -0.586431 0.000000
vt 0.500000 -0.586431 0.000000
vt 0.000000 -0.513127 0.000000
vt 0.500000 -0.513127 0.000000
vt 0.000000 -0.439823 0.000000
vt 0.500000 -0.439823 0.000000
vt 0.000000 -0.366519 0.000000
vt 0.500000 -0.366519 0.000000
vt 0.000000 -0.293215 0.000000
vt 0.500000 -0.293215 0.000000
vt 0.000000 -0.219911 0.000000
vt 0.500000 -0.219911 0.000000
vt 0.000000 -0.146608 0.000000
vt 0.500000 -0.146608 0.000000
vt 0.000000 -0.073304 0.000000
vt 0.500000 -0.073304 0.000000
vt 0.000000 0.000000 0.000000
vt 0.500000 0.000000 0.000000
vt 0.000000 0.073304 0.000000
vt 0.500000 0.073304 0.000000
vt 0.000000 0.146608 0.000000
vt 0.500000 0.146608 0.000000
vt 0.000000 0.219911 0.000000
vt 0.500000 0.219911 0.000000
vt 0.000000 0.293215 0.000000
vt 0.500000 0.293215 0.000000
vt 0.000000 0.366519 0.000000
vt 0.500000 0.366519 0.000000
vt -0.000000 0.439823 0.000000
vt 0.500000 0.439823 0.000000
vt -0.000000 0.513127 0.000000
vt 0.500000 0.513127 0.000000
vt -0.000000 0.586431 0.000000
vt 0.500000 0.586431 0.000000
vt -0.000000 0.659734 0.000000
vt 0.500000 0.659734 0.000000
vt 0.000000 0.733038 0.000000
vt 0.500000 0.733038 0.000000
vt 0.000000 -0.073304 0.000000
vt 0.500000 -0.073304 0.000000
vt 0.000000 0.000000 0.000000
vt 0.500000 0.000000 0.000000
vt 0.000000 0.073304 0.000000
vt 0.500000 0.073304 0.000000
vt 0.000000 0.146608 0.000000
vt 0.500000 0.146608 0.000000
vt 0.000000 0.219911 0.000000
vt 0.500000 0.219911 0.000000
vt 0.000000 0.293215 0.000000
vt 0.500000 0.293215 0.000000
vt 0.000000 0.366519 0.000000
vt 0.500000 0.366519 0.000000
vt -0.000000 0.439823 0.000000
vt 0.500000 0.439823 0.000000
vt -0.000000 0.513127 0.000000
vt 0.500000 0.513127 0.000000
vt -0.000000 0.586431 0.000000
vt 0.500000 0.586431 0.000000
vt 0.000000 0.659734 0.000000
vt 0.500000 0.659734 0.000000
vt 0.000000 0.733038 0.000000
vt 0.500000 0.733038 0.000000
vt -0.000000 0.806342 0.000000
vt 0.500000 0.806342 0.000000
vt 0.000000 0.879646 0.000000
vt 0.500000 0.879646 0.000000
vt 0.000000 -0.879646 0.000000
vt 0.500000 -0.879646 0.000000
vt 0.000000 -0.806342 0.000000
vt 0.500000 -0.806342 0.000000
vt 0.000000 -0.733038 0.000000
vt 0.500000 -0.733038 0.000000
vt 0.000000 -0.659734 0.000000
vt 0.500000 -0.659734 0.000000
vt 0.000000 -0.586431 0.000000
vt 0.500000 -0.586431 0.000000
vt 0.000000 -0.513127 0.000000
vt 0.500000 -0.513127 0.000000
vt 0.000000 -0.439823 0.000000
vt 0.500000 -0.439823 0.000000
vt 0.000000 -0.366519 0.000000
vt 0.500000 -0.366519 0.000000
vt 0.000000 -0.293215 0.000000
vt 0.500000 -0.293215 0.000000
vt 0.000000 -0.219911 0.000000
vt 0.500000 -0.219911 0.000000
vt 0.000000 -0.146608 0.000000
vt 0.500000 -0.146608 0.000000
vn 0.000000000 0.000000000 1.000000000
vn 0.000000000 0.000000000 1.000000000
vn 0.000000000 0.000000000 1.000000000
vn 0.000000000 0.000000000 1.000000000
vn 0.000000000 0.000000000 1.000000000
vn 0.000000000 0.000000000 1.000000000
vn 0.000000000 0.000000000 1.000000000
vn 0.000000000 0.000000000 1.000000000
vn 0.000000000 0.000000000 1.000000000
vn 0.000000000 0.000000000 1.000000000
vn 0.000000000 0.000000000 1.000000000
vn 0.000000000 0.000000000 1.000000000
vn 0.000000000 0.000000000 1.000000000
vn 0.000000000 0.000000000 1.000000000
vn 0.000000000 0.000000000 1.000000000
vn 0.000000000 0.000000000 1.000000000
vn 0.000000000 0.000000000 1.000000000
vn 0.000000000 0.000000000 1.000000000
vn 0.000000000 0.000000000 1.000000000
vn 0.000000000 0.000000000 1.000000000
vn 0.000000000 0.000000000 1.000000000
vn 0.000000000 0.000000000 1.000000000
vn 0.000000000 0.000000000 1.000000000
vn 0.000000000 0.000000000 1.000000000
vn 0.000000000 0.000000000 1.000000000
vn 0.000000000 0.000000000 1.000000000
vn 0.000000000 0.000000000 1.000000000
vn 0.000000000 0.000000000 1.000000000
vn 0.000000000 0.000000000 1.000000000
vn 0.000000000 0.000000000 1.000000000
vn 0.000000000 0.000000000 1.000000000
vn 0.000000000 0.000000000 1.000000000
vn 0.000000000 0.000000000 1.000000000
vn 0.000000000 0.000000000 1.000000000
vn 0.000000000 0.000000000 1.000000000
vn 0.000000000 0.000000000 1.000000000
vn 0.000000000 0.000000000 1.000000000
vn 0.000000000 0.000000000 1.000000000
vn 0.000000000 0.000000000 1.000000000
vn 0.000000000 0.000000000 1.000000000
vn 0.000000000 0.000000000 1.000000000
vn 0.000000000 0.000000000 1.000000000
vn 0.000000000 0.000000000 1.000000000
vn 0.000000000 0.000000000 1.000000000
vn 0.000000000 0.000000000 1.000000000
vn 0.000000000 0.000000000 1.000000000
vn 0.000000000 0.000000000 1.000000000
vn 0.000000000 0.000000000 1.000000000
vn 0.000000000 0.000000000 1.000000000
vn 0.000000000 0.000000000 1.000000000
vn 0.000000000 0.000000000 1.000000000
vn 0.000000000 0.000000000 1.000000000
vn 0.000000000 0.000000000 1.000000000
vn 0.000000000 0.000000000 1.000000000
vn 0.000000000 0.000000000 1.000000000
vn 0.000000000 0.000000000 1.000000000
vn 0.000000000 0.000000000 1.000000000
vn 0.000000000 0.000000000 1.000000000
vn 0.000000000 0.000000000 1.000000000
vn 0.000000000 0.000000000 1.000000000
vn 0.000000000 0.000000000 1.000000000
vn 0.000000000 0.000000000 1.000000000
vn 0.000000000 0.000000000 1.000000000
vn 0.000000000 0.000000000 1.000000000
vn 0.000000000 0.000000000 1.000000000
vn 0.000000000 0.000000000 1.000000000
vn 0.000000000 0.000000000 1.000000000
vn 0.000000000 0.000000000 1.000000000
vn 0.000000000 0.000000000 1.000000000
vn 0.000000000 0.000000000 1.000000000
vn 0.000000000 0.000000000 1.000000000
vn 0.000000000 0.000000000 1.000000000
vn 0.000000000 0.000000000 1.000000000
vn 0.000000000 0.000000000 1.000000000
vn 0.000000000 0.000000000 1.000000000
vn 0.000000000 0.000000000 1.000000000
vn 0.000000000 0.000000000 1.000000000
vn 0.000000000 0.000000000 1.000000000
vn 0.000000000 0.000000000 1.000000000
vn 0.000000000 0.000000000 1.000000000
vn 0.000000000 0.000000000 1.000000000
vn 0.000000000 0.000000000 1.000000000
vn 0.000000000 0.000000000 1.000000000
vn 0.000000000 0.000000000 1.000000000
vn 0.000000000 0.000000000 1.000000000
vn 0.000000000 0.000000000 1.000000000
vn 0.000000000 0.000000000 1.000000000
vn 0.000000000 0.000000000 1.000000000
vn 0.000000000 0.000000000 1.000000000
vn 0.000000000 0.000000000 1.000000000
vn 0.000000000 0.000000000 1.000000000
vn 0.000000000 0.000000000 1.000000000
vn -0.000000000 -0.000000000 -1.000000000
vn -0.000000000 -0.000000000 -1.000000000
vn -0.000000000 -0.000000000 -1.000000000
vn -0.000000000 -0.000000000 -1.000000000
vn -0.000000000 -0.000000000 -1.000000000
vn -0.000000000 -0.000000000 -1.000000000
vn -0.000000000 -0.000000000 -1.000000000
vn -0.000000000 -0.000000000 -1.000000000
vn -0.000000000 -0.000000000 -1.000000000
vn -0.000000000 -0.000000000 -1.000000000
vn -0.000000000 -0.000000000 -1.000000000
vn -0.000000000 -0.000000000 -1.000000000
vn -0.000000000 -0.000000000 -1.000000000
vn -0.000000000 -0.000000000 -1.000000000
vn -0.000000000 -0.000000000 -1.000000000
vn -0.000000000 -0.000000000 -1.000000000
vn -0.000000000 -0.000000000 -1.000000000
vn -0.000000000 -0.000000000 -1.000000000
vn -0.000000000 -0.000000000 -1.000000000
vn -0.000000000 -0.000000000 -1.000000000
vn -0.000000000 -0.000000000 -1.000000000
vn -0.000000000 -0.000000000 -1.000000000
vn -0.000000000 -0.000000000 -1.000000000
vn -0.000000000 -0.000000000 -1.000000000
vn -0.000000000 -0.000000000 -1.000000000
vn -0.000000000 -0.000000000 -1.000000000
vn -0.000000000 -0.000000000 -1.000000000
vn -0.000000000 -0.000000000 -1.000000000
vn -0.000000000 -0.000000000 -1.000000000
vn -0.000000000 -0.000000000 -1.000000000
vn -0.000000000 -0.000000000 -1.000000000
vn -0.000000000 -0.000000000 -1.000000000
vn -0.000000000 -0.000000000 -1.000000000
vn -0.000000000 -0.000000000 -1.000000000
vn -0.000000000 -0.000000000 -1.000000000
vn -0.000000000 -0.000000000 -1.000000000
vn -0.000000000 -0.000000000 -1.000000000
vn -0.000000000 -0.000000000 -1.000000000
vn -0.000000000 -0.000000000 -1.000000000
vn -0.000000000 -0.000000000 -1.000000000
vn -0.000000000 -0.000000000 -1.000000000
vn -0.000000000 -0.000000000 -1.000000000
vn -0.000000000 -0.000000000 -1.000000000
vn -0.000000000 -0.000000000 -1.000000000
vn -0.000000000 -0.000000000 -1.000000000
vn -0.000000000 -0.000000000 -1.000000000
vn -0.000000000 -0.000000000 -1.000000000
vn -0.000000000 -0.000000000 -1.000000000
vn -0.000000000 -0.000000000 -1.000000000
vn -0.000000000 -0.000000000 -1.000000000
vn -0.000000000 -0.000000000 -1.000000000
vn -0.000000000 -0.000000000 -1.000000000
vn -0.000000000 -0.000000000 -1.000000000
vn -0.000000000 -0.000000000 -1.000000000
vn -0.000000000 -0.000000000 -1.000000000
vn -0.000000000 -0.000000000 -1.000000000
vn -0.000000000 -0.000000000 -1.000000000
vn -0.000000000 -0.000000000 -1.000000000
vn -0.000000000 -0.000000000 -1.000000000
vn -0.000000000 -0.000000000 -1.000000000
vn -0.000000000 -0.000000000 -1.000000000
vn -0.000000000 -0.000000000 -1.000000000
vn -0.000000000 -0.000000000 -1.000000000
vn -0.000000000 -0.000000000 -1.000000000
vn -0.000000000 -0.000000000 -1.000000000
vn -0.000000000 -0.000000000 -1.000000000
vn -0.000000000 -0.000000000 -1.000000000
vn -0.000000000 -0.000000000 -1.000000000
vn -0.000000000 -0.000000000 -1.000000000
vn -0.000000000 -0.000000000 -1.000000000
vn -0.000000000 -0.000000000 -1.000000000
vn -0.000000000 -0.000000000 -1.000000000
vn -0.000000000 -0.000000000 -1.000000000
vn -0.000000000 -0.000000000 -1.000000000
vn -0.000000000 -0.000000000 -1.000000000
vn -0.000000000 -0.000000000 -1.000000000
vn -0.000000000 -0.000000000 -1.000000000
vn -0.000000000 -0.000000000 -1.000000000
vn -0.000000000 -0.000000000 -1.000000000
vn -0.000000000 -0.000000000 -1.000000000
vn -0.000000000 -0.000000000 -1.000000000
vn -0.000000000 -0.000000000 -1.000000000
vn -0.000000000 -0.000000000 -1.000000000
vn -0.000000000 -0.000000000 -1.000000000
vn -0.000000000 -0.000000000 -1.000000000
vn -0.000000000 -0.000000000 -1.000000000
vn -0.000000000 -0.000000000 -1.000000000
vn -0.000000000 -0.000000000 -1.000000000
vn -0.000000000 -0.000000000 -1.000000000
vn -0.000000000 -0.000000000 -1.000000000
vn -0.000000000 -0.000000000 -1.000000000
vn -0.000000000 -0.000000000 -1.000000000
vn 1.000000000 -0.000000000 0.000000000
vn 1.000000000 -0.000000000 0.000000000
vn 0.987688404 0.156434064 0.000000000
vn 0.987688404 0.156434064 0.000000000
vn 0.951056561 0.309016857 0.000000000
vn 0.951056561 0.309016857 0.000000000
vn 0.891006824 0.453989911 0.000000000
vn 0.891006824 0.453989911 0.000000000
vn 0.809017116 0.587785084 0.000000000
vn 0.809017116 0.587785084 0.000000000
vn 0.707106781 0.707106781 0.000000000
vn 0.707106781 0.707106781 0.000000000
vn 0.587785084 0.809017116 0.000000000
vn 0.587785084 0.809017116 0.000000000
vn 0.453989911 0.891006824 0.000000000
vn 0.453989911 0.891006824 0.000000000
vn 0.309016857 0.951056561 0.000000000
vn 0.309016857 0.951056561 0.000000000
vn 0.156434064 0.987688404 0.000000000
vn 0.156434064 0.987688404 0.000000000
vn 0.000000000 1.000000000 0.000000000
vn 0.000000000 1.000000000 0.000000000
vn -0.000000000 1.000000000 -0.000000000
vn -0.000000000 1.000000000 -0.000000000
vn -0.156434064 0.987688404 0.000000000
vn -0.156434064 0.987688404 0.000000000
vn -0.309016857 0.951056561 0.000000000
vn -0.309016857 0.951056561 0.000000000
vn -0.453989911 0.891006824 0.000000000
vn -0.453989911 0.891006824 0.000000000
vn -0.587785084 0.809017116 0.000000000
vn -0.587785084 0.809017116 0.000000000
vn -0.707106781 0.707106781 0.000000000
vn -0.707106781 0.707106781 0.000000000
vn -0.809017116 0.587785084 0.000000000
vn -0.809017116 0.587785084 0.000000000
vn -0.891006824 0.453989911 0.000000000
vn -0.891006824 0.453989911 0.000000000
vn -0.951056561 0.309016857 0.000000000
vn -0.951056561 0.309016857 0.000000000
vn -0.987688404 0.156434064 0.000000000
vn -0.987688404 0.156434064 0.000000000
vn -1.000000000 0.000000000 0.000000000
vn -1.000000000 0.000000000 0.000000000
vn -1.000000000 -0.000000000 0.000000000
vn -1.000000000 -0.000000000 0.000000000
vn -0.987688404 -0.156434064 0.000000000
vn -0.987688404 -0.156434064 0.000000000
vn -0.951056561 -0.309016857 0.000000000
vn -0.951056561 -0.309016857 0.000000000
vn -0.891006824 -0.453989911 0.000000000
vn -0.891006824 -0.453989911 0.000000000
vn -0.809017116 -0.587785084 0.000000000
vn -0.809017116 -0.587785084 0.000000000
vn -0.707106781 -0.707106781 0.000000000
vn -0.707106781 -0.707106781 0.000000000
vn -0.587785084 -0.809017116 0.000000000
vn -0.587785084 -0.809017116 0.000000000
vn -0.453989911 -0.891006824 0.000000000
vn -0.453989911 -0.891006824 0.000000000
vn -0.309016857 -0.951056561 0.000000000
vn -0.309016857 -0.951056561 0.000000000
vn -0.156434064 -0.987688404 0.000000000
vn -0.156434064 -0.987688404 0.000000000
vn -0.000000000 -1.000000000 0.000000000
vn -0.000000000 -1.000000000 0.000000000
vn 0.000000000 -1.000000000 -0.000000000
vn 0.000000000 -1.000000000 -0.000000000
vn 0.156434064 -0.987688404 0.000000000
vn 0.156434064 -0.987688404 0.000000000
vn 0.309016857 -0.951056561 0.000000000
vn 0.309016857 -0.951056561 0.000000000
vn 0.453989911 -0.891006824 0.000000000
vn 0.453989911 -0.891006824 0.000000000
vn 0.587785084 -0.809017116 0.000000000
vn 0.587785084 -0.809017116 0.000000000
vn 0.707106781 -0.707106781 0.000000000
vn 0.707106781 -0.707106781 0.000000000
vn 0.809017116 -0.587785084 0.000000000
vn 0.809017116 -0.587785084 0.000000000
vn 0.891006824 -0.453989911 0.000000000
vn 0.891006824 -0.453989911 0.000000000
vn 0.951056561 -0.309016857 0.000000000
vn 0.951056561 -0.309016857 0.000000000
vn 0.987688404 -0.156434064 0.000000000
vn 0.987688404 -0.156434064 0.000000000
vn 1.000000000 -0.000000000 0.000000000
vn 1.000000000 -0.000000000 0.000000000
vn -0.965925849 -0.258818960 -0.000000000
vn -0.965925849 -0.258818960 -0.000000000
vn -1.000000000 -0.000000000 -0.000000000
vn -1.000000000 -0.000000000 -0.000000000
vn -0.965925849 0.258818960 -0.000000000
vn -0.965925849 0.258818960 -0.000000000
vn -0.866025303 0.500000175 -0.000000000
vn -0.866025303 0.500000175 -0.000000000
vn -0.707106781 0.707106781 -0.000000000
vn -0.707106781 0.707106781 -0.000000000
vn -0.500000175 0.866025303 -0.000000000
vn -0.500000175 0.866025303 -0.000000000
vn -0.258818960 0.965925849 -0.000000000
vn -0.258818960 0.965925849 -0.000000000
vn 0.000000000 1.000000000 -0.000000000
vn 0.000000000 1.000000000 -0.000000000
vn 0.258818960 0.965925849 -0.000000000
vn 0.258818960 0.965925849 -0.000000000
vn 0.500000175 0.866025303 -0.000000000
vn 0.500000175 0.866025303 -0.000000000
vn 0.707106781 0.707106781 -0.000000000
vn 0.707106781 0.707106781 -0.000000000
vn 0.866025303 0.500000175 -0.000000000
vn 0.866025303 0.500000175 -0.000000000
vn 0.965925849 0.258818960 -0.000000000
vn 0.965925849 0.258818960 -0.000000000
vn 1.000000000 -0.000000000 -0.000000000
vn 1.000000000 -0.000000000 -0.000000000
vn 0.965925849 -0.258818960 -0.000000000
vn 0.965925849 -0.258818960 -0.000000000
vn 0.866025303 -0.500000175 -0.000000000
vn 0.866025303 -0.500000175 -0.000000000
vn 0.707106781 -0.707106781 -0.000000000
vn 0.707106781 -0.707106781 -0.000000000
vn 0.500000175 -0.866025303 -0.000000000
vn 0.500000175 -0.866025303 -0.000000000
vn 0.258818960 -0.965925849 -0.000000000
vn 0.258818960 -0.965925849 -0.000000000
vn 0.000000000 -1.000000000 -0.000000000
vn 0.000000000 -1.000000000 -0.000000000
vn -0.258818960 -0.965925849 -0.000000000
vn -0.258818960 -0.965925849 -0.000000000
vn -0.500000175 -0.866025303 -0.000000000
vn -0.500000175 -0.866025303 -0.000000000
vn -0.707106781 -0.707106781 -0.000000000
vn -0.707106781 -0.707106781 -0.000000000
vn -0.866025303 -0.500000175 -0.000000000
vn -0.866025303 -0.500000175 -0.000000000
vn 0.965925849 0.258818960 -0.000000000
vn 0.965925849 0.258818960 -0.000000000
vn 1.000000000 -0.000000000 -0.000000000
vn 1.000000000 -0.000000000 -0.000000000
vn 0.965925849 -0.258818960 -0.000000000
vn 0.965925849 -0.258818960 -0.000000000
vn 0.866025303 -0.500000175 -0.000000000
vn 0.866025303 -0.500000175 -0.000000000
vn 0.707106781 -0.707106781 -0.000000000
vn 0.707106781 -0.707106781 -0.000000000
vn 0.500000175 -0.866025303 -0.000000000
vn 0.500000175 -0.866025303 -0.000000000
vn 0.258818960 -0.965925849 -0.000000000
vn 0.258818960 -0.965925849 -0.000000000
vn 0.000000000 -1.000000000 -0.000000000
vn 0.000000000 -1.000000000 -0.000000000
vn -0.258818960 -0.965925849 -0.000000000
vn -0.258818960 -0.965925849 -0.000000000
vn -0.500000175 -0.866025303 -0.000000000
vn -0.500000175 -0.866025303 -0.000000000
vn -0.707106781 -0.707106781 -0.000000000
vn -0.707106781 -0.707106781 -0.000000000
vn -0.866025303 -0.500000175 -0.000000000
vn -0.866025303 -0.500000175 -0.000000000
vn -0.965925849 -0.258818960 -0.000000000
vn -0.965925849 -0.258818960 -0.000000000
vn -1.000000000 -0.000000000 -0.000000000
vn -1.000000000 -0.000000000 -0.000000000
vn -0.965925849 0.258818960 -0.000000000
vn -0.965925849 0.258818960 -0.000000000
vn -0.866025303 0.500000175 -0.000000000
vn -0.866025303 0.500000175 -0.000000000
vn -0.707106781 0.707106781 -0.000000000
vn -0.707106781 0.707106781 -0.000000000
vn -0.500000175 0.866025303 -0.000000000
vn -0.500000175 0.866025303 -0.000000000
vn -0.258818960 0.965925849 -0.000000000
vn -0.258818960 0.965925849 -0.000000000
vn 0.000000000 1.000000000 -0.000000000
vn 0.000000000 1.000000000 -0.000000000
vn 0.258818960 0.965925849 -0.000000000
vn 0.258818960 0.965925849 -0.000000000
vn 0.500000175 0.866025303 -0.000000000
vn 0.500000175 0.866025303 -0.000000000
vn 0.707106781 0.707106781 -0.000000000
vn 0.707106781 0.707106781 -0.000000000
vn 0.866025303 0.500000175 -0.000000000
vn 0.866025303 0.500000175 -0.000000000
usemtl 강철_-_새틴
f 2/1/1 80/2/2 1/3/3
f 1/3/3 80/2/2 81/4/4
f 1/3/3 81/4/4 44/5/5
f 44/5/5 81/4/4 82/6/6
f 44/5/5 82/6/6 43/7/7
f 43/7/7 82/6/6 83/8/8
f 43/7/7 83/8/8 84/9/9
f 3/10/10 78/11/11 2/1/1
f 2/1/1 78/11/11 79/12/12
f 2/1/1 79/12/12 80/2/2
f 4/13/13 75/14/14 3/10/10
f 3/10/10 75/14/14 76/15/15
f 3/10/10 76/15/15 77/16/16
f 4/13/13 5/17/17 75/14/14
f 75/14/14 5/17/17 74/18/18
f 74/18/18 5/17/17 6/19/19
f 74/18/18 6/19/19 12/20/20
f 12/20/20 6/19/19 11/21/21
f 11/21/21 6/19/19 7/22/22
f 11/21/21 7/22/22 8/23/23
f 8/23/23 9/24/24 11/21/21
f 11/21/21 9/24/24 10/25/25
f 13/26/26 14/27/27 12/20/20
f 12/20/20 14/27/27 15/28/28
f 12/20/20 15/28/28 16/29/29
f 16/29/29 17/30/30 12/20/20
f 12/20/20 17/30/30 74/18/18
f 74/18/18 17/30/30 64/31/31
f 64/31/31 17/30/30 18/32/32
f 64/31/31 18/32/32 63/33/33
f 63/33/33 18/32/32 19/34/34
f 63/33/33 19/34/34 20/35/35
f 21/36/36 60/37/37 20/35/35
f 20/35/35 60/37/37 61/38/38
f 20/35/35 61/38/38 62/39/39
f 22/40/40 58/41/41 21/36/36
f 21/36/36 58/41/41 59/42/42
f 21/36/36 59/42/42 60/37/37
f 58/41/41 22/40/40 57/43/43
f 57/43/43 22/40/40 23/44/44
f 57/43/43 23/44/44 56/45/45
f 56/45/45 23/44/44 24/46/46
f 56/45/45 24/46/46 55/47/47
f 55/47/47 24/46/46 54/48/48
f 54/48/48 24/46/46 25/49/49
f 54/48/48 25/49/49 53/50/50
f 53/50/50 25/49/49 52/51/51
f 52/51/51 25/49/49 51/52/52
f 51/52/52 25/49/49 26/53/53
f 51/52/52 26/53/53 27/54/54
f 51/52/52 27/54/54 50/55/55
f 50/55/55 27/54/54 28/56/56
f 50/55/55 28/56/56 29/57/57
f 50/55/55 29/57/57 33/58/58
f 33/58/58 29/57/57 30/59/59
f 33/58/58 30/59/59 31/60/60
f 31/60/60 32/61/61 33/58/58
f 33/58/58 34/62/62 50/55/55
f 50/55/55 34/62/62 88/63/63
f 50/55/55 88/63/63 49/64/64
f 49/64/64 88/63/63 89/65/65
f 49/64/64 89/65/65 48/66/66
f 48/66/66 89/65/65 90/67/67
f 48/66/66 90/67/67 47/68/68
f 47/68/68 90/67/67 91/69/69
f 47/68/68 91/69/69 46/70/70
f 46/70/70 91/69/69 92/71/71
f 46/70/70 92/71/71 45/72/72
f 45/72/72 92/71/71 69/73/73
f 45/72/72 69/73/73 68/74/74
f 68/74/74 69/73/73 70/75/75
f 68/74/74 70/75/75 67/76/76
f 67/76/76 70/75/75 71/77/77
f 67/76/76 71/77/77 66/78/78
f 66/78/78 71/77/77 72/79/79
f 66/78/78 72/79/79 65/80/80
f 65/80/80 72/79/79 73/81/81
f 65/80/80 73/81/81 64/31/31
f 64/31/31 73/81/81 74/18/18
f 35/82/82 36/83/83 34/62/62
f 34/62/62 36/83/83 37/84/84
f 34/62/62 37/84/84 38/85/85
f 34/62/62 38/85/85 88/63/63
f 88/63/63 38/85/85 39/86/86
f 88/63/63 39/86/86 40/87/87
f 88/63/63 40/87/87 87/88/88
f 87/88/88 40/87/87 41/89/89
f 87/88/88 41/89/89 42/90/90
f 43/7/7 84/9/9 42/90/90
f 42/90/90 84/9/9 85/91/91
f 42/90/90 85/91/91 86/92/92
f 62/39/39 63/33/33 20/35/35
f 77/16/16 78/11/11 3/10/10
f 86/92/92 87/88/88 42/90/90
f 94/93/93 95/94/94 93/95/95
f 93/95/95 95/94/94 96/96/96
f 93/95/95 96/96/96 97/97/97
f 97/97/97 98/98/98 93/95/95
f 93/95/95 98/98/98 166/99/99
f 93/95/95 166/99/99 131/100/100
f 131/100/100 166/99/99 130/101/101
f 130/101/101 166/99/99 167/102/102
f 130/101/101 167/102/102 129/103/103
f 129/103/103 167/102/102 128/104/104
f 128/104/104 167/102/102 168/105/105
f 128/104/104 168/105/105 169/106/106
f 166/99/99 98/98/98 156/107/107
f 156/107/107 98/98/98 99/108/108
f 156/107/107 99/108/108 155/109/109
f 155/109/109 99/108/108 100/110/110
f 155/109/109 100/110/110 101/111/111
f 102/112/112 152/113/113 101/111/111
f 101/111/111 152/113/113 153/114/114
f 101/111/111 153/114/114 154/115/115
f 103/116/116 150/117/117 102/112/112
f 102/112/112 150/117/117 151/118/118
f 102/112/112 151/118/118 152/113/113
f 150/117/117 103/116/116 149/119/119
f 149/119/119 103/116/116 104/120/120
f 149/119/119 104/120/120 148/121/121
f 148/121/121 104/120/120 105/122/122
f 148/121/121 105/122/122 147/123/123
f 147/123/123 105/122/122 146/124/124
f 146/124/124 105/122/122 106/125/125
f 146/124/124 106/125/125 145/126/126
f 145/126/126 106/125/125 144/127/127
f 144/127/127 106/125/125 143/128/128
f 143/128/128 106/125/125 107/129/129
f 143/128/128 107/129/129 108/130/130
f 143/128/128 108/130/130 142/131/131
f 142/131/131 108/130/130 109/132/132
f 142/131/131 109/132/132 110/133/133
f 142/131/131 110/133/133 114/134/134
f 114/134/134 110/133/133 111/135/135
f 114/134/134 111/135/135 112/136/136
f 112/136/136 113/137/137 114/134/134
f 114/134/134 115/138/138 142/131/131
f 142/131/131 115/138/138 180/139/139
f 142/131/131 180/139/139 141/140/140
f 141/140/140 180/139/139 181/141/141
f 141/140/140 181/141/141 140/142/142
f 140/142/142 181/141/141 182/143/143
f 140/142/142 182/143/143 139/144/144
f 139/144/144 182/143/143 183/145/145
f 139/144/144 183/145/145 138/146/146
f 138/146/146 183/145/145 184/147/147
f 138/146/146 184/147/147 137/148/148
f 137/148/148 184/147/147 161/149/149
f 137/148/148 161/149/149 160/150/150
f 160/150/150 161/149/149 162/151/151
f 160/150/150 162/151/151 159/152/152
f 159/152/152 162/151/151 163/153/153
f 159/152/152 163/153/153 158/154/154
f 158/154/154 163/153/153 164/155/155
f 158/154/154 164/155/155 157/156/156
f 157/156/156 164/155/155 165/157/157
f 157/156/156 165/157/157 156/107/107
f 156/107/107 165/157/157 166/99/99
f 116/158/158 117/159/159 115/138/138
f 115/138/138 117/159/159 118/160/160
f 115/138/138 118/160/160 119/161/161
f 115/138/138 119/161/161 180/139/139
f 180/139/139 119/161/161 120/162/162
f 180/139/139 120/162/162 121/163/163
f 180/139/139 121/163/163 179/164/164
f 179/164/164 121/163/163 122/165/165
f 179/164/164 122/165/165 123/166/166
f 124/167/167 176/168/168 123/166/166
f 123/166/166 176/168/168 177/169/169
f 123/166/166 177/169/169 178/170/170
f 125/171/171 174/172/172 124/167/167
f 124/167/167 174/172/172 175/173/173
f 124/167/167 175/173/173 176/168/168
f 174/172/172 125/171/171 173/174/174
f 173/174/174 125/171/171 126/175/175
f 173/174/174 126/175/175 172/176/176
f 172/176/176 126/175/175 127/177/177
f 172/176/176 127/177/177 171/178/178
f 171/178/178 127/177/177 170/179/179
f 170/179/179 127/177/177 128/104/104
f 170/179/179 128/104/104 169/106/106
f 93/95/95 131/100/100 136/180/180
f 136/180/180 131/100/100 132/181/181
f 136/180/180 132/181/181 133/182/182
f 133/182/182 134/183/183 136/180/180
f 136/180/180 134/183/183 135/184/184
f 154/115/115 155/109/109 101/111/111
f 178/170/170 179/164/164 123/166/166
f 1/185/185 103/186/186 2/187/187
f 2/187/187 103/186/186 102/188/188
f 2/187/187 102/188/188 3/189/189
f 3/189/189 102/188/188 101/190/190
f 3/189/189 101/190/190 4/191/191
f 4/191/191 101/190/190 100/192/192
f 4/191/191 100/192/192 5/193/193
f 5/193/193 100/192/192 99/194/194
f 5/193/193 99/194/194 6/195/195
f 6/195/195 99/194/194 98/196/196
f 6/195/195 98/196/196 7/197/197
f 7/197/197 98/196/196 97/198/198
f 7/197/197 97/198/198 8/199/199
f 8/199/199 97/198/198 96/200/200
f 8/199/199 96/200/200 9/201/201
f 9/201/201 96/200/200 95/202/202
f 9/201/201 95/202/202 10/203/203
f 10/203/203 95/202/202 94/204/204
f 10/203/203 94/204/204 11/205/205
f 11/205/205 94/204/204 93/206/206
f 136/207/207 12/208/208 93/209/206
f 93/209/206 12/208/208 11/210/205
f 12/211/208 136/212/207 13/213/209
f 13/213/209 136/212/207 135/214/210
f 13/213/209 135/214/210 14/215/211
f 14/215/211 135/214/210 134/216/212
f 14/215/211 134/216/212 15/217/213
f 15/217/213 134/216/212 133/218/214
f 15/217/213 133/218/214 16/219/215
f 16/219/215 133/218/214 132/220/216
f 16/219/215 132/220/216 17/221/217
f 17/221/217 132/220/216 131/222/218
f 17/221/217 131/222/218 18/223/219
f 18/223/219 131/222/218 130/224/220
f 18/223/219 130/224/220 19/225/221
f 19/225/221 130/224/220 129/226/222
f 19/225/221 129/226/222 20/227/223
f 20/227/223 129/226/222 128/228/224
f 20/227/223 128/228/224 21/229/225
f 21/229/225 128/228/224 127/230/226
f 21/229/225 127/230/226 22/231/227
f 22/231/227 127/230/226 126/232/228
f 125/233/229 23/234/230 126/235/228
f 126/235/228 23/234/230 22/236/227
f 23/237/230 125/238/229 24/239/231
f 24/239/231 125/238/229 124/240/232
f 24/239/231 124/240/232 25/241/233
f 25/241/233 124/240/232 123/242/234
f 25/241/233 123/242/234 26/243/235
f 26/243/235 123/242/234 122/244/236
f 26/243/235 122/244/236 27/245/237
f 27/245/237 122/244/236 121/246/238
f 27/245/237 121/246/238 28/247/239
f 28/247/239 121/246/238 120/248/240
f 28/247/239 120/248/240 29/249/241
f 29/249/241 120/248/240 119/250/242
f 29/249/241 119/250/242 30/251/243
f 30/251/243 119/250/242 118/252/244
f 30/251/243 118/252/244 31/253/245
f 31/253/245 118/252/244 117/254/246
f 31/253/245 117/254/246 32/255/247
f 32/255/247 117/254/246 116/256/248
f 32/255/247 116/256/248 33/257/249
f 33/257/249 116/256/248 115/258/250
f 114/259/251 34/260/252 115/261/250
f 115/261/250 34/260/252 33/262/249
f 34/263/252 114/264/251 35/265/253
f 35/265/253 114/264/251 113/266/254
f 35/265/253 113/266/254 36/267/255
f 36/267/255 113/266/254 112/268/256
f 36/267/255 112/268/256 37/269/257
f 37/269/257 112/268/256 111/270/258
f 37/269/257 111/270/258 38/271/259
f 38/271/259 111/270/258 110/272/260
f 38/271/259 110/272/260 39/273/261
f 39/273/261 110/272/260 109/274/262
f 39/273/261 109/274/262 40/275/263
f 40/275/263 109/274/262 108/276/264
f 40/275/263 108/276/264 41/277/265
f 41/277/265 108/276/264 107/278/266
f 41/277/265 107/278/266 42/279/267
f 42/279/267 107/278/266 106/280/268
f 42/279/267 106/280/268 43/281/269
f 43/281/269 106/280/268 105/282/270
f 43/281/269 105/282/270 44/283/271
f 44/283/271 105/282/270 104/284/272
f 103/285/186 1/286/185 104/287/272
f 104/287/272 1/286/185 44/288/271
f 68/289/273 162/290/274 45/291/275
f 45/291/275 162/290/274 161/292/276
f 45/293/275 161/294/276 46/295/277
f 46/295/277 161/294/276 184/296/278
f 46/295/277 184/296/278 47/297/279
f 47/297/279 184/296/278 183/298/280
f 47/297/279 183/298/280 48/299/281
f 48/299/281 183/298/280 182/300/282
f 48/299/281 182/300/282 49/301/283
f 49/301/283 182/300/282 181/302/284
f 49/301/283 181/302/284 50/303/285
f 50/303/285 181/302/284 180/304/286
f 50/303/285 180/304/286 51/305/287
f 51/305/287 180/304/286 179/306/288
f 51/305/287 179/306/288 52/307/289
f 52/307/289 179/306/288 178/308/290
f 52/307/289 178/308/290 53/309/291
f 53/309/291 178/308/290 177/310/292
f 53/309/291 177/310/292 54/311/293
f 54/311/293 177/310/292 176/312/294
f 54/311/293 176/312/294 55/313/295
f 55/313/295 176/312/294 175/314/296
f 55/313/295 175/314/296 56/315/297
f 56/315/297 175/314/296 174/316/298
f 56/315/297 174/316/298 57/317/299
f 57/317/299 174/316/298 173/318/300
f 57/317/299 173/318/300 58/319/301
f 58/319/301 173/318/300 172/320/302
f 58/319/301 172/320/302 59/321/303
f 59/321/303 172/320/302 171/322/304
f 59/321/303 171/322/304 60/323/305
f 60/323/305 171/322/304 170/324/306
f 60/323/305 170/324/306 61/325/307
f 61/325/307 170/324/306 169/326/308
f 61/325/307 169/326/308 62/327/309
f 62/327/309 169/326/308 168/328/310
f 62/327/309 168/328/310 63/329/311
f 63/329/311 168/328/310 167/330/312
f 63/329/311 167/330/312 64/331/313
f 64/331/313 167/330/312 166/332/314
f 64/331/313 166/332/314 65/333/315
f 65/333/315 166/332/314 165/334/316
f 65/333/315 165/334/316 66/335/317
f 66/335/317 165/334/316 164/336/318
f 66/335/317 164/336/318 67/337/319
f 67/337/319 164/336/318 163/338/320
f 67/337/319 163/338/320 68/289/273
f 68/289/273 163/338/320 162/290/274
f 92/339/321 138/340/322 69/341/323
f 69/341/323 138/340/322 137/342/324
f 69/341/323 137/342/324 70/343/325
f 70/343/325 137/342/324 160/344/326
f 70/343/325 160/344/326 71/345/327
f 71/345/327 160/344/326 159/346/328
f 71/345/327 159/346/328 72/347/329
f 72/347/329 159/346/328 158/348/330
f 72/347/329 158/348/330 73/349/331
f 73/349/331 158/348/330 157/350/332
f 73/349/331 157/350/332 74/351/333
f 74/351/333 157/350/332 156/352/334
f 74/351/333 156/352/334 75/353/335
f 75/353/335 156/352/334 155/354/336
f 75/353/335 155/354/336 76/355/337
f 76/355/337 155/354/336 154/356/338
f 76/355/337 154/356/338 77/357/339
f 77/357/339 154/356/338 153/358/340
f 77/357/339 153/358/340 78/359/341
f 78/359/341 153/358/340 152/360/342
f 78/359/341 152/360/342 79/361/343
f 79/361/343 152/360/342 151/362/344
f 79/361/343 151/362/344 80/363/345
f 80/363/345 151/362/344 150/364/346
f 80/363/345 150/364/346 81/365/347
f 81/365/347 150/364/346 149/366/348
f 81/367/347 149/368/348 82/369/349
f 82/369/349 149/368/348 148/370/350
f 82/369/349 148/370/350 83/371/351
f 83/371/351 148/370/350 147/372/352
f 83/371/351 147/372/352 84/373/353
f 84/373/353 147/372/352 146/374/354
f 84/373/353 146/374/354 85/375/355
f 85/375/355 146/374/354 145/376/356
f 85/375/355 145/376/356 86/377/357
f 86/377/357 145/376/356 144/378/358
f 86/377/357 144/378/358 87/379/359
f 87/379/359 144/378/358 143/380/360
f 87/379/359 143/380/360 88/381/361
f 88/381/361 143/380/360 142/382/362
f 88/381/361 142/382/362 89/383/363
f 89/383/363 142/382/362 141/384/364
f 89/383/363 141/384/364 90/385/365
f 90/385/365 141/384/364 140/386/366
f 90/385/365 140/386/366 91/387/367
f 91/387/367 140/386/366 139/388/368
f 91/387/367 139/388/368 92/339/321
f 92/339/321 139/388/368 138/340/322
# 184 vertices
# 388 texture params
# 368 normals
# 372 facets

# 1 groups
