# WaveFront *.obj file (generated by Autodesk ATF)

mtllib crank_1.mtl

g 본체1

v 0.028000000 0.007500000 0.000000000
v -0.028000000 0.007500000 0.000000000
v -0.028000000 0.007500000 0.005000000
v 0.028000000 0.007500000 0.005000000
v -0.028783750 0.007455990 0.000000000
v -0.029557650 0.007324500 0.000000000
v -0.030311950 0.007107180 0.000000000
v -0.031037190 0.006806780 0.000000000
v -0.031724220 0.006427070 0.000000000
v -0.032364430 0.005972820 0.000000000
v -0.032949750 0.005449750 0.000000000
v -0.033472820 0.004864430 0.000000000
v -0.033927070 0.004224220 0.000000000
v -0.034306780 0.003537190 0.000000000
v -0.034607180 0.002811950 0.000000000
v -0.034824500 0.002057650 0.000000000
v -0.034955990 0.001283750 0.000000000
v -0.035000000 0.000500000 0.000000000
v -0.035000000 0.000500000 0.005000000
v -0.034955990 0.001283750 0.005000000
v -0.034824500 0.002057650 0.005000000
v -0.034607180 0.002811950 0.005000000
v -0.034306780 0.003537190 0.005000000
v -0.033927070 0.004224220 0.005000000
v -0.033472820 0.004864430 0.005000000
v -0.032949750 0.005449750 0.005000000
v -0.032364430 0.005972820 0.005000000
v -0.031724220 0.006427070 0.005000000
v -0.031037190 0.006806780 0.005000000
v -0.030311950 0.007107180 0.005000000
v -0.029557650 0.007324500 0.005000000
v -0.028783750 0.007455990 0.005000000
v -0.035000000 -0.000500000 0.000000000
v -0.035000000 -0.000500000 0.005000000
v -0.034955990 -0.001283750 0.000000000
v -0.034824500 -0.002057650 0.000000000
v -0.034607180 -0.002811950 0.000000000
v -0.034306780 -0.003537190 0.000000000
v -0.033927070 -0.004224220 0.000000000
v -0.033472820 -0.004864430 0.000000000
v -0.032949750 -0.005449750 0.000000000
v -0.032364430 -0.005972820 0.000000000
v -0.031724220 -0.006427070 0.000000000
v -0.031037190 -0.006806780 0.000000000
v -0.030311950 -0.007107180 0.000000000
v -0.029557650 -0.007324500 0.000000000
v -0.028783750 -0.007455990 0.000000000
v -0.028000000 -0.007500000 0.000000000
v -0.028000000 -0.007500000 0.005000000
v -0.028783750 -0.007455990 0.005000000
v -0.029557650 -0.007324500 0.005000000
v -0.030311950 -0.007107180 0.005000000
v -0.031037190 -0.006806780 0.005000000
v -0.031724220 -0.006427070 0.005000000
v -0.032364430 -0.005972820 0.005000000
v -0.032949750 -0.005449750 0.005000000
v -0.033472820 -0.004864430 0.005000000
v -0.033927070 -0.004224220 0.005000000
v -0.034306780 -0.003537190 0.005000000
v -0.034607180 -0.002811950 0.005000000
v -0.034824500 -0.002057650 0.005000000
v -0.034955990 -0.001283750 0.005000000
v 0.028000000 -0.007500000 0.000000000
v 0.028000000 -0.007500000 0.005000000
v 0.028783750 -0.007455990 0.000000000
v 0.029557650 -0.007324500 0.000000000
v 0.030311950 -0.007107180 0.000000000
v 0.031037190 -0.006806780 0.000000000
v 0.031724220 -0.006427070 0.000000000
v 0.032364430 -0.005972820 0.000000000
v 0.032949750 -0.005449750 0.000000000
v 0.033472820 -0.004864430 0.000000000
v 0.033927070 -0.004224220 0.000000000
v 0.034306780 -0.003537190 0.000000000
v 0.034607180 -0.002811950 0.000000000
v 0.034824500 -0.002057650 0.000000000
v 0.034955990 -0.001283750 0.000000000
v 0.035000000 -0.000500000 0.000000000
v 0.035000000 -0.000500000 0.005000000
v 0.034955990 -0.001283750 0.005000000
v 0.034824500 -0.002057650 0.005000000
v 0.034607180 -0.002811950 0.005000000
v 0.034306780 -0.003537190 0.005000000
v 0.033927070 -0.004224220 0.005000000
v 0.033472820 -0.004864430 0.005000000
v 0.032949750 -0.005449750 0.005000000
v 0.032364430 -0.005972820 0.005000000
v 0.031724220 -0.006427070 0.005000000
v 0.031037190 -0.006806780 0.005000000
v 0.030311950 -0.007107180 0.005000000
v 0.029557650 -0.007324500 0.005000000
v 0.028783750 -0.007455990 0.005000000
v 0.035000000 0.000500000 0.000000000
v 0.035000000 0.000500000 0.005000000
v 0.029943300 0.002056700 0.000000000
v 0.029943300 -0.002056700 0.000000000
v 0.029943300 -0.002056700 0.005000000
v 0.029943300 0.002056700 0.005000000
v 0.029577950 -0.002341970 0.000000000
v 0.029170550 -0.002563070 0.000000000
v 0.028732250 -0.002713920 0.000000000
v 0.028275070 -0.002790390 0.000000000
v 0.027811530 -0.002790390 0.000000000
v 0.027354350 -0.002713920 0.000000000
v 0.026916050 -0.002563070 0.000000000
v 0.026508650 -0.002341970 0.000000000
v 0.026143300 -0.002056700 0.000000000
v 0.026143300 -0.002056700 0.005000000
v 0.026508650 -0.002341970 0.005000000
v 0.026916050 -0.002563070 0.005000000
v 0.027354350 -0.002713920 0.005000000
v 0.027811530 -0.002790390 0.005000000
v 0.028275070 -0.002790390 0.005000000
v 0.028732250 -0.002713920 0.005000000
v 0.029170550 -0.002563070 0.005000000
v 0.029577950 -0.002341970 0.005000000
v 0.026143300 0.002056700 0.000000000
v 0.026143300 0.002056700 0.005000000
v -0.025243300 0.000000000 0.005000000
v -0.025288300 0.000499960 0.005000000
v -0.025421840 0.000983850 0.005000000
v -0.025639640 0.001436120 0.005000000
v -0.025934700 0.001842230 0.005000000
v -0.026297530 0.002189130 0.005000000
v -0.026716470 0.002465670 0.005000000
v -0.027178050 0.002662960 0.005000000
v -0.027667450 0.002774660 0.005000000
v -0.028168920 0.002797180 0.005000000
v -0.028666360 0.002729800 0.005000000
v -0.029143770 0.002574680 0.005000000
v -0.029585810 0.002336810 0.005000000
v -0.029978280 0.002023830 0.005000000
v -0.030308550 0.001645800 0.005000000
v -0.030566010 0.001214870 0.005000000
v -0.030742400 0.000744900 0.005000000
v -0.030832030 0.000250990 0.005000000
v -0.030832030 -0.000250990 0.005000000
v -0.030742400 -0.000744900 0.005000000
v -0.030566010 -0.001214870 0.005000000
v -0.030308550 -0.001645800 0.005000000
v -0.029978280 -0.002023830 0.005000000
v -0.029585810 -0.002336810 0.005000000
v -0.029143770 -0.002574680 0.005000000
v -0.028666360 -0.002729800 0.005000000
v -0.028168920 -0.002797180 0.005000000
v -0.027667450 -0.002774660 0.005000000
v -0.027178050 -0.002662960 0.005000000
v -0.026716470 -0.002465670 0.005000000
v -0.026297530 -0.002189130 0.005000000
v -0.025934700 -0.001842230 0.005000000
v -0.025639640 -0.001436120 0.005000000
v -0.025421840 -0.000983850 0.005000000
v -0.025288300 -0.000499960 0.005000000
v -0.025243300 0.000000000 0.000000000
v -0.025288300 -0.000499960 0.000000000
v -0.025421840 -0.000983850 0.000000000
v -0.025639640 -0.001436120 0.000000000
v -0.025934700 -0.001842230 0.000000000
v -0.026297530 -0.002189130 0.000000000
v -0.026716470 -0.002465670 0.000000000
v -0.027178050 -0.002662960 0.000000000
v -0.027667450 -0.002774660 0.000000000
v -0.028168920 -0.002797180 0.000000000
v -0.028666360 -0.002729800 0.000000000
v -0.029143770 -0.002574680 0.000000000
v -0.029585810 -0.002336810 0.000000000
v -0.029978280 -0.002023830 0.000000000
v -0.030308550 -0.001645800 0.000000000
v -0.030566010 -0.001214870 0.000000000
v -0.030742400 -0.000744900 0.000000000
v -0.030832030 -0.000250990 0.000000000
v -0.030832030 0.000250990 0.000000000
v -0.030742400 0.000744900 0.000000000
v -0.030566010 0.001214870 0.000000000
v -0.030308550 0.001645800 0.000000000
v -0.029978280 0.002023830 0.000000000
v -0.029585810 0.002336810 0.000000000
v -0.029143770 0.002574680 0.000000000
v -0.028666360 0.002729800 0.000000000
v -0.028168920 0.002797180 0.000000000
v -0.027667450 0.002774660 0.000000000
v -0.027178050 0.002662960 0.000000000
v -0.026716470 0.002465670 0.000000000
v -0.026297530 0.002189130 0.000000000
v -0.025934700 0.001842230 0.000000000
v -0.025639640 0.001436120 0.000000000
v -0.025421840 0.000983850 0.000000000
v -0.025288300 0.000499960 0.000000000
v 0.026508650 0.002341970 0.000000000
v 0.026916050 0.002563070 0.000000000
v 0.027354350 0.002713920 0.000000000
v 0.027811530 0.002790390 0.000000000
v 0.028275070 0.002790390 0.000000000
v 0.028732250 0.002713920 0.000000000
v 0.029170550 0.002563070 0.000000000
v 0.029577950 0.002341970 0.000000000
v 0.029577950 0.002341970 0.005000000
v 0.029170550 0.002563070 0.005000000
v 0.028732250 0.002713920 0.005000000
v 0.028275070 0.002790390 0.005000000
v 0.027811530 0.002790390 0.005000000
v 0.027354350 0.002713920 0.005000000
v 0.026916050 0.002563070 0.005000000
v 0.026508650 0.002341970 0.005000000
v 0.034955990 0.001283750 0.000000000
v 0.034824500 0.002057650 0.000000000
v 0.034607180 0.002811950 0.000000000
v 0.034306780 0.003537190 0.000000000
v 0.033927070 0.004224220 0.000000000
v 0.033472820 0.004864430 0.000000000
v 0.032949750 0.005449750 0.000000000
v 0.032364430 0.005972820 0.000000000
v 0.031724220 0.006427070 0.000000000
v 0.031037190 0.006806780 0.000000000
v 0.030311950 0.007107180 0.000000000
v 0.029557650 0.007324500 0.000000000
v 0.028783750 0.007455990 0.000000000
v 0.028783750 0.007455990 0.005000000
v 0.029557650 0.007324500 0.005000000
v 0.030311950 0.007107180 0.005000000
v 0.031037190 0.006806780 0.005000000
v 0.031724220 0.006427070 0.005000000
v 0.032364430 0.005972820 0.005000000
v 0.032949750 0.005449750 0.005000000
v 0.033472820 0.004864430 0.005000000
v 0.033927070 0.004224220 0.005000000
v 0.034306780 0.003537190 0.005000000
v 0.034607180 0.002811950 0.005000000
v 0.034824500 0.002057650 0.005000000
v 0.034955990 0.001283750 0.005000000
vt -0.500000 -2.800000 0.000000
vt 0.000000 -2.800000 0.000000
vt -0.500000 2.800000 0.000000
vt 0.000000 2.800000 0.000000
vt 0.000000 1.099557 0.000000
vt -0.500000 1.099557 0.000000
vt -0.000000 1.021018 0.000000
vt -0.500000 1.021018 0.000000
vt -0.000000 0.942478 0.000000
vt -0.500000 0.942478 0.000000
vt -0.000000 0.863938 0.000000
vt -0.500000 0.863938 0.000000
vt -0.000000 0.785398 0.000000
vt -0.500000 0.785398 0.000000
vt -0.000000 0.706858 0.000000
vt -0.500000 0.706858 0.000000
vt -0.000000 0.628319 0.000000
vt -0.500000 0.628319 0.000000
vt -0.000000 0.549779 0.000000
vt -0.500000 0.549779 0.000000
vt -0.000000 0.471239 0.000000
vt -0.500000 0.471239 0.000000
vt -0.000000 0.392699 0.000000
vt -0.500000 0.392699 0.000000
vt -0.000000 0.314159 0.000000
vt -0.500000 0.314159 0.000000
vt -0.000000 0.235619 0.000000
vt -0.500000 0.235619 0.000000
vt -0.000000 0.157080 0.000000
vt -0.500000 0.157080 0.000000
vt -0.000000 0.078540 0.000000
vt -0.500000 0.078540 0.000000
vt -0.000000 -0.000000 0.000000
vt -0.500000 -0.000000 0.000000
vt -0.500000 -0.050000 0.000000
vt 0.000000 -0.050000 0.000000
vt -0.500000 0.050000 0.000000
vt -0.000000 0.050000 0.000000
vt -0.000000 0.000000 0.000000
vt -0.500000 0.000000 0.000000
vt -0.000000 -0.078540 0.000000
vt -0.500000 -0.078540 0.000000
vt -0.000000 -0.157080 0.000000
vt -0.500000 -0.157080 0.000000
vt -0.000000 -0.235619 0.000000
vt -0.500000 -0.235619 0.000000
vt -0.000000 -0.314159 0.000000
vt -0.500000 -0.314159 0.000000
vt -0.000000 -0.392699 0.000000
vt -0.500000 -0.392699 0.000000
vt -0.000000 -0.471239 0.000000
vt -0.500000 -0.471239 0.000000
vt -0.000000 -0.549779 0.000000
vt -0.500000 -0.549779 0.000000
vt -0.000000 -0.628319 0.000000
vt -0.500000 -0.628319 0.000000
vt -0.000000 -0.706858 0.000000
vt -0.500000 -0.706858 0.000000
vt -0.000000 -0.785398 0.000000
vt -0.500000 -0.785398 0.000000
vt -0.000000 -0.863938 0.000000
vt -0.500000 -0.863938 0.000000
vt -0.000000 -0.942478 0.000000
vt -0.500000 -0.942478 0.000000
vt -0.000000 -1.021018 0.000000
vt -0.500000 -1.021018 0.000000
vt -0.000000 -1.099557 0.000000
vt -0.500000 -1.099557 0.000000
vt 0.500000 2.800000 0.000000
vt -0.000000 2.800000 0.000000
vt 0.500000 -2.800000 0.000000
vt -0.000000 -2.800000 0.000000
vt -0.000000 -1.099557 0.000000
vt -0.500000 -1.099557 0.000000
vt -0.000000 -1.178097 0.000000
vt -0.500000 -1.178097 0.000000
vt -0.000000 -1.256637 0.000000
vt -0.500000 -1.256637 0.000000
vt -0.000000 -1.335177 0.000000
vt -0.500000 -1.335177 0.000000
vt -0.000000 -1.413717 0.000000
vt -0.500000 -1.413717 0.000000
vt -0.000000 -1.492257 0.000000
vt -0.500000 -1.492257 0.000000
vt -0.000000 -1.570796 0.000000
vt -0.500000 -1.570796 0.000000
vt -0.000000 -1.649336 0.000000
vt -0.500000 -1.649336 0.000000
vt -0.000000 -1.727876 0.000000
vt -0.500000 -1.727876 0.000000
vt -0.000000 -1.806416 0.000000
vt -0.500000 -1.806416 0.000000
vt -0.000000 -1.884956 0.000000
vt -0.500000 -1.884956 0.000000
vt -0.000000 -1.963495 0.000000
vt -0.500000 -1.963495 0.000000
vt -0.000000 -2.042035 0.000000
vt -0.500000 -2.042035 0.000000
vt -0.000000 -2.120575 0.000000
vt -0.500000 -2.120575 0.000000
vt -0.000000 -2.199115 0.000000
vt -0.500000 -2.199115 0.000000
vt 0.500000 0.050000 0.000000
vt 0.000000 0.050000 0.000000
vt 0.500000 -0.050000 0.000000
vt -0.000000 -0.050000 0.000000
vt -0.500000 -0.205670 0.000000
vt 0.000000 -0.205670 0.000000
vt -0.500000 0.205670 0.000000
vt 0.000000 0.205670 0.000000
vt 0.000000 -0.648651 0.000000
vt 0.500000 -0.648651 0.000000
vt 0.000000 -0.602245 0.000000
vt 0.500000 -0.602245 0.000000
vt 0.000000 -0.555839 0.000000
vt 0.500000 -0.555839 0.000000
vt 0.000000 -0.509432 0.000000
vt 0.500000 -0.509432 0.000000
vt 0.000000 -0.463026 0.000000
vt 0.500000 -0.463026 0.000000
vt 0.000000 -0.416620 0.000000
vt 0.500000 -0.416620 0.000000
vt 0.000000 -0.370213 0.000000
vt 0.500000 -0.370213 0.000000
vt 0.000000 -0.323807 0.000000
vt 0.500000 -0.323807 0.000000
vt 0.000000 -0.277401 0.000000
vt 0.500000 -0.277401 0.000000
vt 0.000000 -0.230994 0.000000
vt 0.500000 -0.230994 0.000000
vt 0.500000 0.205670 0.000000
vt -0.000000 0.205670 0.000000
vt 0.500000 -0.205670 0.000000
vt -0.000000 -0.205670 0.000000
vt 0.000000 0.829380 0.000000
vt 0.500000 0.829380 0.000000
vt -0.000000 0.879646 0.000000
vt 0.500000 0.879646 0.000000
vt -0.000000 -0.879646 0.000000
vt 0.500000 -0.879646 0.000000
vt 0.000000 -0.829380 0.000000
vt 0.500000 -0.829380 0.000000
vt 0.000000 -0.779115 0.000000
vt 0.500000 -0.779115 0.000000
vt 0.000000 -0.728849 0.000000
vt 0.500000 -0.728849 0.000000
vt 0.000000 -0.678584 0.000000
vt 0.500000 -0.678584 0.000000
vt 0.000000 -0.628319 0.000000
vt 0.500000 -0.628319 0.000000
vt 0.000000 -0.578053 0.000000
vt 0.500000 -0.578053 0.000000
vt 0.000000 -0.527788 0.000000
vt 0.500000 -0.527788 0.000000
vt 0.000000 -0.477522 0.000000
vt 0.500000 -0.477522 0.000000
vt 0.000000 -0.427257 0.000000
vt 0.500000 -0.427257 0.000000
vt 0.000000 -0.376991 0.000000
vt 0.500000 -0.376991 0.000000
vt 0.000000 -0.326726 0.000000
vt 0.500000 -0.326726 0.000000
vt 0.000000 -0.276460 0.000000
vt 0.500000 -0.276460 0.000000
vt 0.000000 -0.226195 0.000000
vt 0.500000 -0.226195 0.000000
vt 0.000000 -0.175929 0.000000
vt 0.500000 -0.175929 0.000000
vt 0.000000 -0.125664 0.000000
vt 0.500000 -0.125664 0.000000
vt 0.000000 -0.075398 0.000000
vt 0.500000 -0.075398 0.000000
vt 0.000000 -0.025133 0.000000
vt 0.500000 -0.025133 0.000000
vt 0.000000 0.025133 0.000000
vt 0.500000 0.025133 0.000000
vt 0.000000 0.075398 0.000000
vt 0.500000 0.075398 0.000000
vt 0.000000 0.125664 0.000000
vt 0.500000 0.125664 0.000000
vt 0.000000 0.175929 0.000000
vt 0.500000 0.175929 0.000000
vt 0.000000 0.226195 0.000000
vt 0.500000 0.226195 0.000000
vt 0.000000 0.276460 0.000000
vt 0.500000 0.276460 0.000000
vt 0.000000 0.326726 0.000000
vt 0.500000 0.326726 0.000000
vt 0.000000 0.376991 0.000000
vt 0.500000 0.376991 0.000000
vt 0.000000 0.427257 0.000000
vt 0.500000 0.427257 0.000000
vt -0.000000 0.477522 0.000000
vt 0.500000 0.477522 0.000000
vt -0.000000 0.527788 0.000000
vt 0.500000 0.527788 0.000000
vt -0.000000 0.578053 0.000000
vt 0.500000 0.578053 0.000000
vt -0.000000 0.628319 0.000000
vt 0.500000 0.628319 0.000000
vt 0.000000 0.678584 0.000000
vt 0.500000 0.678584 0.000000
vt 0.000000 0.728849 0.000000
vt 0.500000 0.728849 0.000000
vt 0.000000 0.779115 0.000000
vt 0.500000 0.779115 0.000000
vt 0.000000 0.230994 0.000000
vt 0.500000 0.230994 0.000000
vt 0.000000 0.277401 0.000000
vt 0.500000 0.277401 0.000000
vt 0.000000 0.323807 0.000000
vt 0.500000 0.323807 0.000000
vt 0.000000 0.370213 0.000000
vt 0.500000 0.370213 0.000000
vt 0.000000 0.416620 0.000000
vt 0.500000 0.416620 0.000000
vt -0.000000 0.463026 0.000000
vt 0.500000 0.463026 0.000000
vt -0.000000 0.509432 0.000000
vt 0.500000 0.509432 0.000000
vt -0.000000 0.555839 0.000000
vt 0.500000 0.555839 0.000000
vt -0.000000 0.602245 0.000000
vt 0.500000 0.602245 0.000000
vt -0.000000 0.648651 0.000000
vt 0.500000 0.648651 0.000000
vt -0.000000 -2.199115 0.000000
vt -0.500000 -2.199115 0.000000
vt -0.000000 -2.277655 0.000000
vt -0.500000 -2.277655 0.000000
vt 0.000000 -2.356194 0.000000
vt -0.500000 -2.356194 0.000000
vt 0.000000 -2.434734 0.000000
vt -0.500000 -2.434734 0.000000
vt 0.000000 -2.513274 0.000000
vt -0.500000 -2.513274 0.000000
vt 0.000000 -2.591814 0.000000
vt -0.500000 -2.591814 0.000000
vt 0.000000 -2.670354 0.000000
vt -0.500000 -2.670354 0.000000
vt -0.000000 -2.748894 0.000000
vt -0.500000 -2.748894 0.000000
vt 0.000000 -2.827433 0.000000
vt -0.500000 -2.827433 0.000000
vt 0.000000 -2.905973 0.000000
vt -0.500000 -2.905973 0.000000
vt -0.000000 -2.984513 0.000000
vt -0.500000 -2.984513 0.000000
vt 0.000000 -3.063053 0.000000
vt -0.500000 -3.063053 0.000000
vt -0.000000 -3.141593 0.000000
vt -0.500000 -3.141593 0.000000
vt 0.000000 -3.220132 0.000000
vt -0.500000 -3.220132 0.000000
vt 0.000000 -3.298672 0.000000
vt -0.500000 -3.298672 0.000000
vt -2.800000 0.750000 0.000000
vt 2.691605 0.256307 0.000000
vt 2.800000 0.750000 0.000000
vt 2.735435 0.271392 0.000000
vt 3.236443 0.597282 0.000000
vt 2.781153 0.279039 0.000000
vt 3.294975 0.544975 0.000000
vt 3.347282 0.486443 0.000000
vt 3.392707 0.422422 0.000000
vt 2.827507 0.279039 0.000000
vt 3.430678 0.353719 0.000000
vt 2.873225 0.271392 0.000000
vt 3.460718 0.281195 0.000000
vt 2.917055 0.256307 0.000000
vt 2.957795 0.234197 0.000000
vt -2.878375 0.745599 0.000000
vt -2.955765 0.732450 0.000000
vt -3.031195 0.710718 0.000000
vt -3.103719 0.680678 0.000000
vt -3.172422 0.642707 0.000000
vt -3.236443 0.597282 0.000000
vt -2.766745 0.277466 0.000000
vt -3.294975 0.544975 0.000000
vt -3.347282 0.486443 0.000000
vt -2.816892 0.279718 0.000000
vt -3.392707 0.422422 0.000000
vt -3.430678 0.353719 0.000000
vt -2.866636 0.272980 0.000000
vt -3.460718 0.281195 0.000000
vt -2.914377 0.257468 0.000000
vt -2.958581 0.233681 0.000000
vt -3.482450 0.205765 0.000000
vt -2.997828 0.202383 0.000000
vt -3.030855 0.164580 0.000000
vt -3.495599 0.128375 0.000000
vt -3.056601 0.121487 0.000000
vt -3.074240 0.074490 0.000000
vt -3.500000 0.050000 0.000000
vt -3.083203 0.025099 0.000000
vt -3.500000 -0.050000 0.000000
vt -3.083203 -0.025099 0.000000
vt -3.074240 -0.074490 0.000000
vt -3.495599 -0.128375 0.000000
vt -3.056601 -0.121487 0.000000
vt -3.030855 -0.164580 0.000000
vt -3.482450 -0.205765 0.000000
vt -2.997828 -0.202383 0.000000
vt -2.958581 -0.233681 0.000000
vt -3.460718 -0.281195 0.000000
vt -2.914377 -0.257468 0.000000
vt -2.866636 -0.272980 0.000000
vt -3.430678 -0.353719 0.000000
vt -2.816892 -0.279718 0.000000
vt -3.392707 -0.422422 0.000000
vt -3.347282 -0.486443 0.000000
vt -2.766745 -0.277466 0.000000
vt -3.294975 -0.544975 0.000000
vt -3.236443 -0.597282 0.000000
vt -2.800000 -0.750000 0.000000
vt -3.172422 -0.642707 0.000000
vt -3.103719 -0.680678 0.000000
vt -3.031195 -0.710718 0.000000
vt -2.955765 -0.732450 0.000000
vt -2.878375 -0.745599 0.000000
vt 2.800000 -0.750000 0.000000
vt 2.691605 -0.256307 0.000000
vt -2.671647 -0.246567 0.000000
vt -2.717805 -0.266296 0.000000
vt 2.878375 -0.745599 0.000000
vt 2.955765 -0.732450 0.000000
vt 3.031195 -0.710718 0.000000
vt 3.103719 -0.680678 0.000000
vt 3.172422 -0.642707 0.000000
vt 3.236443 -0.597282 0.000000
vt 2.735435 -0.271392 0.000000
vt 2.781153 -0.279039 0.000000
vt 3.294975 -0.544975 0.000000
vt 3.347282 -0.486443 0.000000
vt 3.392707 -0.422422 0.000000
vt 2.827507 -0.279039 0.000000
vt 3.430678 -0.353719 0.000000
vt 2.873225 -0.271392 0.000000
vt 3.460718 -0.281195 0.000000
vt 2.917055 -0.256307 0.000000
vt 2.957795 -0.234197 0.000000
vt 3.482450 -0.205765 0.000000
vt 2.994330 -0.205670 0.000000
vt 3.495599 -0.128375 0.000000
vt 3.500000 -0.050000 0.000000
vt 3.500000 0.050000 0.000000
vt 2.994330 0.205670 0.000000
vt 3.495599 0.128375 0.000000
vt 3.482450 0.205765 0.000000
vt 3.172422 0.642707 0.000000
vt 3.103719 0.680678 0.000000
vt 3.031195 0.710718 0.000000
vt 2.955765 0.732450 0.000000
vt 2.878375 0.745599 0.000000
vt 2.650865 -0.234197 0.000000
vt -2.629753 -0.218913 0.000000
vt 2.614330 -0.205670 0.000000
vt -2.593470 -0.184223 0.000000
vt -2.563964 -0.143612 0.000000
vt -2.542184 -0.098385 0.000000
vt -2.528830 -0.049996 0.000000
vt -2.524330 0.000000 0.000000
vt 2.614330 0.205670 0.000000
vt -2.528830 0.049996 0.000000
vt -2.542184 0.098385 0.000000
vt -2.563964 0.143612 0.000000
vt -2.593470 0.184223 0.000000
vt -2.629753 0.218913 0.000000
vt 2.650865 0.234197 0.000000
vt -2.671647 0.246567 0.000000
vt -2.717805 0.266296 0.000000
vt -2.800000 0.750000 0.000000
vt -2.691605 0.256307 0.000000
vt 2.800000 0.750000 0.000000
vt 2.671647 0.246567 0.000000
vt 2.717805 0.266296 0.000000
vt -2.878375 0.745599 0.000000
vt -2.955765 0.732450 0.000000
vt -3.031195 0.710718 0.000000
vt -3.103719 0.680678 0.000000
vt -3.172422 0.642707 0.000000
vt -3.236443 0.597282 0.000000
vt -2.735435 0.271392 0.000000
vt -2.781153 0.279039 0.000000
vt -3.294975 0.544975 0.000000
vt -3.347282 0.486443 0.000000
vt -3.392707 0.422422 0.000000
vt -2.827507 0.279039 0.000000
vt -3.430678 0.353719 0.000000
vt -2.873225 0.271392 0.000000
vt -3.460718 0.281195 0.000000
vt -2.917055 0.256307 0.000000
vt -2.957795 0.234197 0.000000
vt -3.482450 0.205765 0.000000
vt -2.994330 0.205670 0.000000
vt -3.495599 0.128375 0.000000
vt -3.500000 0.050000 0.000000
vt -2.994330 -0.205670 0.000000
vt -3.500000 -0.050000 0.000000
vt -3.495599 -0.128375 0.000000
vt -3.482450 -0.205765 0.000000
vt -2.957795 -0.234197 0.000000
vt -3.460718 -0.281195 0.000000
vt -2.917055 -0.256307 0.000000
vt -2.873225 -0.271392 0.000000
vt -3.430678 -0.353719 0.000000
vt -2.827507 -0.279039 0.000000
vt -3.392707 -0.422422 0.000000
vt -2.781153 -0.279039 0.000000
vt -3.347282 -0.486443 0.000000
vt -3.294975 -0.544975 0.000000
vt -3.236443 -0.597282 0.000000
vt -2.735435 -0.271392 0.000000
vt -2.800000 -0.750000 0.000000
vt -2.691605 -0.256307 0.000000
vt 2.800000 -0.750000 0.000000
vt 2.671647 -0.246567 0.000000
vt 2.717805 -0.266296 0.000000
vt 2.766745 -0.277466 0.000000
vt 3.236443 -0.597282 0.000000
vt 3.294975 -0.544975 0.000000
vt -3.172422 -0.642707 0.000000
vt -3.103719 -0.680678 0.000000
vt -3.031195 -0.710718 0.000000
vt -2.955765 -0.732450 0.000000
vt -2.878375 -0.745599 0.000000
vt 2.878375 -0.745599 0.000000
vt 2.955765 -0.732450 0.000000
vt 3.031195 -0.710718 0.000000
vt 3.103719 -0.680678 0.000000
vt 3.172422 -0.642707 0.000000
vt 3.347282 -0.486443 0.000000
vt 2.816892 -0.279718 0.000000
vt 3.392707 -0.422422 0.000000
vt 3.430678 -0.353719 0.000000
vt 2.866636 -0.272980 0.000000
vt 3.460718 -0.281195 0.000000
vt 2.914377 -0.257468 0.000000
vt 2.958581 -0.233681 0.000000
vt 3.482450 -0.205765 0.000000
vt 2.997828 -0.202383 0.000000
vt 3.030855 -0.164580 0.000000
vt 3.495599 -0.128375 0.000000
vt 3.056601 -0.121487 0.000000
vt 3.074240 -0.074490 0.000000
vt 3.500000 -0.050000 0.000000
vt 3.083203 -0.025099 0.000000
vt 3.083203 0.025099 0.000000
vt 3.500000 0.050000 0.000000
vt 3.074240 0.074490 0.000000
vt 3.495599 0.128375 0.000000
vt 3.056601 0.121487 0.000000
vt 3.030855 0.164580 0.000000
vt 3.482450 0.205765 0.000000
vt 2.997828 0.202383 0.000000
vt 2.958581 0.233681 0.000000
vt 3.460718 0.281195 0.000000
vt 2.914377 0.257468 0.000000
vt 2.866636 0.272980 0.000000
vt 3.430678 0.353719 0.000000
vt 2.816892 0.279718 0.000000
vt 3.392707 0.422422 0.000000
vt 3.347282 0.486443 0.000000
vt 2.766745 0.277466 0.000000
vt 3.294975 0.544975 0.000000
vt 3.236443 0.597282 0.000000
vt 3.172422 0.642707 0.000000
vt 3.103719 0.680678 0.000000
vt 3.031195 0.710718 0.000000
vt 2.955765 0.732450 0.000000
vt 2.878375 0.745599 0.000000
vt -2.650865 0.234197 0.000000
vt 2.629753 0.218913 0.000000
vt -2.614330 0.205670 0.000000
vt 2.593470 0.184223 0.000000
vt 2.563964 0.143612 0.000000
vt 2.542184 0.098385 0.000000
vt 2.528830 0.049996 0.000000
vt 2.524330 0.000000 0.000000
vt -2.614330 -0.205670 0.000000
vt 2.528830 -0.049996 0.000000
vt 2.542184 -0.098385 0.000000
vt 2.563964 -0.143612 0.000000
vt 2.593470 -0.184223 0.000000
vt 2.629753 -0.218913 0.000000
vt -2.650865 -0.234197 0.000000
vn 0.000000000 1.000000000 -0.000000000
vn 0.000000000 1.000000000 -0.000000000
vn 0.000000000 1.000000000 -0.000000000
vn 0.000000000 1.000000000 -0.000000000
vn -0.111964029 0.993712260 0.000000000
vn -0.111964029 0.993712260 0.000000000
vn -0.222520978 0.974927902 0.000000000
vn -0.222520978 0.974927902 0.000000000
vn -0.330279110 0.943883314 0.000000000
vn -0.330279110 0.943883314 0.000000000
vn -0.433883899 0.900968791 0.000000000
vn -0.433883899 0.900968791 0.000000000
vn -0.532032111 0.846724177 0.000000000
vn -0.532032111 0.846724177 0.000000000
vn -0.623490158 0.781831198 0.000000000
vn -0.623490158 0.781831198 0.000000000
vn -0.707106781 0.707106781 0.000000000
vn -0.707106781 0.707106781 0.000000000
vn -0.781831198 0.623490158 0.000000000
vn -0.781831198 0.623490158 0.000000000
vn -0.846724177 0.532032111 0.000000000
vn -0.846724177 0.532032111 0.000000000
vn -0.900968791 0.433883899 0.000000000
vn -0.900968791 0.433883899 0.000000000
vn -0.943883314 0.330279110 0.000000000
vn -0.943883314 0.330279110 0.000000000
vn -0.974927902 0.222520978 0.000000000
vn -0.974927902 0.222520978 0.000000000
vn -0.993712260 0.111964029 0.000000000
vn -0.993712260 0.111964029 0.000000000
vn -1.000000000 -0.000000000 0.000000000
vn -1.000000000 -0.000000000 0.000000000
vn -1.000000000 -0.000000000 0.000000000
vn -1.000000000 -0.000000000 0.000000000
vn -0.993712260 -0.111964029 0.000000000
vn -0.993712260 -0.111964029 0.000000000
vn -0.974927902 -0.222520978 0.000000000
vn -0.974927902 -0.222520978 0.000000000
vn -0.943883314 -0.330279110 0.000000000
vn -0.943883314 -0.330279110 0.000000000
vn -0.900968791 -0.433883899 0.000000000
vn -0.900968791 -0.433883899 0.000000000
vn -0.846724177 -0.532032111 0.000000000
vn -0.846724177 -0.532032111 0.000000000
vn -0.781831198 -0.623490158 0.000000000
vn -0.781831198 -0.623490158 0.000000000
vn -0.707106781 -0.707106781 0.000000000
vn -0.707106781 -0.707106781 0.000000000
vn -0.623490158 -0.781831198 0.000000000
vn -0.623490158 -0.781831198 0.000000000
vn -0.532032111 -0.846724177 0.000000000
vn -0.532032111 -0.846724177 0.000000000
vn -0.433883899 -0.900968791 0.000000000
vn -0.433883899 -0.900968791 0.000000000
vn -0.330279110 -0.943883314 0.000000000
vn -0.330279110 -0.943883314 0.000000000
vn -0.222520978 -0.974927902 0.000000000
vn -0.222520978 -0.974927902 0.000000000
vn -0.111964029 -0.993712260 0.000000000
vn -0.111964029 -0.993712260 0.000000000
vn 0.000000000 -1.000000000 0.000000000
vn 0.000000000 -1.000000000 0.000000000
vn -0.000000000 -1.000000000 0.000000000
vn -0.000000000 -1.000000000 0.000000000
vn 0.111964029 -0.993712260 0.000000000
vn 0.111964029 -0.993712260 0.000000000
vn 0.222520978 -0.974927902 0.000000000
vn 0.222520978 -0.974927902 0.000000000
vn 0.330279110 -0.943883314 0.000000000
vn 0.330279110 -0.943883314 0.000000000
vn 0.433883899 -0.900968791 0.000000000
vn 0.433883899 -0.900968791 0.000000000
vn 0.532032111 -0.846724177 0.000000000
vn 0.532032111 -0.846724177 0.000000000
vn 0.623490158 -0.781831198 0.000000000
vn 0.623490158 -0.781831198 0.000000000
vn 0.707106781 -0.707106781 0.000000000
vn 0.707106781 -0.707106781 0.000000000
vn 0.781831198 -0.623490158 0.000000000
vn 0.781831198 -0.623490158 0.000000000
vn 0.846724177 -0.532032111 0.000000000
vn 0.846724177 -0.532032111 0.000000000
vn 0.900968791 -0.433883899 0.000000000
vn 0.900968791 -0.433883899 0.000000000
vn 0.943883314 -0.330279110 0.000000000
vn 0.943883314 -0.330279110 0.000000000
vn 0.974927902 -0.222520978 0.000000000
vn 0.974927902 -0.222520978 0.000000000
vn 0.993712260 -0.111964029 0.000000000
vn 0.993712260 -0.111964029 0.000000000
vn 1.000000000 -0.000000000 0.000000000
vn 1.000000000 -0.000000000 0.000000000
vn 1.000000000 0.000000000 -0.000000000
vn 1.000000000 0.000000000 -0.000000000
vn -1.000000000 0.000000000 0.000000000
vn -1.000000000 0.000000000 0.000000000
vn -1.000000000 0.000000000 0.000000000
vn -1.000000000 0.000000000 0.000000000
vn -0.678571407 0.734534441 -0.000000000
vn -0.678571407 0.734534441 -0.000000000
vn -0.548090167 0.836419254 -0.000000000
vn -0.548090167 0.836419254 -0.000000000
vn -0.402588106 0.915381241 -0.000000000
vn -0.402588106 0.915381241 -0.000000000
vn -0.246051912 0.969256652 -0.000000000
vn -0.246051912 0.969256652 -0.000000000
vn -0.082774028 0.996568342 -0.000000000
vn -0.082774028 0.996568342 -0.000000000
vn 0.082774028 0.996568342 -0.000000000
vn 0.082774028 0.996568342 -0.000000000
vn 0.246051912 0.969256652 -0.000000000
vn 0.246051912 0.969256652 -0.000000000
vn 0.402588106 0.915381241 -0.000000000
vn 0.402588106 0.915381241 -0.000000000
vn 0.548090167 0.836419254 -0.000000000
vn 0.548090167 0.836419254 -0.000000000
vn 0.678571407 0.734534441 -0.000000000
vn 0.678571407 0.734534441 -0.000000000
vn 1.000000000 -0.000000000 -0.000000000
vn 1.000000000 -0.000000000 -0.000000000
vn 1.000000000 -0.000000000 -0.000000000
vn 1.000000000 -0.000000000 -0.000000000
vn -0.983929583 -0.178556924 -0.000000000
vn -0.983929583 -0.178556924 -0.000000000
vn -1.000000000 -0.000000000 -0.000000000
vn -1.000000000 -0.000000000 -0.000000000
vn -0.983929583 0.178556924 -0.000000000
vn -0.983929583 0.178556924 -0.000000000
vn -0.936234829 0.351374936 -0.000000000
vn -0.936234829 0.351374936 -0.000000000
vn -0.858448970 0.512898982 -0.000000000
vn -0.858448970 0.512898982 -0.000000000
vn -0.753071128 0.657939112 -0.000000000
vn -0.753071128 0.657939112 -0.000000000
vn -0.623490158 0.781831198 -0.000000000
vn -0.623490158 0.781831198 -0.000000000
vn -0.473868729 0.880595496 -0.000000000
vn -0.473868729 0.880595496 -0.000000000
vn -0.309016857 0.951056561 -0.000000000
vn -0.309016857 0.951056561 -0.000000000
vn -0.134232973 0.990949801 -0.000000000
vn -0.134232973 0.990949801 -0.000000000
vn 0.044865003 0.998993059 -0.000000000
vn 0.044865003 0.998993059 -0.000000000
vn 0.222520978 0.974927902 -0.000000000
vn 0.222520978 0.974927902 -0.000000000
vn 0.393024923 0.919527819 -0.000000000
vn 0.393024923 0.919527819 -0.000000000
vn 0.550897111 0.834573168 -0.000000000
vn 0.550897111 0.834573168 -0.000000000
vn 0.691062764 0.722794754 -0.000000000
vn 0.691062764 0.722794754 -0.000000000
vn 0.809017116 0.587785084 -0.000000000
vn 0.809017116 0.587785084 -0.000000000
vn 0.900968791 0.433883899 -0.000000000
vn 0.900968791 0.433883899 -0.000000000
vn 0.963962831 0.266036953 -0.000000000
vn 0.963962831 0.266036953 -0.000000000
vn 0.995974319 0.089639029 -0.000000000
vn 0.995974319 0.089639029 -0.000000000
vn 0.995974319 -0.089639029 -0.000000000
vn 0.995974319 -0.089639029 -0.000000000
vn 0.963962831 -0.266036953 -0.000000000
vn 0.963962831 -0.266036953 -0.000000000
vn 0.900968791 -0.433883899 -0.000000000
vn 0.900968791 -0.433883899 -0.000000000
vn 0.809017116 -0.587785084 -0.000000000
vn 0.809017116 -0.587785084 -0.000000000
vn 0.691062764 -0.722794754 -0.000000000
vn 0.691062764 -0.722794754 -0.000000000
vn 0.550897111 -0.834573168 -0.000000000
vn 0.550897111 -0.834573168 -0.000000000
vn 0.393024923 -0.919527819 -0.000000000
vn 0.393024923 -0.919527819 -0.000000000
vn 0.222520978 -0.974927902 -0.000000000
vn 0.222520978 -0.974927902 -0.000000000
vn 0.044865003 -0.998993059 -0.000000000
vn 0.044865003 -0.998993059 -0.000000000
vn -0.134232973 -0.990949801 -0.000000000
vn -0.134232973 -0.990949801 -0.000000000
vn -0.309016857 -0.951056561 -0.000000000
vn -0.309016857 -0.951056561 -0.000000000
vn -0.473868729 -0.880595496 -0.000000000
vn -0.473868729 -0.880595496 -0.000000000
vn -0.623490158 -0.781831198 -0.000000000
vn -0.623490158 -0.781831198 -0.000000000
vn -0.753071128 -0.657939112 -0.000000000
vn -0.753071128 -0.657939112 -0.000000000
vn -0.858448970 -0.512898982 -0.000000000
vn -0.858448970 -0.512898982 -0.000000000
vn -0.936234829 -0.351374936 -0.000000000
vn -0.936234829 -0.351374936 -0.000000000
vn 0.678571407 -0.734534441 -0.000000000
vn 0.678571407 -0.734534441 -0.000000000
vn 0.548090167 -0.836419254 -0.000000000
vn 0.548090167 -0.836419254 -0.000000000
vn 0.402588106 -0.915381241 -0.000000000
vn 0.402588106 -0.915381241 -0.000000000
vn 0.246051912 -0.969256652 -0.000000000
vn 0.246051912 -0.969256652 -0.000000000
vn 0.082774028 -0.996568342 -0.000000000
vn 0.082774028 -0.996568342 -0.000000000
vn -0.082774028 -0.996568342 -0.000000000
vn -0.082774028 -0.996568342 -0.000000000
vn -0.246051912 -0.969256652 -0.000000000
vn -0.246051912 -0.969256652 -0.000000000
vn -0.402588106 -0.915381241 -0.000000000
vn -0.402588106 -0.915381241 -0.000000000
vn -0.548090167 -0.836419254 -0.000000000
vn -0.548090167 -0.836419254 -0.000000000
vn -0.678571407 -0.734534441 -0.000000000
vn -0.678571407 -0.734534441 -0.000000000
vn 0.993712260 0.111964029 0.000000000
vn 0.993712260 0.111964029 0.000000000
vn 0.974927902 0.222520978 0.000000000
vn 0.974927902 0.222520978 0.000000000
vn 0.943883314 0.330279110 0.000000000
vn 0.943883314 0.330279110 0.000000000
vn 0.900968791 0.433883899 0.000000000
vn 0.900968791 0.433883899 0.000000000
vn 0.846724177 0.532032111 0.000000000
vn 0.846724177 0.532032111 0.000000000
vn 0.781831198 0.623490158 0.000000000
vn 0.781831198 0.623490158 0.000000000
vn 0.707106781 0.707106781 0.000000000
vn 0.707106781 0.707106781 0.000000000
vn 0.623490158 0.781831198 0.000000000
vn 0.623490158 0.781831198 0.000000000
vn 0.532032111 0.846724177 0.000000000
vn 0.532032111 0.846724177 0.000000000
vn 0.433883899 0.900968791 0.000000000
vn 0.433883899 0.900968791 0.000000000
vn 0.330279110 0.943883314 0.000000000
vn 0.330279110 0.943883314 0.000000000
vn 0.222520978 0.974927902 0.000000000
vn 0.222520978 0.974927902 0.000000000
vn 0.111964029 0.993712260 0.000000000
vn 0.111964029 0.993712260 0.000000000
vn -0.000000000 0.000000000 1.000000000
vn -0.000000000 0.000000000 1.000000000
vn -0.000000000 0.000000000 1.000000000
vn -0.000000000 0.000000000 1.000000000
vn -0.000000000 0.000000000 1.000000000
vn -0.000000000 0.000000000 1.000000000
vn -0.000000000 0.000000000 1.000000000
vn -0.000000000 0.000000000 1.000000000
vn -0.000000000 0.000000000 1.000000000
vn -0.000000000 0.000000000 1.000000000
vn -0.000000000 0.000000000 1.000000000
vn -0.000000000 0.000000000 1.000000000
vn -0.000000000 0.000000000 1.000000000
vn -0.000000000 0.000000000 1.000000000
vn -0.000000000 0.000000000 1.000000000
vn -0.000000000 0.000000000 1.000000000
vn -0.000000000 0.000000000 1.000000000
vn -0.000000000 0.000000000 1.000000000
vn -0.000000000 0.000000000 1.000000000
vn -0.000000000 0.000000000 1.000000000
vn -0.000000000 0.000000000 1.000000000
vn -0.000000000 0.000000000 1.000000000
vn -0.000000000 0.000000000 1.000000000
vn -0.000000000 0.000000000 1.000000000
vn -0.000000000 0.000000000 1.000000000
vn -0.000000000 0.000000000 1.000000000
vn -0.000000000 0.000000000 1.000000000
vn -0.000000000 0.000000000 1.000000000
vn -0.000000000 0.000000000 1.000000000
vn -0.000000000 0.000000000 1.000000000
vn -0.000000000 0.000000000 1.000000000
vn -0.000000000 0.000000000 1.000000000
vn -0.000000000 0.000000000 1.000000000
vn -0.000000000 0.000000000 1.000000000
vn -0.000000000 0.000000000 1.000000000
vn -0.000000000 0.000000000 1.000000000
vn -0.000000000 0.000000000 1.000000000
vn -0.000000000 0.000000000 1.000000000
vn -0.000000000 0.000000000 1.000000000
vn -0.000000000 0.000000000 1.000000000
vn -0.000000000 0.000000000 1.000000000
vn -0.000000000 0.000000000 1.000000000
vn -0.000000000 0.000000000 1.000000000
vn -0.000000000 0.000000000 1.000000000
vn -0.000000000 0.000000000 1.000000000
vn -0.000000000 0.000000000 1.000000000
vn -0.000000000 0.000000000 1.000000000
vn -0.000000000 0.000000000 1.000000000
vn -0.000000000 0.000000000 1.000000000
vn -0.000000000 0.000000000 1.000000000
vn -0.000000000 0.000000000 1.000000000
vn -0.000000000 0.000000000 1.000000000
vn -0.000000000 0.000000000 1.000000000
vn -0.000000000 0.000000000 1.000000000
vn -0.000000000 0.000000000 1.000000000
vn -0.000000000 0.000000000 1.000000000
vn -0.000000000 0.000000000 1.000000000
vn -0.000000000 0.000000000 1.000000000
vn -0.000000000 0.000000000 1.000000000
vn -0.000000000 0.000000000 1.000000000
vn -0.000000000 0.000000000 1.000000000
vn -0.000000000 0.000000000 1.000000000
vn -0.000000000 0.000000000 1.000000000
vn -0.000000000 0.000000000 1.000000000
vn -0.000000000 0.000000000 1.000000000
vn -0.000000000 0.000000000 1.000000000
vn -0.000000000 0.000000000 1.000000000
vn -0.000000000 0.000000000 1.000000000
vn -0.000000000 0.000000000 1.000000000
vn -0.000000000 0.000000000 1.000000000
vn -0.000000000 0.000000000 1.000000000
vn -0.000000000 0.000000000 1.000000000
vn -0.000000000 0.000000000 1.000000000
vn -0.000000000 0.000000000 1.000000000
vn -0.000000000 0.000000000 1.000000000
vn -0.000000000 0.000000000 1.000000000
vn -0.000000000 0.000000000 1.000000000
vn -0.000000000 0.000000000 1.000000000
vn -0.000000000 0.000000000 1.000000000
vn -0.000000000 0.000000000 1.000000000
vn -0.000000000 0.000000000 1.000000000
vn -0.000000000 0.000000000 1.000000000
vn -0.000000000 0.000000000 1.000000000
vn -0.000000000 0.000000000 1.000000000
vn -0.000000000 0.000000000 1.000000000
vn -0.000000000 0.000000000 1.000000000
vn -0.000000000 0.000000000 1.000000000
vn -0.000000000 0.000000000 1.000000000
vn -0.000000000 0.000000000 1.000000000
vn -0.000000000 0.000000000 1.000000000
vn -0.000000000 0.000000000 1.000000000
vn -0.000000000 0.000000000 1.000000000
vn -0.000000000 0.000000000 1.000000000
vn -0.000000000 0.000000000 1.000000000
vn -0.000000000 0.000000000 1.000000000
vn -0.000000000 0.000000000 1.000000000
vn -0.000000000 0.000000000 1.000000000
vn -0.000000000 0.000000000 1.000000000
vn -0.000000000 0.000000000 1.000000000
vn -0.000000000 0.000000000 1.000000000
vn -0.000000000 0.000000000 1.000000000
vn -0.000000000 0.000000000 1.000000000
vn -0.000000000 0.000000000 1.000000000
vn -0.000000000 0.000000000 1.000000000
vn -0.000000000 0.000000000 1.000000000
vn -0.000000000 0.000000000 1.000000000
vn -0.000000000 0.000000000 1.000000000
vn -0.000000000 0.000000000 1.000000000
vn -0.000000000 0.000000000 1.000000000
vn -0.000000000 0.000000000 1.000000000
vn -0.000000000 0.000000000 1.000000000
vn -0.000000000 0.000000000 1.000000000
vn -0.000000000 0.000000000 1.000000000
vn -0.000000000 0.000000000 1.000000000
vn -0.000000000 0.000000000 1.000000000
vn 0.000000000 -0.000000000 -1.000000000
vn 0.000000000 -0.000000000 -1.000000000
vn 0.000000000 -0.000000000 -1.000000000
vn 0.000000000 -0.000000000 -1.000000000
vn 0.000000000 -0.000000000 -1.000000000
vn 0.000000000 -0.000000000 -1.000000000
vn 0.000000000 -0.000000000 -1.000000000
vn 0.000000000 -0.000000000 -1.000000000
vn 0.000000000 -0.000000000 -1.000000000
vn 0.000000000 -0.000000000 -1.000000000
vn 0.000000000 -0.000000000 -1.000000000
vn 0.000000000 -0.000000000 -1.000000000
vn 0.000000000 -0.000000000 -1.000000000
vn 0.000000000 -0.000000000 -1.000000000
vn 0.000000000 -0.000000000 -1.000000000
vn 0.000000000 -0.000000000 -1.000000000
vn 0.000000000 -0.000000000 -1.000000000
vn 0.000000000 -0.000000000 -1.000000000
vn 0.000000000 -0.000000000 -1.000000000
vn 0.000000000 -0.000000000 -1.000000000
vn 0.000000000 -0.000000000 -1.000000000
vn 0.000000000 -0.000000000 -1.000000000
vn 0.000000000 -0.000000000 -1.000000000
vn 0.000000000 -0.000000000 -1.000000000
vn 0.000000000 -0.000000000 -1.000000000
vn 0.000000000 -0.000000000 -1.000000000
vn 0.000000000 -0.000000000 -1.000000000
vn 0.000000000 -0.000000000 -1.000000000
vn 0.000000000 -0.000000000 -1.000000000
vn 0.000000000 -0.000000000 -1.000000000
vn 0.000000000 -0.000000000 -1.000000000
vn 0.000000000 -0.000000000 -1.000000000
vn 0.000000000 -0.000000000 -1.000000000
vn 0.000000000 -0.000000000 -1.000000000
vn 0.000000000 -0.000000000 -1.000000000
vn 0.000000000 -0.000000000 -1.000000000
vn 0.000000000 -0.000000000 -1.000000000
vn 0.000000000 -0.000000000 -1.000000000
vn 0.000000000 -0.000000000 -1.000000000
vn 0.000000000 -0.000000000 -1.000000000
vn 0.000000000 -0.000000000 -1.000000000
vn 0.000000000 -0.000000000 -1.000000000
vn 0.000000000 -0.000000000 -1.000000000
vn 0.000000000 -0.000000000 -1.000000000
vn 0.000000000 -0.000000000 -1.000000000
vn 0.000000000 -0.000000000 -1.000000000
vn 0.000000000 -0.000000000 -1.000000000
vn 0.000000000 -0.000000000 -1.000000000
vn 0.000000000 -0.000000000 -1.000000000
vn 0.000000000 -0.000000000 -1.000000000
vn 0.000000000 -0.000000000 -1.000000000
vn 0.000000000 -0.000000000 -1.000000000
vn 0.000000000 -0.000000000 -1.000000000
vn 0.000000000 -0.000000000 -1.000000000
vn 0.000000000 -0.000000000 -1.000000000
vn 0.000000000 -0.000000000 -1.000000000
vn 0.000000000 -0.000000000 -1.000000000
vn 0.000000000 -0.000000000 -1.000000000
vn 0.000000000 -0.000000000 -1.000000000
vn 0.000000000 -0.000000000 -1.000000000
vn 0.000000000 -0.000000000 -1.000000000
vn 0.000000000 -0.000000000 -1.000000000
vn 0.000000000 -0.000000000 -1.000000000
vn 0.000000000 -0.000000000 -1.000000000
vn 0.000000000 -0.000000000 -1.000000000
vn 0.000000000 -0.000000000 -1.000000000
vn 0.000000000 -0.000000000 -1.000000000
vn 0.000000000 -0.000000000 -1.000000000
vn 0.000000000 -0.000000000 -1.000000000
vn 0.000000000 -0.000000000 -1.000000000
vn 0.000000000 -0.000000000 -1.000000000
vn 0.000000000 -0.000000000 -1.000000000
vn 0.000000000 -0.000000000 -1.000000000
vn 0.000000000 -0.000000000 -1.000000000
vn 0.000000000 -0.000000000 -1.000000000
vn 0.000000000 -0.000000000 -1.000000000
vn 0.000000000 -0.000000000 -1.000000000
vn 0.000000000 -0.000000000 -1.000000000
vn 0.000000000 -0.000000000 -1.000000000
vn 0.000000000 -0.000000000 -1.000000000
vn 0.000000000 -0.000000000 -1.000000000
vn 0.000000000 -0.000000000 -1.000000000
vn 0.000000000 -0.000000000 -1.000000000
vn 0.000000000 -0.000000000 -1.000000000
vn 0.000000000 -0.000000000 -1.000000000
vn 0.000000000 -0.000000000 -1.000000000
vn 0.000000000 -0.000000000 -1.000000000
vn 0.000000000 -0.000000000 -1.000000000
vn 0.000000000 -0.000000000 -1.000000000
vn 0.000000000 -0.000000000 -1.000000000
vn 0.000000000 -0.000000000 -1.000000000
vn 0.000000000 -0.000000000 -1.000000000
vn 0.000000000 -0.000000000 -1.000000000
vn 0.000000000 -0.000000000 -1.000000000
vn 0.000000000 -0.000000000 -1.000000000
vn 0.000000000 -0.000000000 -1.000000000
vn 0.000000000 -0.000000000 -1.000000000
vn 0.000000000 -0.000000000 -1.000000000
vn 0.000000000 -0.000000000 -1.000000000
vn 0.000000000 -0.000000000 -1.000000000
vn 0.000000000 -0.000000000 -1.000000000
vn 0.000000000 -0.000000000 -1.000000000
vn 0.000000000 -0.000000000 -1.000000000
vn 0.000000000 -0.000000000 -1.000000000
vn 0.000000000 -0.000000000 -1.000000000
vn 0.000000000 -0.000000000 -1.000000000
vn 0.000000000 -0.000000000 -1.000000000
vn 0.000000000 -0.000000000 -1.000000000
vn 0.000000000 -0.000000000 -1.000000000
vn 0.000000000 -0.000000000 -1.000000000
vn 0.000000000 -0.000000000 -1.000000000
vn 0.000000000 -0.000000000 -1.000000000
vn 0.000000000 -0.000000000 -1.000000000
vn 0.000000000 -0.000000000 -1.000000000
vn 0.000000000 -0.000000000 -1.000000000
usemtl 강철_-_새틴
f 2/1/1 3/2/2 1/3/3
f 1/3/3 3/2/2 4/4/4
f 3/5/2 2/6/1 32/7/5
f 32/7/5 2/6/1 5/8/6
f 32/7/5 5/8/6 31/9/7
f 31/9/7 5/8/6 6/10/8
f 31/9/7 6/10/8 30/11/9
f 30/11/9 6/10/8 7/12/10
f 30/11/9 7/12/10 29/13/11
f 29/13/11 7/12/10 8/14/12
f 29/13/11 8/14/12 28/15/13
f 28/15/13 8/14/12 9/16/14
f 28/15/13 9/16/14 27/17/15
f 27/17/15 9/16/14 10/18/16
f 27/17/15 10/18/16 26/19/17
f 26/19/17 10/18/16 11/20/18
f 26/19/17 11/20/18 25/21/19
f 25/21/19 11/20/18 12/22/20
f 25/21/19 12/22/20 24/23/21
f 24/23/21 12/22/20 13/24/22
f 24/23/21 13/24/22 23/25/23
f 23/25/23 13/24/22 14/26/24
f 23/25/23 14/26/24 22/27/25
f 22/27/25 14/26/24 15/28/26
f 22/27/25 15/28/26 21/29/27
f 21/29/27 15/28/26 16/30/28
f 21/29/27 16/30/28 20/31/29
f 20/31/29 16/30/28 17/32/30
f 20/31/29 17/32/30 19/33/31
f 19/33/31 17/32/30 18/34/32
f 33/35/33 34/36/34 18/37/32
f 18/37/32 34/36/34 19/38/31
f 34/39/34 33/40/33 62/41/35
f 62/41/35 33/40/33 35/42/36
f 62/41/35 35/42/36 61/43/37
f 61/43/37 35/42/36 36/44/38
f 61/43/37 36/44/38 60/45/39
f 60/45/39 36/44/38 37/46/40
f 60/45/39 37/46/40 59/47/41
f 59/47/41 37/46/40 38/48/42
f 59/47/41 38/48/42 58/49/43
f 58/49/43 38/48/42 39/50/44
f 58/49/43 39/50/44 57/51/45
f 57/51/45 39/50/44 40/52/46
f 57/51/45 40/52/46 56/53/47
f 56/53/47 40/52/46 41/54/48
f 56/53/47 41/54/48 55/55/49
f 55/55/49 41/54/48 42/56/50
f 55/55/49 42/56/50 54/57/51
f 54/57/51 42/56/50 43/58/52
f 54/57/51 43/58/52 53/59/53
f 53/59/53 43/58/52 44/60/54
f 53/59/53 44/60/54 52/61/55
f 52/61/55 44/60/54 45/62/56
f 52/61/55 45/62/56 51/63/57
f 51/63/57 45/62/56 46/64/58
f 51/63/57 46/64/58 50/65/59
f 50/65/59 46/64/58 47/66/60
f 50/65/59 47/66/60 49/67/61
f 49/67/61 47/66/60 48/68/62
f 63/69/63 64/70/64 48/71/62
f 48/71/62 64/70/64 49/72/61
f 64/73/64 63/74/63 92/75/65
f 92/75/65 63/74/63 65/76/66
f 92/75/65 65/76/66 91/77/67
f 91/77/67 65/76/66 66/78/68
f 91/77/67 66/78/68 90/79/69
f 90/79/69 66/78/68 67/80/70
f 90/79/69 67/80/70 89/81/71
f 89/81/71 67/80/70 68/82/72
f 89/81/71 68/82/72 88/83/73
f 88/83/73 68/82/72 69/84/74
f 88/83/73 69/84/74 87/85/75
f 87/85/75 69/84/74 70/86/76
f 87/85/75 70/86/76 86/87/77
f 86/87/77 70/86/76 71/88/78
f 86/87/77 71/88/78 85/89/79
f 85/89/79 71/88/78 72/90/80
f 85/89/79 72/90/80 84/91/81
f 84/91/81 72/90/80 73/92/82
f 84/91/81 73/92/82 83/93/83
f 83/93/83 73/92/82 74/94/84
f 83/93/83 74/94/84 82/95/85
f 82/95/85 74/94/84 75/96/86
f 82/95/85 75/96/86 81/97/87
f 81/97/87 75/96/86 76/98/88
f 81/97/87 76/98/88 80/99/89
f 80/99/89 76/98/88 77/100/90
f 80/99/89 77/100/90 79/101/91
f 79/101/91 77/100/90 78/102/92
f 93/103/93 94/104/94 78/105/92
f 78/105/92 94/104/94 79/106/91
f 96/107/95 97/108/96 95/109/97
f 95/109/97 97/108/96 98/110/98
f 97/111/99 96/112/100 116/113/101
f 116/113/101 96/112/100 99/114/102
f 116/113/101 99/114/102 115/115/103
f 115/115/103 99/114/102 100/116/104
f 115/115/103 100/116/104 114/117/105
f 114/117/105 100/116/104 101/118/106
f 114/117/105 101/118/106 113/119/107
f 113/119/107 101/118/106 102/120/108
f 113/119/107 102/120/108 112/121/109
f 112/121/109 102/120/108 103/122/110
f 112/121/109 103/122/110 111/123/111
f 111/123/111 103/122/110 104/124/112
f 111/123/111 104/124/112 110/125/113
f 110/125/113 104/124/112 105/126/114
f 110/125/113 105/126/114 109/127/115
f 109/127/115 105/126/114 106/128/116
f 109/127/115 106/128/116 108/129/117
f 108/129/117 106/128/116 107/130/118
f 117/131/119 118/132/120 107/133/121
f 107/133/121 118/132/120 108/134/122
f 120/135/123 188/136/124 119/137/125
f 119/137/125 188/136/124 154/138/126
f 119/139/125 154/140/126 153/141/127
f 153/141/127 154/140/126 155/142/128
f 153/141/127 155/142/128 152/143/129
f 152/143/129 155/142/128 156/144/130
f 152/143/129 156/144/130 151/145/131
f 151/145/131 156/144/130 157/146/132
f 151/145/131 157/146/132 150/147/133
f 150/147/133 157/146/132 158/148/134
f 150/147/133 158/148/134 149/149/135
f 149/149/135 158/148/134 159/150/136
f 149/149/135 159/150/136 148/151/137
f 148/151/137 159/150/136 160/152/138
f 148/151/137 160/152/138 147/153/139
f 147/153/139 160/152/138 161/154/140
f 147/153/139 161/154/140 146/155/141
f 146/155/141 161/154/140 162/156/142
f 146/155/141 162/156/142 145/157/143
f 145/157/143 162/156/142 163/158/144
f 145/157/143 163/158/144 144/159/145
f 144/159/145 163/158/144 164/160/146
f 144/159/145 164/160/146 143/161/147
f 143/161/147 164/160/146 165/162/148
f 143/161/147 165/162/148 142/163/149
f 142/163/149 165/162/148 166/164/150
f 142/163/149 166/164/150 141/165/151
f 141/165/151 166/164/150 167/166/152
f 141/165/151 167/166/152 140/167/153
f 140/167/153 167/166/152 168/168/154
f 140/167/153 168/168/154 139/169/155
f 139/169/155 168/168/154 169/170/156
f 139/169/155 169/170/156 138/171/157
f 138/171/157 169/170/156 170/172/158
f 138/171/157 170/172/158 137/173/159
f 137/173/159 170/172/158 171/174/160
f 137/173/159 171/174/160 136/175/161
f 136/175/161 171/174/160 172/176/162
f 136/175/161 172/176/162 135/177/163
f 135/177/163 172/176/162 173/178/164
f 135/177/163 173/178/164 134/179/165
f 134/179/165 173/178/164 174/180/166
f 134/179/165 174/180/166 133/181/167
f 133/181/167 174/180/166 175/182/168
f 133/181/167 175/182/168 132/183/169
f 132/183/169 175/182/168 176/184/170
f 132/183/169 176/184/170 131/185/171
f 131/185/171 176/184/170 177/186/172
f 131/185/171 177/186/172 130/187/173
f 130/187/173 177/186/172 178/188/174
f 130/187/173 178/188/174 129/189/175
f 129/189/175 178/188/174 179/190/176
f 129/189/175 179/190/176 128/191/177
f 128/191/177 179/190/176 180/192/178
f 128/191/177 180/192/178 127/193/179
f 127/193/179 180/192/178 181/194/180
f 127/193/179 181/194/180 126/195/181
f 126/195/181 181/194/180 182/196/182
f 126/195/181 182/196/182 125/197/183
f 125/197/183 182/196/182 183/198/184
f 125/197/183 183/198/184 124/199/185
f 124/199/185 183/198/184 184/200/186
f 124/199/185 184/200/186 123/201/187
f 123/201/187 184/200/186 185/202/188
f 123/201/187 185/202/188 122/203/189
f 122/203/189 185/202/188 186/204/190
f 122/203/189 186/204/190 121/205/191
f 121/205/191 186/204/190 187/206/192
f 121/205/191 187/206/192 120/135/123
f 120/135/123 187/206/192 188/136/124
f 118/207/193 117/208/194 204/209/195
f 204/209/195 117/208/194 189/210/196
f 204/209/195 189/210/196 203/211/197
f 203/211/197 189/210/196 190/212/198
f 203/211/197 190/212/198 202/213/199
f 202/213/199 190/212/198 191/214/200
f 202/213/199 191/214/200 201/215/201
f 201/215/201 191/214/200 192/216/202
f 201/215/201 192/216/202 200/217/203
f 200/217/203 192/216/202 193/218/204
f 200/217/203 193/218/204 199/219/205
f 199/219/205 193/218/204 194/220/206
f 199/219/205 194/220/206 198/221/207
f 198/221/207 194/220/206 195/222/208
f 198/221/207 195/222/208 197/223/209
f 197/223/209 195/222/208 196/224/210
f 197/223/209 196/224/210 98/225/211
f 98/225/211 196/224/210 95/226/212
f 94/227/94 93/228/93 230/229/213
f 230/229/213 93/228/93 205/230/214
f 230/229/213 205/230/214 229/231/215
f 229/231/215 205/230/214 206/232/216
f 229/231/215 206/232/216 228/233/217
f 228/233/217 206/232/216 207/234/218
f 228/233/217 207/234/218 227/235/219
f 227/235/219 207/234/218 208/236/220
f 227/235/219 208/236/220 226/237/221
f 226/237/221 208/236/220 209/238/222
f 226/237/221 209/238/222 225/239/223
f 225/239/223 209/238/222 210/240/224
f 225/239/223 210/240/224 224/241/225
f 224/241/225 210/240/224 211/242/226
f 224/241/225 211/242/226 223/243/227
f 223/243/227 211/242/226 212/244/228
f 223/243/227 212/244/228 222/245/229
f 222/245/229 212/244/228 213/246/230
f 222/245/229 213/246/230 221/247/231
f 221/247/231 213/246/230 214/248/232
f 221/247/231 214/248/232 220/249/233
f 220/249/233 214/248/232 215/250/234
f 220/249/233 215/250/234 219/251/235
f 219/251/235 215/250/234 216/252/236
f 219/251/235 216/252/236 218/253/237
f 218/253/237 216/252/236 217/254/238
f 218/253/237 217/254/238 4/255/4
f 4/255/4 217/254/238 1/256/3
f 3/257/239 203/258/240 4/259/241
f 4/259/241 203/258/240 202/260/242
f 4/259/241 202/260/242 223/261/243
f 223/261/243 202/260/242 201/262/244
f 223/261/243 201/262/244 224/263/245
f 224/263/245 201/262/244 225/264/246
f 225/264/246 201/262/244 226/265/247
f 226/265/247 201/262/244 200/266/248
f 226/265/247 200/266/248 227/267/249
f 227/267/249 200/266/248 199/268/250
f 227/267/249 199/268/250 228/269/251
f 228/269/251 199/268/250 198/270/252
f 228/269/251 198/270/252 197/271/253
f 32/272/254 31/273/255 3/257/239
f 3/257/239 31/273/255 30/274/256
f 3/257/239 30/274/256 29/275/257
f 29/275/257 28/276/258 3/257/239
f 3/257/239 28/276/258 27/277/259
f 3/257/239 27/277/259 127/278/260
f 127/278/260 27/277/259 26/279/261
f 127/278/260 26/279/261 25/280/262
f 127/278/260 25/280/262 128/281/263
f 128/281/263 25/280/262 24/282/264
f 128/281/263 24/282/264 23/283/265
f 128/281/263 23/283/265 129/284/266
f 129/284/266 23/283/265 22/285/267
f 129/284/266 22/285/267 130/286/268
f 130/286/268 22/285/267 131/287/269
f 131/287/269 22/285/267 21/288/270
f 131/287/269 21/288/270 132/289/271
f 132/289/271 21/288/270 133/290/272
f 133/290/272 21/288/270 20/291/273
f 133/290/272 20/291/273 134/292/274
f 134/292/274 20/291/273 135/293/275
f 135/293/275 20/291/273 19/294/276
f 135/293/275 19/294/276 136/295/277
f 136/295/277 19/294/276 34/296/278
f 136/295/277 34/296/278 137/297/279
f 137/297/279 34/296/278 138/298/280
f 138/298/280 34/296/278 62/299/281
f 138/298/280 62/299/281 139/300/282
f 139/300/282 62/299/281 140/301/283
f 140/301/283 62/299/281 61/302/284
f 140/301/283 61/302/284 141/303/285
f 141/303/285 61/302/284 142/304/286
f 142/304/286 61/302/284 60/305/287
f 142/304/286 60/305/287 143/306/288
f 143/306/288 60/305/287 144/307/289
f 144/307/289 60/305/287 59/308/290
f 144/307/289 59/308/290 145/309/291
f 145/309/291 59/308/290 58/310/292
f 145/309/291 58/310/292 57/311/293
f 145/309/291 57/311/293 146/312/294
f 146/312/294 57/311/293 56/313/295
f 146/312/294 56/313/295 55/314/296
f 146/312/294 55/314/296 49/315/297
f 49/315/297 55/314/296 54/316/298
f 49/315/297 54/316/298 53/317/299
f 53/317/299 52/318/300 49/315/297
f 49/315/297 52/318/300 51/319/301
f 49/315/297 51/319/301 50/320/302
f 64/321/303 110/322/304 49/315/297
f 49/315/297 110/322/304 148/323/305
f 49/315/297 148/323/305 147/324/306
f 92/325/307 91/326/308 64/321/303
f 64/321/303 91/326/308 90/327/309
f 64/321/303 90/327/309 89/328/310
f 89/328/310 88/329/311 64/321/303
f 64/321/303 88/329/311 87/330/312
f 64/321/303 87/330/312 111/331/313
f 111/331/313 87/330/312 112/332/314
f 112/332/314 87/330/312 86/333/315
f 112/332/314 86/333/315 85/334/316
f 85/334/316 84/335/317 112/332/314
f 112/332/314 84/335/317 113/336/318
f 113/336/318 84/335/317 83/337/319
f 113/336/318 83/337/319 114/338/320
f 114/338/320 83/337/319 82/339/321
f 114/338/320 82/339/321 115/340/322
f 115/340/322 82/339/321 116/341/323
f 116/341/323 82/339/321 81/342/324
f 116/341/323 81/342/324 97/343/325
f 97/343/325 81/342/324 80/344/326
f 97/343/325 80/344/326 79/345/327
f 79/345/327 94/346/328 97/343/325
f 97/343/325 94/346/328 98/347/329
f 98/347/329 94/346/328 230/348/330
f 98/347/329 230/348/330 229/349/331
f 98/347/329 229/349/331 197/271/253
f 197/271/253 229/349/331 228/269/251
f 223/261/243 222/350/332 4/259/241
f 4/259/241 222/350/332 221/351/333
f 4/259/241 221/351/333 220/352/334
f 220/352/334 219/353/335 4/259/241
f 4/259/241 219/353/335 218/354/336
f 111/331/313 110/322/304 64/321/303
f 110/322/304 109/355/337 148/323/305
f 148/323/305 109/355/337 149/356/338
f 149/356/338 109/355/337 108/357/339
f 149/356/338 108/357/339 150/358/340
f 150/358/340 108/357/339 151/359/341
f 151/359/341 108/357/339 152/360/342
f 152/360/342 108/357/339 153/361/343
f 153/361/343 108/357/339 119/362/344
f 119/362/344 108/357/339 118/363/345
f 119/362/344 118/363/345 120/364/346
f 120/364/346 118/363/345 121/365/347
f 121/365/347 118/363/345 122/366/348
f 122/366/348 118/363/345 123/367/349
f 123/367/349 118/363/345 124/368/350
f 124/368/350 118/363/345 204/369/351
f 124/368/350 204/369/351 125/370/352
f 125/370/352 204/369/351 203/258/240
f 125/370/352 203/258/240 3/257/239
f 147/324/306 146/312/294 49/315/297
f 127/278/260 126/371/353 3/257/239
f 3/257/239 126/371/353 125/370/352
f 1/372/354 190/373/355 2/374/356
f 2/374/356 190/373/355 183/375/357
f 2/374/356 183/375/357 182/376/358
f 217/377/359 216/378/360 1/372/354
f 1/372/354 216/378/360 215/379/361
f 1/372/354 215/379/361 214/380/362
f 214/380/362 213/381/363 1/372/354
f 1/372/354 213/381/363 212/382/364
f 1/372/354 212/382/364 191/383/365
f 191/383/365 212/382/364 192/384/366
f 192/384/366 212/382/364 211/385/367
f 192/384/366 211/385/367 210/386/368
f 210/386/368 209/387/369 192/384/366
f 192/384/366 209/387/369 193/388/370
f 193/388/370 209/387/369 208/389/371
f 193/388/370 208/389/371 194/390/372
f 194/390/372 208/389/371 207/391/373
f 194/390/372 207/391/373 195/392/374
f 195/392/374 207/391/373 196/393/375
f 196/393/375 207/391/373 206/394/376
f 196/393/375 206/394/376 95/395/377
f 95/395/377 206/394/376 205/396/378
f 95/395/377 205/396/378 93/397/379
f 95/395/377 93/397/379 96/398/380
f 96/398/380 93/397/379 78/399/381
f 96/398/380 78/399/381 77/400/382
f 77/400/382 76/401/383 96/398/380
f 96/398/380 76/401/383 99/402/384
f 99/402/384 76/401/383 75/403/385
f 99/402/384 75/403/385 100/404/386
f 100/404/386 75/403/385 101/405/387
f 101/405/387 75/403/385 74/406/388
f 101/405/387 74/406/388 102/407/389
f 102/407/389 74/406/388 73/408/390
f 102/407/389 73/408/390 103/409/391
f 103/409/391 73/408/390 72/410/392
f 103/409/391 72/410/392 71/411/393
f 71/411/393 70/412/394 103/409/391
f 103/409/391 70/412/394 104/413/395
f 104/413/395 70/412/394 63/414/396
f 104/413/395 63/414/396 105/415/397
f 105/415/397 63/414/396 48/416/398
f 105/415/397 48/416/398 160/417/399
f 160/417/399 48/416/398 161/418/400
f 161/418/400 48/416/398 162/419/401
f 162/419/401 48/416/398 42/420/402
f 162/419/401 42/420/402 41/421/403
f 70/412/394 69/422/404 63/414/396
f 63/414/396 69/422/404 68/423/405
f 63/414/396 68/423/405 67/424/406
f 67/424/406 66/425/407 63/414/396
f 63/414/396 66/425/407 65/426/408
f 47/427/409 46/428/410 48/416/398
f 48/416/398 46/428/410 45/429/411
f 48/416/398 45/429/411 44/430/412
f 44/430/412 43/431/413 48/416/398
f 48/416/398 43/431/413 42/420/402
f 41/421/403 40/432/414 162/419/401
f 162/419/401 40/432/414 163/433/415
f 163/433/415 40/432/414 39/434/416
f 163/433/415 39/434/416 38/435/417
f 163/433/415 38/435/417 164/436/418
f 164/436/418 38/435/417 37/437/419
f 164/436/418 37/437/419 165/438/420
f 165/438/420 37/437/419 166/439/421
f 166/439/421 37/437/419 36/440/422
f 166/439/421 36/440/422 167/441/423
f 167/441/423 36/440/422 168/442/424
f 168/442/424 36/440/422 35/443/425
f 168/442/424 35/443/425 169/444/426
f 169/444/426 35/443/425 170/445/427
f 170/445/427 35/443/425 33/446/428
f 170/445/427 33/446/428 171/447/429
f 171/447/429 33/446/428 172/448/430
f 172/448/430 33/446/428 18/449/431
f 172/448/430 18/449/431 173/450/432
f 173/450/432 18/449/431 17/451/433
f 173/450/432 17/451/433 174/452/434
f 174/452/434 17/451/433 175/453/435
f 175/453/435 17/451/433 16/454/436
f 175/453/435 16/454/436 176/455/437
f 176/455/437 16/454/436 177/456/438
f 177/456/438 16/454/436 15/457/439
f 177/456/438 15/457/439 178/458/440
f 178/458/440 15/457/439 179/459/441
f 179/459/441 15/457/439 14/460/442
f 179/459/441 14/460/442 180/461/443
f 180/461/443 14/460/442 13/462/444
f 180/461/443 13/462/444 12/463/445
f 180/461/443 12/463/445 181/464/446
f 181/464/446 12/463/445 11/465/447
f 181/464/446 11/465/447 10/466/448
f 181/464/446 10/466/448 2/374/356
f 2/374/356 10/466/448 9/467/449
f 2/374/356 9/467/449 8/468/450
f 8/468/450 7/469/451 2/374/356
f 2/374/356 7/469/451 6/470/452
f 2/374/356 6/470/452 5/471/453
f 191/383/365 190/373/355 1/372/354
f 190/373/355 189/472/454 183/375/357
f 183/375/357 189/472/454 184/473/455
f 184/473/455 189/472/454 117/474/456
f 184/473/455 117/474/456 185/475/457
f 185/475/457 117/474/456 186/476/458
f 186/476/458 117/474/456 187/477/459
f 187/477/459 117/474/456 188/478/460
f 188/478/460 117/474/456 154/479/461
f 154/479/461 117/474/456 107/480/462
f 154/479/461 107/480/462 155/481/463
f 155/481/463 107/480/462 156/482/464
f 156/482/464 107/480/462 157/483/465
f 157/483/465 107/480/462 158/484/466
f 158/484/466 107/480/462 159/485/467
f 159/485/467 107/480/462 106/486/468
f 159/485/467 106/486/468 160/417/399
f 160/417/399 106/486/468 105/415/397
f 182/376/358 181/464/446 2/374/356
# 230 vertices
# 486 texture params
# 468 normals
# 464 facets

# 1 groups
