# WaveFront *.obj file (generated by Autodesk ATF)

mtllib motor_mount_1.mtl

g 본체1

v 0.060302190 -0.062431610 0.005000000
v 0.060302190 0.027568390 0.005000000
v 0.060218300 0.029810290 0.005000000
v 0.059967110 0.032039660 0.005000000
v 0.059550030 0.034244020 0.005000000
v 0.058969370 0.036411040 0.005000000
v 0.058228400 0.038528620 0.005000000
v 0.057331250 0.040584900 0.005000000
v 0.056282950 0.042568390 0.005000000
v 0.055089350 0.044467990 0.005000000
v 0.053757130 0.046273080 0.005000000
v 0.052293740 0.047973570 0.005000000
v 0.050707370 0.049559950 0.005000000
v 0.049006880 0.051023330 0.005000000
v 0.047201790 0.052355550 0.005000000
v 0.045302190 0.053549150 0.005000000
v 0.043318700 0.054597460 0.005000000
v 0.041262420 0.055494600 0.005000000
v 0.039144840 0.056235570 0.005000000
v 0.036977820 0.056816230 0.005000000
v 0.034773460 0.057233310 0.005000000
v 0.032544090 0.057484500 0.005000000
v 0.030302190 0.057568390 0.005000000
v 0.027302190 0.057568390 0.005000000
v 0.025060290 0.057484500 0.005000000
v 0.022830920 0.057233310 0.005000000
v 0.020626560 0.056816230 0.005000000
v 0.018459530 0.056235570 0.005000000
v 0.016341960 0.055494600 0.005000000
v 0.014285680 0.054597460 0.005000000
v 0.012302190 0.053549150 0.005000000
v 0.010402590 0.052355550 0.005000000
v 0.008597490 0.051023330 0.005000000
v 0.006897010 0.049559950 0.005000000
v 0.005310630 0.047973570 0.005000000
v 0.003847240 0.046273080 0.005000000
v 0.002515030 0.044467990 0.005000000
v 0.001321430 0.042568390 0.005000000
v 0.000273120 0.040584900 0.005000000
v -0.000624020 0.038528620 0.005000000
v -0.001365000 0.036411040 0.005000000
v -0.001945650 0.034244020 0.005000000
v -0.002362740 0.032039660 0.005000000
v -0.002613930 0.029810290 0.005000000
v -0.002697810 0.027568390 0.005000000
v -0.002697810 -0.062431610 0.005000000
v 0.033802190 0.027568390 0.005000000
v 0.033717050 0.026649640 0.005000000
v 0.033464550 0.025762180 0.005000000
v 0.033053270 0.024936230 0.005000000
v 0.032497230 0.024199910 0.005000000
v 0.031815360 0.023578300 0.005000000
v 0.031030880 0.023092570 0.005000000
v 0.030170500 0.022759260 0.005000000
v 0.029263530 0.022589720 0.005000000
v 0.028340850 0.022589720 0.005000000
v 0.027433870 0.022759260 0.005000000
v 0.026573500 0.023092570 0.005000000
v 0.025789020 0.023578300 0.005000000
v 0.025107140 0.024199910 0.005000000
v 0.024551100 0.024936230 0.005000000
v 0.024139830 0.025762180 0.005000000
v 0.023887320 0.026649640 0.005000000
v 0.023802190 0.027568390 0.005000000
v 0.023887320 0.028487140 0.005000000
v 0.024139830 0.029374600 0.005000000
v 0.024551100 0.030200550 0.005000000
v 0.025107140 0.030936870 0.005000000
v 0.025789020 0.031558480 0.005000000
v 0.026573500 0.032044210 0.005000000
v 0.027433870 0.032377520 0.005000000
v 0.028340850 0.032547060 0.005000000
v 0.029263530 0.032547060 0.005000000
v 0.030170500 0.032377520 0.005000000
v 0.031030880 0.032044210 0.005000000
v 0.031815360 0.031558480 0.005000000
v 0.032497230 0.030936870 0.005000000
v 0.033053270 0.030200550 0.005000000
v 0.033464550 0.029374600 0.005000000
v 0.033717050 0.028487140 0.005000000
v 0.060302190 0.027568390 0.000000000
v 0.060302190 -0.062431610 0.000000000
v -0.002697810 -0.062431610 0.000000000
v -0.002697810 0.027568390 0.000000000
v -0.002613930 0.029810290 0.000000000
v -0.002362740 0.032039660 0.000000000
v -0.001945650 0.034244020 0.000000000
v -0.001365000 0.036411040 0.000000000
v -0.000624020 0.038528620 0.000000000
v 0.000273120 0.040584900 0.000000000
v 0.001321430 0.042568390 0.000000000
v 0.002515030 0.044467990 0.000000000
v 0.003847240 0.046273080 0.000000000
v 0.005310630 0.047973570 0.000000000
v 0.006897010 0.049559950 0.000000000
v 0.008597490 0.051023330 0.000000000
v 0.010402590 0.052355550 0.000000000
v 0.012302190 0.053549150 0.000000000
v 0.014285680 0.054597460 0.000000000
v 0.016341960 0.055494600 0.000000000
v 0.018459530 0.056235570 0.000000000
v 0.020626560 0.056816230 0.000000000
v 0.022830920 0.057233310 0.000000000
v 0.025060290 0.057484500 0.000000000
v 0.027302190 0.057568390 0.000000000
v 0.030302190 0.057568390 0.000000000
v 0.032544090 0.057484500 0.000000000
v 0.034773460 0.057233310 0.000000000
v 0.036977820 0.056816230 0.000000000
v 0.039144840 0.056235570 0.000000000
v 0.041262420 0.055494600 0.000000000
v 0.043318700 0.054597460 0.000000000
v 0.045302190 0.053549150 0.000000000
v 0.047201790 0.052355550 0.000000000
v 0.049006880 0.051023330 0.000000000
v 0.050707370 0.049559950 0.000000000
v 0.052293740 0.047973570 0.000000000
v 0.053757130 0.046273080 0.000000000
v 0.055089350 0.044467990 0.000000000
v 0.056282950 0.042568390 0.000000000
v 0.057331250 0.040584900 0.000000000
v 0.058228400 0.038528620 0.000000000
v 0.058969370 0.036411040 0.000000000
v 0.059550030 0.034244020 0.000000000
v 0.059967110 0.032039660 0.000000000
v 0.060218300 0.029810290 0.000000000
v 0.033802190 0.027568390 0.000000000
v 0.033717050 0.028487140 0.000000000
v 0.033464550 0.029374600 0.000000000
v 0.033053270 0.030200550 0.000000000
v 0.032497230 0.030936870 0.000000000
v 0.031815360 0.031558480 0.000000000
v 0.031030880 0.032044210 0.000000000
v 0.030170500 0.032377520 0.000000000
v 0.029263530 0.032547060 0.000000000
v 0.028340850 0.032547060 0.000000000
v 0.027433870 0.032377520 0.000000000
v 0.026573500 0.032044210 0.000000000
v 0.025789020 0.031558480 0.000000000
v 0.025107140 0.030936870 0.000000000
v 0.024551100 0.030200550 0.000000000
v 0.024139830 0.029374600 0.000000000
v 0.023887320 0.028487140 0.000000000
v 0.023802190 0.027568390 0.000000000
v 0.023887320 0.026649640 0.000000000
v 0.024139830 0.025762180 0.000000000
v 0.024551100 0.024936230 0.000000000
v 0.025107140 0.024199910 0.000000000
v 0.025789020 0.023578300 0.000000000
v 0.026573500 0.023092570 0.000000000
v 0.027433870 0.022759260 0.000000000
v 0.028340850 0.022589720 0.000000000
v 0.029263530 0.022589720 0.000000000
v 0.030170500 0.022759260 0.000000000
v 0.031030880 0.023092570 0.000000000
v 0.031815360 0.023578300 0.000000000
v 0.032497230 0.024199910 0.000000000
v 0.033053270 0.024936230 0.000000000
v 0.033464550 0.025762180 0.000000000
v 0.033717050 0.026649640 0.000000000
vt 3.300000 -0.000000 0.000000
vt 0.650000 0.000000 0.000000
vt 3.300000 -9.000000 0.000000
vt 0.641487 -0.091875 0.000000
vt 0.616236 -0.180621 0.000000
vt 3.291611 0.224190 0.000000
vt 0.616236 0.180621 0.000000
vt 0.641487 0.091875 0.000000
vt 3.266492 0.447127 0.000000
vt 0.451317 0.399009 0.000000
vt 0.519504 0.336848 0.000000
vt 0.575109 0.263216 0.000000
vt 3.224784 0.667563 0.000000
vt 0.196134 0.497867 0.000000
vt 0.286831 0.480913 0.000000
vt 0.372869 0.447582 0.000000
vt 3.166718 0.884266 0.000000
vt 3.092621 1.096023 0.000000
vt 3.002907 1.301651 0.000000
vt 2.898076 1.500000 0.000000
vt 2.778716 1.689960 0.000000
vt 2.645494 1.870469 0.000000
vt 2.499156 2.040518 0.000000
vt 2.340518 2.199156 0.000000
vt 2.170469 2.345494 0.000000
vt 1.989960 2.478716 0.000000
vt 1.800000 2.598076 0.000000
vt 1.601651 2.702907 0.000000
vt 1.396023 2.792621 0.000000
vt 1.184266 2.866718 0.000000
vt 0.967563 2.924784 0.000000
vt 0.747127 2.966492 0.000000
vt 0.524190 2.991611 0.000000
vt 0.300000 3.000000 0.000000
vt 0.000000 3.000000 0.000000
vt -2.924784 0.667563 0.000000
vt -0.224190 2.991611 0.000000
vt -0.447127 2.966492 0.000000
vt -0.667563 2.924784 0.000000
vt -0.884266 2.866718 0.000000
vt -1.096023 2.792621 0.000000
vt -1.301651 2.702907 0.000000
vt -1.500000 2.598076 0.000000
vt -1.689960 2.478716 0.000000
vt -1.870469 2.345494 0.000000
vt -2.040518 2.199156 0.000000
vt -2.199156 2.040518 0.000000
vt -2.345494 1.870469 0.000000
vt -2.866718 0.884266 0.000000
vt -2.478716 1.689960 0.000000
vt -2.598076 1.500000 0.000000
vt -2.702907 1.301651 0.000000
vt -2.792621 1.096023 0.000000
vt -2.966492 0.447127 0.000000
vt 0.103866 0.497867 0.000000
vt -2.991611 0.224190 0.000000
vt -0.151317 0.399009 0.000000
vt -0.072869 0.447582 0.000000
vt 0.013169 0.480913 0.000000
vt -3.000000 -0.000000 0.000000
vt -0.316236 0.180621 0.000000
vt -0.275109 0.263216 0.000000
vt -0.219504 0.336848 0.000000
vt -3.000000 -9.000000 0.000000
vt -0.341487 -0.091875 0.000000
vt -0.350000 0.000000 0.000000
vt -0.341487 0.091875 0.000000
vt 0.103866 -0.497867 0.000000
vt 0.013169 -0.480913 0.000000
vt -0.072869 -0.447582 0.000000
vt 0.575109 -0.263216 0.000000
vt 0.519504 -0.336848 0.000000
vt 0.451317 -0.399009 0.000000
vt 0.372869 -0.447582 0.000000
vt 0.286831 -0.480913 0.000000
vt 0.196134 -0.497867 0.000000
vt -0.151317 -0.399009 0.000000
vt -0.219504 -0.336848 0.000000
vt -0.275109 -0.263216 0.000000
vt -0.316236 -0.180621 0.000000
vt -3.300000 -9.000000 0.000000
vt -0.641487 -0.091875 0.000000
vt -3.300000 -0.000000 0.000000
vt -0.650000 0.000000 0.000000
vt -0.641487 0.091875 0.000000
vt 3.000000 -9.000000 0.000000
vt -0.196134 -0.497867 0.000000
vt -0.286831 -0.480913 0.000000
vt -0.372869 -0.447582 0.000000
vt 3.000000 -0.000000 0.000000
vt 0.219504 -0.336848 0.000000
vt 0.151317 -0.399009 0.000000
vt 0.072869 -0.447582 0.000000
vt 2.991611 0.224190 0.000000
vt 2.966492 0.447127 0.000000
vt 2.924784 0.667563 0.000000
vt 0.350000 0.000000 0.000000
vt 0.341487 0.091875 0.000000
vt 0.316236 0.180621 0.000000
vt 0.275109 0.263216 0.000000
vt 0.219504 0.336848 0.000000
vt 0.151317 0.399009 0.000000
vt 0.072869 0.447582 0.000000
vt -0.013169 0.480913 0.000000
vt -0.103866 0.497867 0.000000
vt -3.224784 0.667563 0.000000
vt -0.196134 0.497867 0.000000
vt -3.266492 0.447127 0.000000
vt -0.286831 0.480913 0.000000
vt -0.372869 0.447582 0.000000
vt -0.451317 0.399009 0.000000
vt -3.291611 0.224190 0.000000
vt -0.519504 0.336848 0.000000
vt -0.575109 0.263216 0.000000
vt -0.616236 0.180621 0.000000
vt -3.166718 0.884266 0.000000
vt 2.866718 0.884266 0.000000
vt -0.300000 3.000000 0.000000
vt -0.000000 3.000000 0.000000
vt 0.224190 2.991611 0.000000
vt 0.447127 2.966492 0.000000
vt 0.667563 2.924784 0.000000
vt 0.884266 2.866718 0.000000
vt 1.096023 2.792621 0.000000
vt 1.301651 2.702907 0.000000
vt 1.500000 2.598076 0.000000
vt 1.689960 2.478716 0.000000
vt 1.870469 2.345494 0.000000
vt 2.040518 2.199156 0.000000
vt 2.199156 2.040518 0.000000
vt 2.345494 1.870469 0.000000
vt 2.478716 1.689960 0.000000
vt 2.598076 1.500000 0.000000
vt 2.702907 1.301651 0.000000
vt 2.792621 1.096023 0.000000
vt -0.524190 2.991611 0.000000
vt -0.747127 2.966492 0.000000
vt -0.967563 2.924784 0.000000
vt -1.184266 2.866718 0.000000
vt -1.396023 2.792621 0.000000
vt -1.601651 2.702907 0.000000
vt -1.800000 2.598076 0.000000
vt -1.989960 2.478716 0.000000
vt -2.170469 2.345494 0.000000
vt -2.340518 2.199156 0.000000
vt -2.499156 2.040518 0.000000
vt -2.645494 1.870469 0.000000
vt -2.778716 1.689960 0.000000
vt -2.898076 1.500000 0.000000
vt -3.002907 1.301651 0.000000
vt -3.092621 1.096023 0.000000
vt 0.341487 -0.091875 0.000000
vt 0.316236 -0.180621 0.000000
vt 0.275109 -0.263216 0.000000
vt -0.013169 -0.480913 0.000000
vt -0.103866 -0.497867 0.000000
vt -0.451317 -0.399009 0.000000
vt -0.519504 -0.336848 0.000000
vt -0.575109 -0.263216 0.000000
vt -0.616236 -0.180621 0.000000
vt 0.500000 0.000000 0.000000
vt -0.000000 0.000000 0.000000
vt 0.500000 -9.000000 0.000000
vt -0.000000 -9.000000 0.000000
vt -0.000000 -9.424778 0.000000
vt -0.500000 -9.424778 0.000000
vt -0.000000 -9.649177 0.000000
vt -0.500000 -9.649177 0.000000
vt -0.000000 -9.873577 0.000000
vt -0.500000 -9.873577 0.000000
vt 0.000000 -10.097976 0.000000
vt -0.500000 -10.097976 0.000000
vt -0.000000 -10.322376 0.000000
vt -0.500000 -10.322376 0.000000
vt 0.000000 -10.546775 0.000000
vt -0.500000 -10.546775 0.000000
vt 0.000000 -10.771175 0.000000
vt -0.500000 -10.771175 0.000000
vt -0.000000 -10.995574 0.000000
vt -0.500000 -10.995574 0.000000
vt -0.000000 -11.219974 0.000000
vt -0.500000 -11.219974 0.000000
vt 0.000000 -11.444373 0.000000
vt -0.500000 -11.444373 0.000000
vt 0.000000 -11.668773 0.000000
vt -0.500000 -11.668773 0.000000
vt 0.000000 -11.893172 0.000000
vt -0.500000 -11.893172 0.000000
vt 0.000000 -12.117572 0.000000
vt -0.500000 -12.117572 0.000000
vt 0.000000 -12.341971 0.000000
vt -0.500000 -12.341971 0.000000
vt 0.000000 -12.566371 0.000000
vt -0.500000 -12.566371 0.000000
vt 0.000000 -12.790770 0.000000
vt -0.500000 -12.790770 0.000000
vt -0.000000 -13.015170 0.000000
vt -0.500000 -13.015170 0.000000
vt -0.000000 -13.239569 0.000000
vt -0.500000 -13.239569 0.000000
vt 0.000000 -13.463969 0.000000
vt -0.500000 -13.463969 0.000000
vt -0.000000 -13.688368 0.000000
vt -0.500000 -13.688368 0.000000
vt -0.000000 -13.912767 0.000000
vt -0.500000 -13.912767 0.000000
vt -0.000000 -14.137167 0.000000
vt -0.500000 -14.137167 0.000000
vt -0.500000 0.000000 0.000000
vt -0.000000 0.000000 0.000000
vt -0.500000 0.300000 0.000000
vt -0.000000 0.300000 0.000000
vt -0.000000 4.712389 0.000000
vt -0.500000 4.712389 0.000000
vt -0.000000 4.487990 0.000000
vt -0.500000 4.487990 0.000000
vt -0.000000 4.263590 0.000000
vt -0.500000 4.263590 0.000000
vt -0.000000 4.039191 0.000000
vt -0.500000 4.039191 0.000000
vt -0.000000 3.814791 0.000000
vt -0.500000 3.814791 0.000000
vt -0.000000 3.590392 0.000000
vt -0.500000 3.590392 0.000000
vt -0.000000 3.365992 0.000000
vt -0.500000 3.365992 0.000000
vt -0.000000 3.141593 0.000000
vt -0.500000 3.141593 0.000000
vt -0.000000 2.917193 0.000000
vt -0.500000 2.917193 0.000000
vt -0.000000 2.692794 0.000000
vt -0.500000 2.692794 0.000000
vt -0.000000 2.468394 0.000000
vt -0.500000 2.468394 0.000000
vt -0.000000 2.243995 0.000000
vt -0.500000 2.243995 0.000000
vt -0.000000 2.019595 0.000000
vt -0.500000 2.019595 0.000000
vt -0.000000 1.795196 0.000000
vt -0.500000 1.795196 0.000000
vt -0.000000 1.570796 0.000000
vt -0.500000 1.570796 0.000000
vt -0.000000 1.346397 0.000000
vt -0.500000 1.346397 0.000000
vt -0.000000 1.121997 0.000000
vt -0.500000 1.121997 0.000000
vt -0.000000 0.897598 0.000000
vt -0.500000 0.897598 0.000000
vt -0.000000 0.673198 0.000000
vt -0.500000 0.673198 0.000000
vt -0.000000 0.448799 0.000000
vt -0.500000 0.448799 0.000000
vt -0.000000 0.224399 0.000000
vt -0.500000 0.224399 0.000000
vt -0.000000 -0.000000 0.000000
vt -0.500000 -0.000000 0.000000
vt -0.500000 -9.000000 0.000000
vt 0.000000 -9.000000 0.000000
vt -0.500000 0.000000 0.000000
vt -0.000000 0.000000 0.000000
vt 0.500000 6.300000 0.000000
vt -0.000000 6.300000 0.000000
vt 0.500000 0.000000 0.000000
vt -0.000000 0.000000 0.000000
vt 0.000000 1.478397 0.000000
vt 0.500000 1.478397 0.000000
vt -0.000000 1.570796 0.000000
vt 0.500000 1.570796 0.000000
vt -0.000000 -1.570796 0.000000
vt 0.500000 -1.570796 0.000000
vt 0.000000 -1.478397 0.000000
vt 0.500000 -1.478397 0.000000
vt 0.000000 -1.385997 0.000000
vt 0.500000 -1.385997 0.000000
vt 0.000000 -1.293597 0.000000
vt 0.500000 -1.293597 0.000000
vt 0.000000 -1.201197 0.000000
vt 0.500000 -1.201197 0.000000
vt 0.000000 -1.108797 0.000000
vt 0.500000 -1.108797 0.000000
vt 0.000000 -1.016398 0.000000
vt 0.500000 -1.016398 0.000000
vt 0.000000 -0.923998 0.000000
vt 0.500000 -0.923998 0.000000
vt 0.000000 -0.831598 0.000000
vt 0.500000 -0.831598 0.000000
vt 0.000000 -0.739198 0.000000
vt 0.500000 -0.739198 0.000000
vt 0.000000 -0.646798 0.000000
vt 0.500000 -0.646798 0.000000
vt 0.000000 -0.554399 0.000000
vt 0.500000 -0.554399 0.000000
vt 0.000000 -0.461999 0.000000
vt 0.500000 -0.461999 0.000000
vt 0.000000 -0.369599 0.000000
vt 0.500000 -0.369599 0.000000
vt 0.000000 -0.277199 0.000000
vt 0.500000 -0.277199 0.000000
vt 0.000000 -0.184800 0.000000
vt 0.500000 -0.184800 0.000000
vt 0.000000 -0.092400 0.000000
vt 0.500000 -0.092400 0.000000
vt 0.000000 0.000000 0.000000
vt 0.500000 0.000000 0.000000
vt 0.000000 0.092400 0.000000
vt 0.500000 0.092400 0.000000
vt 0.000000 0.184800 0.000000
vt 0.500000 0.184800 0.000000
vt 0.000000 0.277199 0.000000
vt 0.500000 0.277199 0.000000
vt 0.000000 0.369599 0.000000
vt 0.500000 0.369599 0.000000
vt 0.000000 0.461999 0.000000
vt 0.500000 0.461999 0.000000
vt 0.000000 0.554399 0.000000
vt 0.500000 0.554399 0.000000
vt 0.000000 0.646798 0.000000
vt 0.500000 0.646798 0.000000
vt 0.000000 0.739198 0.000000
vt 0.500000 0.739198 0.000000
vt -0.000000 0.831598 0.000000
vt 0.500000 0.831598 0.000000
vt -0.000000 0.923998 0.000000
vt 0.500000 0.923998 0.000000
vt 0.000000 1.016398 0.000000
vt 0.500000 1.016398 0.000000
vt -0.000000 1.108797 0.000000
vt 0.500000 1.108797 0.000000
vt -0.000000 1.201197 0.000000
vt 0.500000 1.201197 0.000000
vt -0.000000 1.293597 0.000000
vt 0.500000 1.293597 0.000000
vt -0.000000 1.385997 0.000000
vt 0.500000 1.385997 0.000000
vn 0.000000000 0.000000000 1.000000000
vn 0.000000000 0.000000000 1.000000000
vn 0.000000000 0.000000000 1.000000000
vn 0.000000000 0.000000000 1.000000000
vn 0.000000000 0.000000000 1.000000000
vn 0.000000000 0.000000000 1.000000000
vn 0.000000000 0.000000000 1.000000000
vn 0.000000000 0.000000000 1.000000000
vn 0.000000000 0.000000000 1.000000000
vn 0.000000000 0.000000000 1.000000000
vn 0.000000000 0.000000000 1.000000000
vn 0.000000000 0.000000000 1.000000000
vn 0.000000000 0.000000000 1.000000000
vn 0.000000000 0.000000000 1.000000000
vn 0.000000000 0.000000000 1.000000000
vn 0.000000000 0.000000000 1.000000000
vn 0.000000000 0.000000000 1.000000000
vn 0.000000000 0.000000000 1.000000000
vn 0.000000000 0.000000000 1.000000000
vn 0.000000000 0.000000000 1.000000000
vn 0.000000000 0.000000000 1.000000000
vn 0.000000000 0.000000000 1.000000000
vn 0.000000000 0.000000000 1.000000000
vn 0.000000000 0.000000000 1.000000000
vn 0.000000000 0.000000000 1.000000000
vn 0.000000000 0.000000000 1.000000000
vn 0.000000000 0.000000000 1.000000000
vn 0.000000000 0.000000000 1.000000000
vn 0.000000000 0.000000000 1.000000000
vn 0.000000000 0.000000000 1.000000000
vn 0.000000000 0.000000000 1.000000000
vn 0.000000000 0.000000000 1.000000000
vn 0.000000000 0.000000000 1.000000000
vn 0.000000000 0.000000000 1.000000000
vn 0.000000000 0.000000000 1.000000000
vn 0.000000000 0.000000000 1.000000000
vn 0.000000000 0.000000000 1.000000000
vn 0.000000000 0.000000000 1.000000000
vn 0.000000000 0.000000000 1.000000000
vn 0.000000000 0.000000000 1.000000000
vn 0.000000000 0.000000000 1.000000000
vn 0.000000000 0.000000000 1.000000000
vn 0.000000000 0.000000000 1.000000000
vn 0.000000000 0.000000000 1.000000000
vn 0.000000000 0.000000000 1.000000000
vn 0.000000000 0.000000000 1.000000000
vn 0.000000000 0.000000000 1.000000000
vn 0.000000000 0.000000000 1.000000000
vn 0.000000000 0.000000000 1.000000000
vn 0.000000000 0.000000000 1.000000000
vn 0.000000000 0.000000000 1.000000000
vn 0.000000000 0.000000000 1.000000000
vn 0.000000000 0.000000000 1.000000000
vn 0.000000000 0.000000000 1.000000000
vn 0.000000000 0.000000000 1.000000000
vn 0.000000000 0.000000000 1.000000000
vn 0.000000000 0.000000000 1.000000000
vn 0.000000000 0.000000000 1.000000000
vn 0.000000000 0.000000000 1.000000000
vn 0.000000000 0.000000000 1.000000000
vn 0.000000000 0.000000000 1.000000000
vn 0.000000000 0.000000000 1.000000000
vn 0.000000000 0.000000000 1.000000000
vn 0.000000000 0.000000000 1.000000000
vn 0.000000000 0.000000000 1.000000000
vn 0.000000000 0.000000000 1.000000000
vn 0.000000000 0.000000000 1.000000000
vn 0.000000000 0.000000000 1.000000000
vn 0.000000000 0.000000000 1.000000000
vn 0.000000000 0.000000000 1.000000000
vn 0.000000000 0.000000000 1.000000000
vn 0.000000000 0.000000000 1.000000000
vn 0.000000000 0.000000000 1.000000000
vn 0.000000000 0.000000000 1.000000000
vn 0.000000000 0.000000000 1.000000000
vn 0.000000000 0.000000000 1.000000000
vn 0.000000000 0.000000000 1.000000000
vn 0.000000000 0.000000000 1.000000000
vn 0.000000000 0.000000000 1.000000000
vn 0.000000000 0.000000000 1.000000000
vn -0.000000000 -0.000000000 -1.000000000
vn -0.000000000 -0.000000000 -1.000000000
vn -0.000000000 -0.000000000 -1.000000000
vn -0.000000000 -0.000000000 -1.000000000
vn -0.000000000 -0.000000000 -1.000000000
vn -0.000000000 -0.000000000 -1.000000000
vn -0.000000000 -0.000000000 -1.000000000
vn -0.000000000 -0.000000000 -1.000000000
vn -0.000000000 -0.000000000 -1.000000000
vn -0.000000000 -0.000000000 -1.000000000
vn -0.000000000 -0.000000000 -1.000000000
vn -0.000000000 -0.000000000 -1.000000000
vn -0.000000000 -0.000000000 -1.000000000
vn -0.000000000 -0.000000000 -1.000000000
vn -0.000000000 -0.000000000 -1.000000000
vn -0.000000000 -0.000000000 -1.000000000
vn -0.000000000 -0.000000000 -1.000000000
vn -0.000000000 -0.000000000 -1.000000000
vn -0.000000000 -0.000000000 -1.000000000
vn -0.000000000 -0.000000000 -1.000000000
vn -0.000000000 -0.000000000 -1.000000000
vn -0.000000000 -0.000000000 -1.000000000
vn -0.000000000 -0.000000000 -1.000000000
vn -0.000000000 -0.000000000 -1.000000000
vn -0.000000000 -0.000000000 -1.000000000
vn -0.000000000 -0.000000000 -1.000000000
vn -0.000000000 -0.000000000 -1.000000000
vn -0.000000000 -0.000000000 -1.000000000
vn -0.000000000 -0.000000000 -1.000000000
vn -0.000000000 -0.000000000 -1.000000000
vn -0.000000000 -0.000000000 -1.000000000
vn -0.000000000 -0.000000000 -1.000000000
vn -0.000000000 -0.000000000 -1.000000000
vn -0.000000000 -0.000000000 -1.000000000
vn -0.000000000 -0.000000000 -1.000000000
vn -0.000000000 -0.000000000 -1.000000000
vn -0.000000000 -0.000000000 -1.000000000
vn -0.000000000 -0.000000000 -1.000000000
vn -0.000000000 -0.000000000 -1.000000000
vn -0.000000000 -0.000000000 -1.000000000
vn -0.000000000 -0.000000000 -1.000000000
vn -0.000000000 -0.000000000 -1.000000000
vn -0.000000000 -0.000000000 -1.000000000
vn -0.000000000 -0.000000000 -1.000000000
vn -0.000000000 -0.000000000 -1.000000000
vn -0.000000000 -0.000000000 -1.000000000
vn -0.000000000 -0.000000000 -1.000000000
vn -0.000000000 -0.000000000 -1.000000000
vn -0.000000000 -0.000000000 -1.000000000
vn -0.000000000 -0.000000000 -1.000000000
vn -0.000000000 -0.000000000 -1.000000000
vn -0.000000000 -0.000000000 -1.000000000
vn -0.000000000 -0.000000000 -1.000000000
vn -0.000000000 -0.000000000 -1.000000000
vn -0.000000000 -0.000000000 -1.000000000
vn -0.000000000 -0.000000000 -1.000000000
vn -0.000000000 -0.000000000 -1.000000000
vn -0.000000000 -0.000000000 -1.000000000
vn -0.000000000 -0.000000000 -1.000000000
vn -0.000000000 -0.000000000 -1.000000000
vn -0.000000000 -0.000000000 -1.000000000
vn -0.000000000 -0.000000000 -1.000000000
vn -0.000000000 -0.000000000 -1.000000000
vn -0.000000000 -0.000000000 -1.000000000
vn -0.000000000 -0.000000000 -1.000000000
vn -0.000000000 -0.000000000 -1.000000000
vn -0.000000000 -0.000000000 -1.000000000
vn -0.000000000 -0.000000000 -1.000000000
vn -0.000000000 -0.000000000 -1.000000000
vn -0.000000000 -0.000000000 -1.000000000
vn -0.000000000 -0.000000000 -1.000000000
vn -0.000000000 -0.000000000 -1.000000000
vn -0.000000000 -0.000000000 -1.000000000
vn -0.000000000 -0.000000000 -1.000000000
vn -0.000000000 -0.000000000 -1.000000000
vn -0.000000000 -0.000000000 -1.000000000
vn -0.000000000 -0.000000000 -1.000000000
vn -0.000000000 -0.000000000 -1.000000000
vn -0.000000000 -0.000000000 -1.000000000
vn -0.000000000 -0.000000000 -1.000000000
vn 1.000000000 0.000000000 -0.000000000
vn 1.000000000 0.000000000 -0.000000000
vn 1.000000000 0.000000000 -0.000000000
vn 1.000000000 0.000000000 -0.000000000
vn 0.997203805 0.074729985 0.000000000
vn 0.997203805 0.074729985 0.000000000
vn 0.988830869 0.149041980 0.000000000
vn 0.988830869 0.149041980 0.000000000
vn 0.974927902 0.222520978 0.000000000
vn 0.974927902 0.222520978 0.000000000
vn 0.955572872 0.294754960 0.000000000
vn 0.955572872 0.294754960 0.000000000
vn 0.930873790 0.365340918 0.000000000
vn 0.930873790 0.365340918 0.000000000
vn 0.900968791 0.433883899 0.000000000
vn 0.900968791 0.433883899 0.000000000
vn 0.866025303 0.500000175 0.000000000
vn 0.866025303 0.500000175 0.000000000
vn 0.826238873 0.563319913 0.000000000
vn 0.826238873 0.563319913 0.000000000
vn 0.781831198 0.623490158 0.000000000
vn 0.781831198 0.623490158 0.000000000
vn 0.733051800 0.680172815 0.000000000
vn 0.733051800 0.680172815 0.000000000
vn 0.680172815 0.733051800 0.000000000
vn 0.680172815 0.733051800 0.000000000
vn 0.623490158 0.781831198 0.000000000
vn 0.623490158 0.781831198 0.000000000
vn 0.563319913 0.826238873 0.000000000
vn 0.563319913 0.826238873 0.000000000
vn 0.500000175 0.866025303 0.000000000
vn 0.500000175 0.866025303 0.000000000
vn 0.433883899 0.900968791 0.000000000
vn 0.433883899 0.900968791 0.000000000
vn 0.365340918 0.930873790 0.000000000
vn 0.365340918 0.930873790 0.000000000
vn 0.294754960 0.955572872 0.000000000
vn 0.294754960 0.955572872 0.000000000
vn 0.222520978 0.974927902 0.000000000
vn 0.222520978 0.974927902 0.000000000
vn 0.149041980 0.988830869 0.000000000
vn 0.149041980 0.988830869 0.000000000
vn 0.074729985 0.997203805 0.000000000
vn 0.074729985 0.997203805 0.000000000
vn -0.000000000 1.000000000 0.000000000
vn -0.000000000 1.000000000 0.000000000
vn -0.000000000 1.000000000 -0.000000000
vn -0.000000000 1.000000000 -0.000000000
vn -0.074729985 0.997203805 0.000000000
vn -0.074729985 0.997203805 0.000000000
vn -0.149041980 0.988830869 0.000000000
vn -0.149041980 0.988830869 0.000000000
vn -0.222520978 0.974927902 0.000000000
vn -0.222520978 0.974927902 0.000000000
vn -0.294754960 0.955572872 0.000000000
vn -0.294754960 0.955572872 0.000000000
vn -0.365340918 0.930873790 0.000000000
vn -0.365340918 0.930873790 0.000000000
vn -0.433883899 0.900968791 0.000000000
vn -0.433883899 0.900968791 0.000000000
vn -0.500000175 0.866025303 0.000000000
vn -0.500000175 0.866025303 0.000000000
vn -0.563319913 0.826238873 0.000000000
vn -0.563319913 0.826238873 0.000000000
vn -0.623490158 0.781831198 0.000000000
vn -0.623490158 0.781831198 0.000000000
vn -0.680172815 0.733051800 0.000000000
vn -0.680172815 0.733051800 0.000000000
vn -0.733051800 0.680172815 0.000000000
vn -0.733051800 0.680172815 0.000000000
vn -0.781831198 0.623490158 0.000000000
vn -0.781831198 0.623490158 0.000000000
vn -0.826238873 0.563319913 0.000000000
vn -0.826238873 0.563319913 0.000000000
vn -0.866025303 0.500000175 0.000000000
vn -0.866025303 0.500000175 0.000000000
vn -0.900968791 0.433883899 0.000000000
vn -0.900968791 0.433883899 0.000000000
vn -0.930873790 0.365340918 0.000000000
vn -0.930873790 0.365340918 0.000000000
vn -0.955572872 0.294754960 0.000000000
vn -0.955572872 0.294754960 0.000000000
vn -0.974927902 0.222520978 0.000000000
vn -0.974927902 0.222520978 0.000000000
vn -0.988830869 0.149041980 0.000000000
vn -0.988830869 0.149041980 0.000000000
vn -0.997203805 0.074729985 0.000000000
vn -0.997203805 0.074729985 0.000000000
vn -1.000000000 -0.000000000 0.000000000
vn -1.000000000 -0.000000000 0.000000000
vn -1.000000000 -0.000000000 0.000000000
vn -1.000000000 -0.000000000 0.000000000
vn -0.000000000 -1.000000000 -0.000000000
vn -0.000000000 -1.000000000 -0.000000000
vn -0.000000000 -1.000000000 -0.000000000
vn -0.000000000 -1.000000000 -0.000000000
vn -0.982973009 -0.183750002 -0.000000000
vn -0.982973009 -0.183750002 -0.000000000
vn -1.000000000 -0.000000000 -0.000000000
vn -1.000000000 -0.000000000 -0.000000000
vn -0.982973009 0.183750002 -0.000000000
vn -0.982973009 0.183750002 -0.000000000
vn -0.932472087 0.361242034 -0.000000000
vn -0.932472087 0.361242034 -0.000000000
vn -0.850217171 0.526432106 -0.000000000
vn -0.850217171 0.526432106 -0.000000000
vn -0.739008777 0.673695797 -0.000000000
vn -0.739008777 0.673695797 -0.000000000
vn -0.602634977 0.798016970 -0.000000000
vn -0.602634977 0.798016970 -0.000000000
vn -0.445738187 0.895163375 -0.000000000
vn -0.445738187 0.895163375 -0.000000000
vn -0.273662905 0.961825667 -0.000000000
vn -0.273662905 0.961825667 -0.000000000
vn -0.092268019 0.995734208 -0.000000000
vn -0.092268019 0.995734208 -0.000000000
vn 0.092268019 0.995734208 -0.000000000
vn 0.092268019 0.995734208 -0.000000000
vn 0.273662905 0.961825667 -0.000000000
vn 0.273662905 0.961825667 -0.000000000
vn 0.445738187 0.895163375 -0.000000000
vn 0.445738187 0.895163375 -0.000000000
vn 0.602634977 0.798016970 -0.000000000
vn 0.602634977 0.798016970 -0.000000000
vn 0.739008777 0.673695797 -0.000000000
vn 0.739008777 0.673695797 -0.000000000
vn 0.850217171 0.526432106 -0.000000000
vn 0.850217171 0.526432106 -0.000000000
vn 0.932472087 0.361242034 -0.000000000
vn 0.932472087 0.361242034 -0.000000000
vn 0.982973009 0.183750002 -0.000000000
vn 0.982973009 0.183750002 -0.000000000
vn 1.000000000 -0.000000000 -0.000000000
vn 1.000000000 -0.000000000 -0.000000000
vn 0.982973009 -0.183750002 -0.000000000
vn 0.982973009 -0.183750002 -0.000000000
vn 0.932472087 -0.361242034 -0.000000000
vn 0.932472087 -0.361242034 -0.000000000
vn 0.850217171 -0.526432106 -0.000000000
vn 0.850217171 -0.526432106 -0.000000000
vn 0.739008777 -0.673695797 -0.000000000
vn 0.739008777 -0.673695797 -0.000000000
vn 0.602634977 -0.798016970 -0.000000000
vn 0.602634977 -0.798016970 -0.000000000
vn 0.445738187 -0.895163375 -0.000000000
vn 0.445738187 -0.895163375 -0.000000000
vn 0.273662905 -0.961825667 -0.000000000
vn 0.273662905 -0.961825667 -0.000000000
vn 0.092268019 -0.995734208 -0.000000000
vn 0.092268019 -0.995734208 -0.000000000
vn -0.092268019 -0.995734208 -0.000000000
vn -0.092268019 -0.995734208 -0.000000000
vn -0.273662905 -0.961825667 -0.000000000
vn -0.273662905 -0.961825667 -0.000000000
vn -0.445738187 -0.895163375 -0.000000000
vn -0.445738187 -0.895163375 -0.000000000
vn -0.602634977 -0.798016970 -0.000000000
vn -0.602634977 -0.798016970 -0.000000000
vn -0.739008777 -0.673695797 -0.000000000
vn -0.739008777 -0.673695797 -0.000000000
vn -0.850217171 -0.526432106 -0.000000000
vn -0.850217171 -0.526432106 -0.000000000
vn -0.932472087 -0.361242034 -0.000000000
vn -0.932472087 -0.361242034 -0.000000000
usemtl 강철_-_새틴
f 2/1/1 47/2/2 1/3/3
f 1/3/3 47/2/2 48/4/4
f 1/3/3 48/4/4 49/5/5
f 3/6/6 79/7/7 2/1/1
f 2/1/1 79/7/7 80/8/8
f 2/1/1 80/8/8 47/2/2
f 4/9/9 76/10/10 3/6/6
f 3/6/6 76/10/10 77/11/11
f 3/6/6 77/11/11 78/12/12
f 5/13/13 73/14/14 4/9/9
f 4/9/9 73/14/14 74/15/15
f 4/9/9 74/15/15 75/16/16
f 6/17/17 7/18/18 5/13/13
f 5/13/13 7/18/18 8/19/19
f 5/13/13 8/19/19 9/20/20
f 9/20/20 10/21/21 5/13/13
f 5/13/13 10/21/21 11/22/22
f 5/13/13 11/22/22 12/23/23
f 12/23/23 13/24/24 5/13/13
f 5/13/13 13/24/24 14/25/25
f 5/13/13 14/25/25 15/26/26
f 15/26/26 16/27/27 5/13/13
f 5/13/13 16/27/27 17/28/28
f 5/13/13 17/28/28 18/29/29
f 18/29/29 19/30/30 5/13/13
f 5/13/13 19/30/30 20/31/31
f 5/13/13 20/31/31 21/32/32
f 21/32/32 22/33/33 5/13/13
f 5/13/13 22/33/33 23/34/34
f 5/13/13 23/34/34 24/35/35
f 5/13/13 24/35/35 42/36/36
f 42/36/36 24/35/35 25/37/37
f 42/36/36 25/37/37 26/38/38
f 26/38/38 27/39/39 42/36/36
f 42/36/36 27/39/39 28/40/40
f 42/36/36 28/40/40 29/41/41
f 29/41/41 30/42/42 42/36/36
f 42/36/36 30/42/42 31/43/43
f 42/36/36 31/43/43 32/44/44
f 32/44/44 33/45/45 42/36/36
f 42/36/36 33/45/45 34/46/46
f 42/36/36 34/46/46 35/47/47
f 35/47/47 36/48/48 42/36/36
f 42/36/36 36/48/48 41/49/49
f 41/49/49 36/48/48 37/50/50
f 41/49/49 37/50/50 38/51/51
f 38/51/51 39/52/52 41/49/49
f 41/49/49 39/52/52 40/53/53
f 43/54/54 72/55/55 42/36/36
f 42/36/36 72/55/55 73/14/14
f 42/36/36 73/14/14 5/13/13
f 44/56/56 69/57/57 43/54/54
f 43/54/54 69/57/57 70/58/58
f 43/54/54 70/58/58 71/59/59
f 45/60/60 66/61/61 44/56/56
f 44/56/56 66/61/61 67/62/62
f 44/56/56 67/62/62 68/63/63
f 46/64/64 63/65/65 45/60/60
f 45/60/60 63/65/65 64/66/66
f 45/60/60 64/66/66 65/67/67
f 1/3/3 56/68/68 46/64/64
f 46/64/64 56/68/68 57/69/69
f 46/64/64 57/69/69 58/70/70
f 49/5/5 50/71/71 1/3/3
f 1/3/3 50/71/71 51/72/72
f 1/3/3 51/72/72 52/73/73
f 52/73/73 53/74/74 1/3/3
f 1/3/3 53/74/74 54/75/75
f 1/3/3 54/75/75 55/76/76
f 55/76/76 56/68/68 1/3/3
f 58/70/70 59/77/77 46/64/64
f 46/64/64 59/77/77 60/78/78
f 46/64/64 60/78/78 61/79/79
f 61/79/79 62/80/80 46/64/64
f 46/64/64 62/80/80 63/65/65
f 65/67/67 66/61/61 45/60/60
f 68/63/63 69/57/57 44/56/56
f 71/59/59 72/55/55 43/54/54
f 75/16/16 76/10/10 4/9/9
f 78/12/12 79/7/7 3/6/6
f 82/81/81 160/82/82 81/83/83
f 81/83/83 160/82/82 127/84/84
f 81/83/83 127/84/84 128/85/85
f 83/86/86 153/87/87 82/81/81
f 82/81/81 153/87/87 154/88/88
f 82/81/81 154/88/88 155/89/89
f 84/90/90 148/91/91 83/86/86
f 83/86/86 148/91/91 149/92/92
f 83/86/86 149/92/92 150/93/93
f 85/94/94 86/95/95 84/90/90
f 84/90/90 86/95/95 87/96/96
f 84/90/90 87/96/96 144/97/97
f 144/97/97 87/96/96 143/98/98
f 143/98/98 87/96/96 142/99/99
f 142/99/99 87/96/96 141/100/100
f 141/100/100 87/96/96 140/101/101
f 140/101/101 87/96/96 139/102/102
f 139/102/102 87/96/96 138/103/103
f 138/103/103 87/96/96 137/104/104
f 137/104/104 87/96/96 136/105/105
f 136/105/105 87/96/96 124/106/106
f 136/105/105 124/106/106 135/107/107
f 135/107/107 124/106/106 125/108/108
f 135/107/107 125/108/108 134/109/109
f 134/109/109 125/108/108 133/110/110
f 133/110/110 125/108/108 132/111/111
f 132/111/111 125/108/108 126/112/112
f 132/111/111 126/112/112 131/113/113
f 131/113/113 126/112/112 130/114/114
f 130/114/114 126/112/112 129/115/115
f 129/115/115 126/112/112 81/83/83
f 129/115/115 81/83/83 128/85/85
f 124/106/106 87/96/96 123/116/116
f 123/116/116 87/96/96 88/117/117
f 123/116/116 88/117/117 106/118/118
f 106/118/118 88/117/117 105/119/119
f 105/119/119 88/117/117 104/120/120
f 104/120/120 88/117/117 103/121/121
f 103/121/121 88/117/117 102/122/122
f 102/122/122 88/117/117 101/123/123
f 101/123/123 88/117/117 100/124/124
f 100/124/124 88/117/117 99/125/125
f 99/125/125 88/117/117 98/126/126
f 98/126/126 88/117/117 97/127/127
f 97/127/127 88/117/117 96/128/128
f 96/128/128 88/117/117 95/129/129
f 95/129/129 88/117/117 94/130/130
f 94/130/130 88/117/117 93/131/131
f 93/131/131 88/117/117 92/132/132
f 92/132/132 88/117/117 91/133/133
f 91/133/133 88/117/117 90/134/134
f 90/134/134 88/117/117 89/135/135
f 106/118/118 107/136/136 123/116/116
f 123/116/116 107/136/136 108/137/137
f 123/116/116 108/137/137 109/138/138
f 109/138/138 110/139/139 123/116/116
f 123/116/116 110/139/139 111/140/140
f 123/116/116 111/140/140 112/141/141
f 112/141/141 113/142/142 123/116/116
f 123/116/116 113/142/142 114/143/143
f 123/116/116 114/143/143 115/144/144
f 115/144/144 116/145/145 123/116/116
f 123/116/116 116/145/145 117/146/146
f 123/116/116 117/146/146 118/147/147
f 118/147/147 119/148/148 123/116/116
f 123/116/116 119/148/148 120/149/149
f 123/116/116 120/149/149 121/150/150
f 121/150/150 122/151/151 123/116/116
f 144/97/97 145/152/152 84/90/90
f 84/90/90 145/152/152 146/153/153
f 84/90/90 146/153/153 147/154/154
f 147/154/154 148/91/91 84/90/90
f 150/93/93 151/155/155 83/86/86
f 83/86/86 151/155/155 152/156/156
f 83/86/86 152/156/156 153/87/87
f 155/89/89 156/157/157 82/81/81
f 82/81/81 156/157/157 157/158/158
f 82/81/81 157/158/158 158/159/159
f 158/159/159 159/160/160 82/81/81
f 82/81/81 159/160/160 160/82/82
f 81/161/161 2/162/162 82/163/163
f 82/163/163 2/162/162 1/164/164
f 2/165/162 81/166/161 3/167/165
f 3/167/165 81/166/161 126/168/166
f 3/167/165 126/168/166 4/169/167
f 4/169/167 126/168/166 125/170/168
f 4/169/167 125/170/168 5/171/169
f 5/171/169 125/170/168 124/172/170
f 5/171/169 124/172/170 6/173/171
f 6/173/171 124/172/170 123/174/172
f 6/173/171 123/174/172 7/175/173
f 7/175/173 123/174/172 122/176/174
f 7/175/173 122/176/174 8/177/175
f 8/177/175 122/176/174 121/178/176
f 8/177/175 121/178/176 9/179/177
f 9/179/177 121/178/176 120/180/178
f 9/179/177 120/180/178 10/181/179
f 10/181/179 120/180/178 119/182/180
f 10/181/179 119/182/180 11/183/181
f 11/183/181 119/182/180 118/184/182
f 11/183/181 118/184/182 12/185/183
f 12/185/183 118/184/182 117/186/184
f 12/185/183 117/186/184 13/187/185
f 13/187/185 117/186/184 116/188/186
f 13/187/185 116/188/186 14/189/187
f 14/189/187 116/188/186 115/190/188
f 14/189/187 115/190/188 15/191/189
f 15/191/189 115/190/188 114/192/190
f 15/191/189 114/192/190 16/193/191
f 16/193/191 114/192/190 113/194/192
f 16/193/191 113/194/192 17/195/193
f 17/195/193 113/194/192 112/196/194
f 17/195/193 112/196/194 18/197/195
f 18/197/195 112/196/194 111/198/196
f 18/197/195 111/198/196 19/199/197
f 19/199/197 111/198/196 110/200/198
f 19/199/197 110/200/198 20/201/199
f 20/201/199 110/200/198 109/202/200
f 20/201/199 109/202/200 21/203/201
f 21/203/201 109/202/200 108/204/202
f 21/203/201 108/204/202 22/205/203
f 22/205/203 108/204/202 107/206/204
f 22/205/203 107/206/204 23/207/205
f 23/207/205 107/206/204 106/208/206
f 105/209/207 24/210/208 106/211/206
f 106/211/206 24/210/208 23/212/205
f 24/213/208 105/214/207 25/215/209
f 25/215/209 105/214/207 104/216/210
f 25/215/209 104/216/210 26/217/211
f 26/217/211 104/216/210 103/218/212
f 26/217/211 103/218/212 27/219/213
f 27/219/213 103/218/212 102/220/214
f 27/219/213 102/220/214 28/221/215
f 28/221/215 102/220/214 101/222/216
f 28/221/215 101/222/216 29/223/217
f 29/223/217 101/222/216 100/224/218
f 29/223/217 100/224/218 30/225/219
f 30/225/219 100/224/218 99/226/220
f 30/225/219 99/226/220 31/227/221
f 31/227/221 99/226/220 98/228/222
f 31/227/221 98/228/222 32/229/223
f 32/229/223 98/228/222 97/230/224
f 32/229/223 97/230/224 33/231/225
f 33/231/225 97/230/224 96/232/226
f 33/231/225 96/232/226 34/233/227
f 34/233/227 96/232/226 95/234/228
f 34/233/227 95/234/228 35/235/229
f 35/235/229 95/234/228 94/236/230
f 35/235/229 94/236/230 36/237/231
f 36/237/231 94/236/230 93/238/232
f 36/237/231 93/238/232 37/239/233
f 37/239/233 93/238/232 92/240/234
f 37/239/233 92/240/234 38/241/235
f 38/241/235 92/240/234 91/242/236
f 38/241/235 91/242/236 39/243/237
f 39/243/237 91/242/236 90/244/238
f 39/243/237 90/244/238 40/245/239
f 40/245/239 90/244/238 89/246/240
f 40/245/239 89/246/240 41/247/241
f 41/247/241 89/246/240 88/248/242
f 41/247/241 88/248/242 42/249/243
f 42/249/243 88/248/242 87/250/244
f 42/249/243 87/250/244 43/251/245
f 43/251/245 87/250/244 86/252/246
f 43/251/245 86/252/246 44/253/247
f 44/253/247 86/252/246 85/254/248
f 44/253/247 85/254/248 45/255/249
f 45/255/249 85/254/248 84/256/250
f 83/257/251 46/258/252 84/259/250
f 84/259/250 46/258/252 45/260/249
f 82/261/253 1/262/254 83/263/255
f 83/263/255 1/262/254 46/264/256
f 80/265/257 128/266/258 47/267/259
f 47/267/259 128/266/258 127/268/260
f 47/269/259 127/270/260 48/271/261
f 48/271/261 127/270/260 160/272/262
f 48/271/261 160/272/262 49/273/263
f 49/273/263 160/272/262 159/274/264
f 49/273/263 159/274/264 50/275/265
f 50/275/265 159/274/264 158/276/266
f 50/275/265 158/276/266 51/277/267
f 51/277/267 158/276/266 157/278/268
f 51/277/267 157/278/268 52/279/269
f 52/279/269 157/278/268 156/280/270
f 52/279/269 156/280/270 53/281/271
f 53/281/271 156/280/270 155/282/272
f 53/281/271 155/282/272 54/283/273
f 54/283/273 155/282/272 154/284/274
f 54/283/273 154/284/274 55/285/275
f 55/285/275 154/284/274 153/286/276
f 55/285/275 153/286/276 56/287/277
f 56/287/277 153/286/276 152/288/278
f 56/287/277 152/288/278 57/289/279
f 57/289/279 152/288/278 151/290/280
f 57/289/279 151/290/280 58/291/281
f 58/291/281 151/290/280 150/292/282
f 58/291/281 150/292/282 59/293/283
f 59/293/283 150/292/282 149/294/284
f 59/293/283 149/294/284 60/295/285
f 60/295/285 149/294/284 148/296/286
f 60/295/285 148/296/286 61/297/287
f 61/297/287 148/296/286 147/298/288
f 61/297/287 147/298/288 62/299/289
f 62/299/289 147/298/288 146/300/290
f 62/299/289 146/300/290 63/301/291
f 63/301/291 146/300/290 145/302/292
f 63/301/291 145/302/292 64/303/293
f 64/303/293 145/302/292 144/304/294
f 64/303/293 144/304/294 65/305/295
f 65/305/295 144/304/294 143/306/296
f 65/305/295 143/306/296 66/307/297
f 66/307/297 143/306/296 142/308/298
f 66/307/297 142/308/298 67/309/299
f 67/309/299 142/308/298 141/310/300
f 67/309/299 141/310/300 68/311/301
f 68/311/301 141/310/300 140/312/302
f 68/311/301 140/312/302 69/313/303
f 69/313/303 140/312/302 139/314/304
f 69/313/303 139/314/304 70/315/305
f 70/315/305 139/314/304 138/316/306
f 70/315/305 138/316/306 71/317/307
f 71/317/307 138/316/306 137/318/308
f 71/317/307 137/318/308 72/319/309
f 72/319/309 137/318/308 136/320/310
f 72/319/309 136/320/310 73/321/311
f 73/321/311 136/320/310 135/322/312
f 73/321/311 135/322/312 74/323/313
f 74/323/313 135/322/312 134/324/314
f 74/323/313 134/324/314 75/325/315
f 75/325/315 134/324/314 133/326/316
f 75/325/315 133/326/316 76/327/317
f 76/327/317 133/326/316 132/328/318
f 76/327/317 132/328/318 77/329/319
f 77/329/319 132/328/318 131/330/320
f 77/329/319 131/330/320 78/331/321
f 78/331/321 131/330/320 130/332/322
f 78/331/321 130/332/322 79/333/323
f 79/333/323 130/332/322 129/334/324
f 79/333/323 129/334/324 80/265/257
f 80/265/257 129/334/324 128/266/258
# 160 vertices
# 334 texture params
# 324 normals
# 320 facets

# 1 groups
