# WaveFront *.obj file (generated by Autodesk ATF)

mtllib slider_guide_frame_1.mtl

g 본체1

v 0.107556920 -0.060000000 0.005000000
v 0.107556920 0.060000000 0.005000000
v -0.107556920 0.060000000 0.005000000
v -0.107556920 -0.060000000 0.005000000
v 0.092083770 0.031660590 0.005000000
v -0.094400170 0.031660590 0.005000000
v -0.094400170 0.052660590 0.005000000
v 0.092083770 0.052660590 0.005000000
v 0.107556920 0.060000000 0.000000000
v 0.107556920 -0.060000000 0.000000000
v -0.107556920 -0.060000000 0.000000000
v -0.107556920 0.060000000 0.000000000
v -0.094400170 0.052660590 0.000000000
v -0.094400170 0.031660590 0.000000000
v 0.092083770 0.031660590 0.000000000
v 0.092083770 0.052660590 0.000000000
vt -10.755692 -6.000000 0.000000
vt 10.755692 -6.000000 0.000000
vt 9.208377 3.166059 0.000000
vt 10.755692 6.000000 0.000000
vt 9.208377 5.266059 0.000000
vt -10.755692 6.000000 0.000000
vt -9.440017 5.266059 0.000000
vt -9.440017 3.166059 0.000000
vt -10.755692 -6.000000 0.000000
vt -9.208377 3.166059 0.000000
vt -10.755692 6.000000 0.000000
vt -9.208377 5.266059 0.000000
vt 10.755692 6.000000 0.000000
vt 9.440017 5.266059 0.000000
vt 9.440017 3.166059 0.000000
vt 10.755692 -6.000000 0.000000
vt 0.500000 0.000000 0.000000
vt -0.000000 0.000000 0.000000
vt 0.500000 -12.000000 0.000000
vt -0.000000 -12.000000 0.000000
vt -0.500000 0.000000 0.000000
vt -0.000000 0.000000 0.000000
vt -0.500000 21.511383 0.000000
vt -0.000000 21.511383 0.000000
vt -0.500000 -12.000000 0.000000
vt 0.000000 -12.000000 0.000000
vt -0.500000 0.000000 0.000000
vt -0.000000 0.000000 0.000000
vt 0.500000 21.511383 0.000000
vt -0.000000 21.511383 0.000000
vt 0.500000 0.000000 0.000000
vt -0.000000 0.000000 0.000000
vt 0.500000 0.000000 0.000000
vt 0.000000 0.000000 0.000000
vt 0.500000 -2.100000 0.000000
vt -0.000000 -2.100000 0.000000
vt -0.500000 0.000000 0.000000
vt 0.000000 0.000000 0.000000
vt -0.500000 18.648394 0.000000
vt 0.000000 18.648394 0.000000
vt -0.500000 -2.100000 0.000000
vt 0.000000 -2.100000 0.000000
vt -0.500000 0.000000 0.000000
vt 0.000000 0.000000 0.000000
vt 0.500000 18.648394 0.000000
vt 0.000000 18.648394 0.000000
vt 0.500000 0.000000 0.000000
vt 0.000000 0.000000 0.000000
vn -0.000000000 0.000000000 1.000000000
vn -0.000000000 0.000000000 1.000000000
vn -0.000000000 0.000000000 1.000000000
vn -0.000000000 0.000000000 1.000000000
vn -0.000000000 0.000000000 1.000000000
vn -0.000000000 0.000000000 1.000000000
vn -0.000000000 0.000000000 1.000000000
vn -0.000000000 0.000000000 1.000000000
vn 0.000000000 -0.000000000 -1.000000000
vn 0.000000000 -0.000000000 -1.000000000
vn 0.000000000 -0.000000000 -1.000000000
vn 0.000000000 -0.000000000 -1.000000000
vn 0.000000000 -0.000000000 -1.000000000
vn 0.000000000 -0.000000000 -1.000000000
vn 0.000000000 -0.000000000 -1.000000000
vn 0.000000000 -0.000000000 -1.000000000
vn 1.000000000 0.000000000 -0.000000000
vn 1.000000000 0.000000000 -0.000000000
vn 1.000000000 0.000000000 -0.000000000
vn 1.000000000 0.000000000 -0.000000000
vn -0.000000000 1.000000000 -0.000000000
vn -0.000000000 1.000000000 -0.000000000
vn -0.000000000 1.000000000 -0.000000000
vn -0.000000000 1.000000000 -0.000000000
vn -1.000000000 -0.000000000 0.000000000
vn -1.000000000 -0.000000000 0.000000000
vn -1.000000000 -0.000000000 0.000000000
vn -1.000000000 -0.000000000 0.000000000
vn -0.000000000 -1.000000000 -0.000000000
vn -0.000000000 -1.000000000 -0.000000000
vn -0.000000000 -1.000000000 -0.000000000
vn -0.000000000 -1.000000000 -0.000000000
vn 1.000000000 0.000000000 -0.000000000
vn 1.000000000 0.000000000 -0.000000000
vn 1.000000000 0.000000000 -0.000000000
vn 1.000000000 0.000000000 -0.000000000
vn 0.000000000 1.000000000 0.000000000
vn 0.000000000 1.000000000 0.000000000
vn 0.000000000 1.000000000 0.000000000
vn 0.000000000 1.000000000 0.000000000
vn -1.000000000 0.000000000 0.000000000
vn -1.000000000 0.000000000 0.000000000
vn -1.000000000 0.000000000 0.000000000
vn -1.000000000 0.000000000 0.000000000
vn 0.000000000 -1.000000000 0.000000000
vn 0.000000000 -1.000000000 0.000000000
vn 0.000000000 -1.000000000 0.000000000
vn 0.000000000 -1.000000000 0.000000000
usemtl 강철_-_새틴
f 4/1/1 1/2/2 5/3/3
f 5/3/3 1/2/2 2/4/4
f 5/3/3 2/4/4 8/5/5
f 8/5/5 2/4/4 3/6/6
f 8/5/5 3/6/6 7/7/7
f 7/7/7 3/6/6 6/8/8
f 6/8/8 3/6/6 4/1/1
f 6/8/8 4/1/1 5/3/3
f 10/9/9 15/10/10 9/11/11
f 9/11/11 15/10/10 16/12/12
f 9/11/11 16/12/12 12/13/13
f 12/13/13 16/12/12 13/14/14
f 12/13/13 13/14/14 14/15/15
f 10/9/9 11/16/16 15/10/10
f 15/10/10 11/16/16 14/15/15
f 14/15/15 11/16/16 12/13/13
f 9/17/17 2/18/18 10/19/19
f 10/19/19 2/18/18 1/20/20
f 12/21/21 3/22/22 9/23/23
f 9/23/23 3/22/22 2/24/24
f 11/25/25 4/26/26 12/27/27
f 12/27/27 4/26/26 3/28/28
f 10/29/29 1/30/30 11/31/31
f 11/31/31 1/30/30 4/32/32
f 13/33/33 7/34/34 14/35/35
f 14/35/35 7/34/34 6/36/36
f 14/37/37 6/38/38 15/39/39
f 15/39/39 6/38/38 5/40/40
f 15/41/41 5/42/42 16/43/43
f 16/43/43 5/42/42 8/44/44
f 16/45/45 8/46/46 13/47/47
f 13/47/47 8/46/46 7/48/48
# 16 vertices
# 48 texture params
# 48 normals
# 32 facets

# 1 groups
