# WaveFront *.obj file (generated by Autodesk ATF)

mtllib slider_block_1.mtl

g 본체1

v 0.020000000 -0.010000000 0.005000000
v 0.020000000 -0.010000000 0.000000000
v 0.020000000 -0.012500000 0.000000000
v 0.020000000 -0.012500000 -0.005000000
v 0.020000000 0.012500000 -0.005000000
v 0.020000000 0.012500000 0.000000000
v 0.020000000 0.010000000 0.000000000
v 0.020000000 0.010000000 0.005000000
v -0.020000000 0.010000000 0.000000000
v -0.020000000 0.010000000 0.005000000
v -0.020000000 0.012500000 0.000000000
v -0.020000000 0.012500000 -0.005000000
v -0.020000000 -0.012500000 -0.005000000
v -0.020000000 -0.012500000 0.000000000
v -0.020000000 -0.010000000 0.000000000
v -0.020000000 -0.010000000 0.005000000
v 0.002800000 0.000000000 0.005000000
v 0.002770160 -0.000407680 0.005000000
v 0.002681280 -0.000806680 0.005000000
v 0.002535260 -0.001188480 0.005000000
v 0.002335190 -0.001544950 0.005000000
v 0.002085360 -0.001868490 0.005000000
v 0.001791080 -0.002152210 0.005000000
v 0.001458630 -0.002390060 0.005000000
v 0.001095090 -0.002576970 0.005000000
v 0.000708210 -0.002708950 0.005000000
v 0.000306240 -0.002783200 0.005000000
v -0.000102260 -0.002798130 0.005000000
v -0.000508580 -0.002753420 0.005000000
v -0.000904070 -0.002650030 0.005000000
v -0.001280280 -0.002490160 0.005000000
v -0.001629200 -0.002277210 0.005000000
v -0.001943410 -0.002015730 0.005000000
v -0.002216190 -0.001711290 0.005000000
v -0.002441740 -0.001370370 0.005000000
v -0.002615250 -0.001000250 0.005000000
v -0.002733010 -0.000608800 0.005000000
v -0.002792530 -0.000204390 0.005000000
v -0.002792530 0.000204390 0.005000000
v -0.002733010 0.000608800 0.005000000
v -0.002615250 0.001000250 0.005000000
v -0.002441740 0.001370370 0.005000000
v -0.002216190 0.001711290 0.005000000
v -0.001943410 0.002015730 0.005000000
v -0.001629200 0.002277210 0.005000000
v -0.001280280 0.002490160 0.005000000
v -0.000904070 0.002650030 0.005000000
v -0.000508580 0.002753420 0.005000000
v -0.000102260 0.002798130 0.005000000
v 0.000306240 0.002783200 0.005000000
v 0.000708210 0.002708950 0.005000000
v 0.001095090 0.002576970 0.005000000
v 0.001458630 0.002390060 0.005000000
v 0.001791080 0.002152210 0.005000000
v 0.002085360 0.001868490 0.005000000
v 0.002335190 0.001544950 0.005000000
v 0.002535260 0.001188480 0.005000000
v 0.002681280 0.000806680 0.005000000
v 0.002770160 0.000407680 0.005000000
v 0.002800000 0.000000000 0.000000000
v 0.002770160 -0.000407680 0.000000000
v 0.002681280 -0.000806680 0.000000000
v 0.002535260 -0.001188480 0.000000000
v 0.002335190 -0.001544950 0.000000000
v 0.002085360 -0.001868490 0.000000000
v 0.001791080 -0.002152210 0.000000000
v 0.001458630 -0.002390060 0.000000000
v 0.001095090 -0.002576970 0.000000000
v 0.000708210 -0.002708950 0.000000000
v 0.000306240 -0.002783200 0.000000000
v -0.000102260 -0.002798130 0.000000000
v -0.000508580 -0.002753420 0.000000000
v -0.000904070 -0.002650030 0.000000000
v -0.001280280 -0.002490160 0.000000000
v -0.001629200 -0.002277210 0.000000000
v -0.001943410 -0.002015730 0.000000000
v -0.002216190 -0.001711290 0.000000000
v -0.002441740 -0.001370370 0.000000000
v -0.002615250 -0.001000250 0.000000000
v -0.002733010 -0.000608800 0.000000000
v -0.002792530 -0.000204390 0.000000000
v -0.002792530 0.000204390 0.000000000
v -0.002733010 0.000608800 0.000000000
v -0.002615250 0.001000250 0.000000000
v -0.002441740 0.001370370 0.000000000
v -0.002216190 0.001711290 0.000000000
v -0.001943410 0.002015730 0.000000000
v -0.001629200 0.002277210 0.000000000
v -0.001280280 0.002490160 0.000000000
v -0.000904070 0.002650030 0.000000000
v -0.000508580 0.002753420 0.000000000
v -0.000102260 0.002798130 0.000000000
v 0.000306240 0.002783200 0.000000000
v 0.000708210 0.002708950 0.000000000
v 0.001095090 0.002576970 0.000000000
v 0.001458630 0.002390060 0.000000000
v 0.001791080 0.002152210 0.000000000
v 0.002085360 0.001868490 0.000000000
v 0.002335190 0.001544950 0.000000000
v 0.002535260 0.001188480 0.000000000
v 0.002681280 0.000806680 0.000000000
v 0.002770160 0.000407680 0.000000000
vt -0.000000 -1.000000 0.000000
vt 0.500000 -1.000000 0.000000
vt 0.000000 1.000000 0.000000
vt 0.500000 1.000000 0.000000
vt 1.000000 -1.250000 0.000000
vt 1.000000 1.250000 0.000000
vt 0.500000 -1.250000 0.000000
vt 0.500000 1.250000 0.000000
vt -0.500000 -2.000000 0.000000
vt 0.000000 -2.000000 0.000000
vt -0.500000 2.000000 0.000000
vt 0.000000 2.000000 0.000000
vt -0.000000 1.000000 0.000000
vt -0.500000 1.000000 0.000000
vt 0.000000 -1.000000 0.000000
vt -0.500000 -1.000000 0.000000
vt -1.000000 -1.250000 0.000000
vt -0.500000 -1.250000 0.000000
vt -0.500000 1.250000 0.000000
vt -1.000000 1.250000 0.000000
vt 0.500000 2.000000 0.000000
vt -0.000000 2.000000 0.000000
vt 0.500000 -2.000000 0.000000
vt -0.000000 -2.000000 0.000000
vt 2.000000 1.000000 0.000000
vt 0.280000 0.000000 0.000000
vt 2.000000 -1.000000 0.000000
vt 0.277016 -0.040768 0.000000
vt 0.268128 -0.080668 0.000000
vt -2.000000 1.000000 0.000000
vt -0.010226 0.279813 0.000000
vt 0.030624 0.278320 0.000000
vt 0.070821 0.270895 0.000000
vt -2.000000 -1.000000 0.000000
vt -0.279253 0.020439 0.000000
vt -0.273301 0.060880 0.000000
vt -0.261525 0.100025 0.000000
vt -0.010226 -0.279813 0.000000
vt -0.050858 -0.275342 0.000000
vt -0.090407 -0.265003 0.000000
vt 0.253526 -0.118848 0.000000
vt 0.233519 -0.154495 0.000000
vt 0.208536 -0.186849 0.000000
vt 0.179108 -0.215221 0.000000
vt 0.145863 -0.239006 0.000000
vt 0.109509 -0.257697 0.000000
vt 0.070821 -0.270895 0.000000
vt 0.030624 -0.278320 0.000000
vt -0.128028 -0.249016 0.000000
vt -0.162920 -0.227721 0.000000
vt -0.194341 -0.201573 0.000000
vt -0.221619 -0.171129 0.000000
vt -0.244174 -0.137037 0.000000
vt -0.261525 -0.100025 0.000000
vt -0.273301 -0.060880 0.000000
vt -0.279253 -0.020439 0.000000
vt -0.244174 0.137037 0.000000
vt -0.221619 0.171129 0.000000
vt -0.194341 0.201573 0.000000
vt -0.162920 0.227721 0.000000
vt -0.128028 0.249016 0.000000
vt -0.090407 0.265003 0.000000
vt -0.050858 0.275342 0.000000
vt 0.109509 0.257697 0.000000
vt 0.145863 0.239006 0.000000
vt 0.179108 0.215221 0.000000
vt 0.208536 0.186849 0.000000
vt 0.233519 0.154495 0.000000
vt 0.253526 0.118848 0.000000
vt 0.268128 0.080668 0.000000
vt 0.277016 0.040768 0.000000
vt 2.000000 -1.000000 0.000000
vt -2.000000 -1.000000 0.000000
vt 2.000000 -1.250000 0.000000
vt -2.000000 -1.250000 0.000000
vt -0.500000 -2.000000 0.000000
vt 0.000000 -2.000000 0.000000
vt -0.500000 2.000000 0.000000
vt 0.000000 2.000000 0.000000
vt 0.500000 2.000000 0.000000
vt -0.000000 2.000000 0.000000
vt 0.500000 -2.000000 0.000000
vt -0.000000 -2.000000 0.000000
vt -2.000000 -1.250000 0.000000
vt 2.000000 -1.250000 0.000000
vt -2.000000 1.250000 0.000000
vt 2.000000 1.250000 0.000000
vt -2.000000 1.000000 0.000000
vt 2.000000 1.000000 0.000000
vt -2.000000 1.250000 0.000000
vt 2.000000 1.250000 0.000000
vt 0.000000 -0.040914 0.000000
vt 0.500000 0.000000 0.000000
vt 0.000000 0.000000 0.000000
vt 0.500000 0.040914 0.000000
vt 0.000000 0.040914 0.000000
vt 0.500000 0.081828 0.000000
vt 0.000000 0.081828 0.000000
vt 0.500000 0.122741 0.000000
vt 0.000000 0.122741 0.000000
vt 0.500000 0.163655 0.000000
vt 0.000000 0.163655 0.000000
vt 0.500000 0.204569 0.000000
vt 0.000000 0.204569 0.000000
vt 0.500000 0.245483 0.000000
vt 0.000000 0.245483 0.000000
vt 0.500000 0.286396 0.000000
vt 0.000000 0.286396 0.000000
vt 0.500000 0.327310 0.000000
vt 0.000000 0.327310 0.000000
vt 0.500000 0.368224 0.000000
vt 0.000000 0.368224 0.000000
vt 0.500000 0.409138 0.000000
vt 0.000000 0.409138 0.000000
vt 0.500000 0.450051 0.000000
vt 0.000000 0.450051 0.000000
vt 0.500000 0.490965 0.000000
vt 0.000000 0.490965 0.000000
vt 0.500000 0.531879 0.000000
vt 0.000000 0.531879 0.000000
vt 0.500000 0.572793 0.000000
vt 0.000000 0.572793 0.000000
vt 0.500000 0.613706 0.000000
vt 0.000000 0.613706 0.000000
vt 0.500000 0.654620 0.000000
vt 0.000000 0.654620 0.000000
vt 0.500000 0.695534 0.000000
vt 0.000000 0.695534 0.000000
vt 0.500000 0.736448 0.000000
vt 0.000000 0.736448 0.000000
vt 0.500000 0.777362 0.000000
vt 0.000000 0.777362 0.000000
vt 0.500000 0.818275 0.000000
vt 0.000000 0.818275 0.000000
vt 0.500000 0.859189 0.000000
vt 0.000000 0.859189 0.000000
vt 0.000000 -0.900103 0.000000
vt 0.500000 -0.900103 0.000000
vt 0.500000 -0.859189 0.000000
vt 0.000000 -0.859189 0.000000
vt 0.500000 -0.818275 0.000000
vt 0.000000 -0.818275 0.000000
vt 0.500000 -0.777362 0.000000
vt 0.000000 -0.777362 0.000000
vt 0.500000 -0.736448 0.000000
vt 0.000000 -0.736448 0.000000
vt 0.500000 -0.695534 0.000000
vt 0.000000 -0.695534 0.000000
vt 0.500000 -0.654620 0.000000
vt 0.000000 -0.654620 0.000000
vt 0.500000 -0.613706 0.000000
vt 0.000000 -0.613706 0.000000
vt 0.500000 -0.572793 0.000000
vt 0.000000 -0.572793 0.000000
vt 0.500000 -0.531879 0.000000
vt 0.000000 -0.531879 0.000000
vt 0.500000 -0.490965 0.000000
vt 0.000000 -0.490965 0.000000
vt 0.500000 -0.450051 0.000000
vt 0.000000 -0.450051 0.000000
vt 0.500000 -0.409138 0.000000
vt 0.000000 -0.409138 0.000000
vt 0.500000 -0.368224 0.000000
vt 0.000000 -0.368224 0.000000
vt 0.500000 -0.327310 0.000000
vt 0.000000 -0.327310 0.000000
vt 0.500000 -0.286396 0.000000
vt 0.000000 -0.286396 0.000000
vt 0.500000 -0.245483 0.000000
vt 0.000000 -0.245483 0.000000
vt 0.500000 -0.204569 0.000000
vt 0.000000 -0.204569 0.000000
vt 0.500000 -0.163655 0.000000
vt 0.000000 -0.163655 0.000000
vt 0.500000 -0.122741 0.000000
vt 0.000000 -0.122741 0.000000
vt 0.500000 -0.081828 0.000000
vt 0.000000 -0.081828 0.000000
vt 0.500000 -0.040914 0.000000
vt 0.280000 0.000000 0.000000
vt 0.277016 0.040768 0.000000
vt 0.277016 -0.040768 0.000000
vt 0.268128 0.080668 0.000000
vt 0.268128 -0.080668 0.000000
vt 0.253526 0.118848 0.000000
vt 0.233519 0.154495 0.000000
vt 0.208536 0.186849 0.000000
vt 0.253526 -0.118848 0.000000
vt 0.179108 0.215221 0.000000
vt 0.145863 0.239006 0.000000
vt 0.109509 0.257697 0.000000
vt 0.070821 0.270895 0.000000
vt 0.030624 0.278320 0.000000
vt -0.010226 0.279813 0.000000
vt -0.050858 0.275342 0.000000
vt -0.090407 0.265003 0.000000
vt -0.128028 0.249016 0.000000
vt -0.162920 0.227721 0.000000
vt -0.194341 0.201573 0.000000
vt -0.221619 0.171129 0.000000
vt -0.244174 0.137037 0.000000
vt -0.261525 0.100025 0.000000
vt -0.273301 0.060880 0.000000
vt -0.279253 0.020439 0.000000
vt -0.279253 -0.020439 0.000000
vt -0.273301 -0.060880 0.000000
vt -0.261525 -0.100025 0.000000
vt -0.244174 -0.137037 0.000000
vt 0.233519 -0.154495 0.000000
vt -0.221619 -0.171129 0.000000
vt 0.208536 -0.186849 0.000000
vt -0.194341 -0.201573 0.000000
vt 0.179108 -0.215221 0.000000
vt -0.162920 -0.227721 0.000000
vt 0.145863 -0.239006 0.000000
vt -0.128028 -0.249016 0.000000
vt 0.109509 -0.257697 0.000000
vt -0.090407 -0.265003 0.000000
vt 0.070821 -0.270895 0.000000
vt -0.050858 -0.275342 0.000000
vt 0.030624 -0.278320 0.000000
vt -0.010226 -0.279813 0.000000
vn 1.000000000 0.000000000 -0.000000000
vn 1.000000000 0.000000000 -0.000000000
vn 1.000000000 0.000000000 -0.000000000
vn 1.000000000 0.000000000 -0.000000000
vn 1.000000000 0.000000000 -0.000000000
vn 1.000000000 0.000000000 -0.000000000
vn 1.000000000 0.000000000 -0.000000000
vn 1.000000000 0.000000000 -0.000000000
vn 0.000000000 1.000000000 0.000000000
vn 0.000000000 1.000000000 0.000000000
vn 0.000000000 1.000000000 0.000000000
vn 0.000000000 1.000000000 0.000000000
vn -1.000000000 -0.000000000 0.000000000
vn -1.000000000 -0.000000000 0.000000000
vn -1.000000000 -0.000000000 0.000000000
vn -1.000000000 -0.000000000 0.000000000
vn -1.000000000 -0.000000000 0.000000000
vn -1.000000000 -0.000000000 0.000000000
vn -1.000000000 -0.000000000 0.000000000
vn -1.000000000 -0.000000000 0.000000000
vn 0.000000000 -1.000000000 -0.000000000
vn 0.000000000 -1.000000000 -0.000000000
vn 0.000000000 -1.000000000 -0.000000000
vn 0.000000000 -1.000000000 -0.000000000
vn -0.000000000 0.000000000 1.000000000
vn -0.000000000 0.000000000 1.000000000
vn -0.000000000 0.000000000 1.000000000
vn -0.000000000 0.000000000 1.000000000
vn -0.000000000 0.000000000 1.000000000
vn -0.000000000 0.000000000 1.000000000
vn -0.000000000 0.000000000 1.000000000
vn -0.000000000 0.000000000 1.000000000
vn -0.000000000 0.000000000 1.000000000
vn -0.000000000 0.000000000 1.000000000
vn -0.000000000 0.000000000 1.000000000
vn -0.000000000 0.000000000 1.000000000
vn -0.000000000 0.000000000 1.000000000
vn -0.000000000 0.000000000 1.000000000
vn -0.000000000 0.000000000 1.000000000
vn -0.000000000 0.000000000 1.000000000
vn -0.000000000 0.000000000 1.000000000
vn -0.000000000 0.000000000 1.000000000
vn -0.000000000 0.000000000 1.000000000
vn -0.000000000 0.000000000 1.000000000
vn -0.000000000 0.000000000 1.000000000
vn -0.000000000 0.000000000 1.000000000
vn -0.000000000 0.000000000 1.000000000
vn -0.000000000 0.000000000 1.000000000
vn -0.000000000 0.000000000 1.000000000
vn -0.000000000 0.000000000 1.000000000
vn -0.000000000 0.000000000 1.000000000
vn -0.000000000 0.000000000 1.000000000
vn -0.000000000 0.000000000 1.000000000
vn -0.000000000 0.000000000 1.000000000
vn -0.000000000 0.000000000 1.000000000
vn -0.000000000 0.000000000 1.000000000
vn -0.000000000 0.000000000 1.000000000
vn -0.000000000 0.000000000 1.000000000
vn -0.000000000 0.000000000 1.000000000
vn -0.000000000 0.000000000 1.000000000
vn -0.000000000 0.000000000 1.000000000
vn -0.000000000 0.000000000 1.000000000
vn -0.000000000 0.000000000 1.000000000
vn -0.000000000 0.000000000 1.000000000
vn -0.000000000 0.000000000 1.000000000
vn -0.000000000 0.000000000 1.000000000
vn -0.000000000 0.000000000 1.000000000
vn -0.000000000 0.000000000 1.000000000
vn -0.000000000 0.000000000 1.000000000
vn -0.000000000 0.000000000 1.000000000
vn -0.000000000 0.000000000 1.000000000
vn -0.000000000 0.000000000 1.000000000
vn -0.000000000 0.000000000 1.000000000
vn -0.000000000 0.000000000 1.000000000
vn -0.000000000 0.000000000 1.000000000
vn 0.000000000 -1.000000000 0.000000000
vn 0.000000000 -1.000000000 0.000000000
vn 0.000000000 -1.000000000 0.000000000
vn 0.000000000 -1.000000000 0.000000000
vn -0.000000000 1.000000000 -0.000000000
vn -0.000000000 1.000000000 -0.000000000
vn -0.000000000 1.000000000 -0.000000000
vn -0.000000000 1.000000000 -0.000000000
vn 0.000000000 -0.000000000 -1.000000000
vn 0.000000000 -0.000000000 -1.000000000
vn 0.000000000 -0.000000000 -1.000000000
vn 0.000000000 -0.000000000 -1.000000000
vn -0.000000000 0.000000000 1.000000000
vn -0.000000000 0.000000000 1.000000000
vn -0.000000000 0.000000000 1.000000000
vn -0.000000000 0.000000000 1.000000000
vn -0.989343384 0.145601057 0.000000000
vn -1.000000000 -0.000000000 0.000000000
vn -1.000000000 -0.000000000 0.000000000
vn -0.989343384 -0.145601057 0.000000000
vn -0.989343384 -0.145601057 0.000000000
vn -0.957600661 -0.288098898 0.000000000
vn -0.957600661 -0.288098898 0.000000000
vn -0.905448079 -0.424457037 0.000000000
vn -0.905448079 -0.424457037 0.000000000
vn -0.833997754 -0.551767837 0.000000000
vn -0.833997754 -0.551767837 0.000000000
vn -0.744772008 -0.667319007 0.000000000
vn -0.744772008 -0.667319007 0.000000000
vn -0.639673078 -0.768647093 0.000000000
vn -0.639673078 -0.768647093 0.000000000
vn -0.520940132 -0.853593216 0.000000000
vn -0.520940132 -0.853593216 0.000000000
vn -0.391105023 -0.920346055 0.000000000
vn -0.391105023 -0.920346055 0.000000000
vn -0.252932950 -0.967483810 0.000000000
vn -0.252932950 -0.967483810 0.000000000
vn -0.109371000 -0.994000998 0.000000000
vn -0.109371000 -0.994000998 0.000000000
vn 0.036521994 -0.999332849 0.000000000
vn 0.036521994 -0.999332849 0.000000000
vn 0.181636937 -0.983365661 0.000000000
vn 0.181636937 -0.983365661 0.000000000
vn 0.322879973 -0.946439920 0.000000000
vn 0.322879973 -0.946439920 0.000000000
vn 0.457242128 -0.889342249 0.000000000
vn 0.457242128 -0.889342249 0.000000000
vn 0.581858849 -0.813289789 0.000000000
vn 0.581858849 -0.813289789 0.000000000
vn 0.694074331 -0.719903343 0.000000000
vn 0.694074331 -0.719903343 0.000000000
vn 0.791496168 -0.611174129 0.000000000
vn 0.791496168 -0.611174129 0.000000000
vn 0.872049245 -0.489418138 0.000000000
vn 0.872049245 -0.489418138 0.000000000
vn 0.934016058 -0.357231022 0.000000000
vn 0.934016058 -0.357231022 0.000000000
vn 0.976075921 -0.217429982 0.000000000
vn 0.976075921 -0.217429982 0.000000000
vn 0.997332305 -0.072995022 0.000000000
vn 0.997332305 -0.072995022 0.000000000
vn 0.997332305 0.072995022 0.000000000
vn 0.997332305 0.072995022 0.000000000
vn 0.976075921 0.217429982 0.000000000
vn 0.976075921 0.217429982 0.000000000
vn 0.934016058 0.357231022 0.000000000
vn 0.934016058 0.357231022 0.000000000
vn 0.872049245 0.489418138 0.000000000
vn 0.872049245 0.489418138 0.000000000
vn 0.791496168 0.611174129 0.000000000
vn 0.791496168 0.611174129 0.000000000
vn 0.694074331 0.719903343 0.000000000
vn 0.694074331 0.719903343 0.000000000
vn 0.581858849 0.813289789 0.000000000
vn 0.581858849 0.813289789 0.000000000
vn 0.457242128 0.889342249 0.000000000
vn 0.457242128 0.889342249 0.000000000
vn 0.322879973 0.946439920 0.000000000
vn 0.322879973 0.946439920 0.000000000
vn 0.181636937 0.983365661 0.000000000
vn 0.181636937 0.983365661 0.000000000
vn 0.036521994 0.999332849 0.000000000
vn 0.036521994 0.999332849 0.000000000
vn -0.109371000 0.994000998 0.000000000
vn -0.109371000 0.994000998 0.000000000
vn -0.252932950 0.967483810 0.000000000
vn -0.252932950 0.967483810 0.000000000
vn -0.391105023 0.920346055 0.000000000
vn -0.391105023 0.920346055 0.000000000
vn -0.520940132 0.853593216 0.000000000
vn -0.520940132 0.853593216 0.000000000
vn -0.639673078 0.768647093 0.000000000
vn -0.639673078 0.768647093 0.000000000
vn -0.744772008 0.667319007 0.000000000
vn -0.744772008 0.667319007 0.000000000
vn -0.833997754 0.551767837 0.000000000
vn -0.833997754 0.551767837 0.000000000
vn -0.905448079 0.424457037 0.000000000
vn -0.905448079 0.424457037 0.000000000
vn -0.957600661 0.288098898 0.000000000
vn -0.957600661 0.288098898 0.000000000
vn -0.989343384 0.145601057 0.000000000
vn 0.000000000 0.000000000 1.000000000
vn 0.000000000 0.000000000 1.000000000
vn 0.000000000 0.000000000 1.000000000
vn 0.000000000 0.000000000 1.000000000
vn 0.000000000 0.000000000 1.000000000
vn 0.000000000 0.000000000 1.000000000
vn 0.000000000 0.000000000 1.000000000
vn 0.000000000 0.000000000 1.000000000
vn 0.000000000 0.000000000 1.000000000
vn 0.000000000 0.000000000 1.000000000
vn 0.000000000 0.000000000 1.000000000
vn 0.000000000 0.000000000 1.000000000
vn 0.000000000 0.000000000 1.000000000
vn 0.000000000 0.000000000 1.000000000
vn 0.000000000 0.000000000 1.000000000
vn 0.000000000 0.000000000 1.000000000
vn 0.000000000 0.000000000 1.000000000
vn 0.000000000 0.000000000 1.000000000
vn 0.000000000 0.000000000 1.000000000
vn 0.000000000 0.000000000 1.000000000
vn 0.000000000 0.000000000 1.000000000
vn 0.000000000 0.000000000 1.000000000
vn 0.000000000 0.000000000 1.000000000
vn 0.000000000 0.000000000 1.000000000
vn 0.000000000 0.000000000 1.000000000
vn 0.000000000 0.000000000 1.000000000
vn 0.000000000 0.000000000 1.000000000
vn 0.000000000 0.000000000 1.000000000
vn 0.000000000 0.000000000 1.000000000
vn 0.000000000 0.000000000 1.000000000
vn 0.000000000 0.000000000 1.000000000
vn 0.000000000 0.000000000 1.000000000
vn 0.000000000 0.000000000 1.000000000
vn 0.000000000 0.000000000 1.000000000
vn 0.000000000 0.000000000 1.000000000
vn 0.000000000 0.000000000 1.000000000
vn 0.000000000 0.000000000 1.000000000
vn 0.000000000 0.000000000 1.000000000
vn 0.000000000 0.000000000 1.000000000
vn 0.000000000 0.000000000 1.000000000
vn 0.000000000 0.000000000 1.000000000
vn 0.000000000 0.000000000 1.000000000
vn 0.000000000 0.000000000 1.000000000
usemtl 강철_-_새틴
f 1/1/1 2/2/2 8/3/3
f 8/3/3 2/2/2 7/4/4
f 7/4/4 2/2/2 4/5/5
f 7/4/4 4/5/5 5/6/6
f 2/2/2 3/7/7 4/5/5
f 5/6/6 6/8/8 7/4/4
f 9/9/9 10/10/10 7/11/11
f 7/11/11 10/10/10 8/12/12
f 10/13/13 9/14/14 16/15/15
f 16/15/15 9/14/14 15/16/16
f 15/16/16 9/14/14 13/17/17
f 15/16/16 13/17/17 14/18/18
f 11/19/19 12/20/20 9/14/14
f 9/14/14 12/20/20 13/17/17
f 2/21/21 1/22/22 15/23/23
f 15/23/23 1/22/22 16/24/24
f 8/25/25 17/26/26 1/27/27
f 1/27/27 17/26/26 18/28/28
f 1/27/27 18/28/28 19/29/29
f 10/30/30 49/31/31 8/25/25
f 8/25/25 49/31/31 50/32/32
f 8/25/25 50/32/32 51/33/33
f 16/34/34 39/35/35 10/30/30
f 10/30/30 39/35/35 40/36/36
f 10/30/30 40/36/36 41/37/37
f 1/27/27 28/38/38 16/34/34
f 16/34/34 28/38/38 29/39/39
f 16/34/34 29/39/39 30/40/40
f 19/29/29 20/41/41 1/27/27
f 1/27/27 20/41/41 21/42/42
f 1/27/27 21/42/42 22/43/43
f 22/43/43 23/44/44 1/27/27
f 1/27/27 23/44/44 24/45/45
f 1/27/27 24/45/45 25/46/46
f 25/46/46 26/47/47 1/27/27
f 1/27/27 26/47/47 27/48/48
f 1/27/27 27/48/48 28/38/38
f 30/40/40 31/49/49 16/34/34
f 16/34/34 31/49/49 32/50/50
f 16/34/34 32/50/50 33/51/51
f 33/51/51 34/52/52 16/34/34
f 16/34/34 34/52/52 35/53/53
f 16/34/34 35/53/53 36/54/54
f 36/54/54 37/55/55 16/34/34
f 16/34/34 37/55/55 38/56/56
f 16/34/34 38/56/56 39/35/35
f 41/37/37 42/57/57 10/30/30
f 10/30/30 42/57/57 43/58/58
f 10/30/30 43/58/58 44/59/59
f 44/59/59 45/60/60 10/30/30
f 10/30/30 45/60/60 46/61/61
f 10/30/30 46/61/61 47/62/62
f 47/62/62 48/63/63 10/30/30
f 10/30/30 48/63/63 49/31/31
f 51/33/33 52/64/64 8/25/25
f 8/25/25 52/64/64 53/65/65
f 8/25/25 53/65/65 54/66/66
f 54/66/66 55/67/67 8/25/25
f 8/25/25 55/67/67 56/68/68
f 8/25/25 56/68/68 57/69/69
f 57/69/69 58/70/70 8/25/25
f 8/25/25 58/70/70 59/71/71
f 8/25/25 59/71/71 17/26/26
f 2/72/72 15/73/73 3/74/74
f 3/74/74 15/73/73 14/75/75
f 14/76/76 13/77/77 3/78/78
f 3/78/78 13/77/77 4/79/79
f 6/80/80 5/81/81 11/82/82
f 11/82/82 5/81/81 12/83/83
f 4/84/84 13/85/85 5/86/86
f 5/86/86 13/85/85 12/87/87
f 9/88/88 7/89/89 11/90/90
f 11/90/90 7/89/89 6/91/91
f 61/92/92 17/93/93 60/94/94
f 60/94/94 17/93/93 59/95/95
f 60/94/94 59/95/95 102/96/96
f 102/96/96 59/95/95 58/97/97
f 102/96/96 58/97/97 101/98/98
f 101/98/98 58/97/97 57/99/99
f 101/98/98 57/99/99 100/100/100
f 100/100/100 57/99/99 56/101/101
f 100/100/100 56/101/101 99/102/102
f 99/102/102 56/101/101 55/103/103
f 99/102/102 55/103/103 98/104/104
f 98/104/104 55/103/103 54/105/105
f 98/104/104 54/105/105 97/106/106
f 97/106/106 54/105/105 53/107/107
f 97/106/106 53/107/107 96/108/108
f 96/108/108 53/107/107 52/109/109
f 96/108/108 52/109/109 95/110/110
f 95/110/110 52/109/109 51/111/111
f 95/110/110 51/111/111 94/112/112
f 94/112/112 51/111/111 50/113/113
f 94/112/112 50/113/113 93/114/114
f 93/114/114 50/113/113 49/115/115
f 93/114/114 49/115/115 92/116/116
f 92/116/116 49/115/115 48/117/117
f 92/116/116 48/117/117 91/118/118
f 91/118/118 48/117/117 47/119/119
f 91/118/118 47/119/119 90/120/120
f 90/120/120 47/119/119 46/121/121
f 90/120/120 46/121/121 89/122/122
f 89/122/122 46/121/121 45/123/123
f 89/122/122 45/123/123 88/124/124
f 88/124/124 45/123/123 44/125/125
f 88/124/124 44/125/125 87/126/126
f 87/126/126 44/125/125 43/127/127
f 87/126/126 43/127/127 86/128/128
f 86/128/128 43/127/127 42/129/129
f 86/128/128 42/129/129 85/130/130
f 85/130/130 42/129/129 41/131/131
f 85/130/130 41/131/131 84/132/132
f 84/132/132 41/131/131 40/133/133
f 84/132/132 40/133/133 83/134/134
f 83/134/134 40/133/133 39/135/135
f 83/134/134 39/135/135 82/136/136
f 82/137/136 39/138/135 38/139/137
f 82/137/136 38/139/137 81/140/138
f 81/140/138 38/139/137 37/141/139
f 81/140/138 37/141/139 80/142/140
f 80/142/140 37/141/139 36/143/141
f 80/142/140 36/143/141 79/144/142
f 79/144/142 36/143/141 35/145/143
f 79/144/142 35/145/143 78/146/144
f 78/146/144 35/145/143 34/147/145
f 78/146/144 34/147/145 77/148/146
f 77/148/146 34/147/145 33/149/147
f 77/148/146 33/149/147 76/150/148
f 76/150/148 33/149/147 32/151/149
f 76/150/148 32/151/149 75/152/150
f 75/152/150 32/151/149 31/153/151
f 75/152/150 31/153/151 74/154/152
f 74/154/152 31/153/151 30/155/153
f 74/154/152 30/155/153 73/156/154
f 73/156/154 30/155/153 29/157/155
f 73/156/154 29/157/155 72/158/156
f 72/158/156 29/157/155 28/159/157
f 72/158/156 28/159/157 71/160/158
f 71/160/158 28/159/157 27/161/159
f 71/160/158 27/161/159 70/162/160
f 70/162/160 27/161/159 26/163/161
f 70/162/160 26/163/161 69/164/162
f 69/164/162 26/163/161 25/165/163
f 69/164/162 25/165/163 68/166/164
f 68/166/164 25/165/163 24/167/165
f 68/166/164 24/167/165 67/168/166
f 67/168/166 24/167/165 23/169/167
f 67/168/166 23/169/167 66/170/168
f 66/170/168 23/169/167 22/171/169
f 66/170/168 22/171/169 65/172/170
f 65/172/170 22/171/169 21/173/171
f 65/172/170 21/173/171 64/174/172
f 64/174/172 21/173/171 20/175/173
f 64/174/172 20/175/173 63/176/174
f 63/176/174 20/175/173 19/177/175
f 63/176/174 19/177/175 62/178/176
f 62/178/176 19/177/175 18/179/177
f 62/178/176 18/179/177 61/92/92
f 61/92/92 18/179/177 17/93/93
f 60/180/178 102/181/179 61/182/180
f 61/182/180 102/181/179 101/183/181
f 61/182/180 101/183/181 62/184/182
f 62/184/182 101/183/181 100/185/183
f 62/184/182 100/185/183 99/186/184
f 99/186/184 98/187/185 62/184/182
f 62/184/182 98/187/185 63/188/186
f 63/188/186 98/187/185 97/189/187
f 63/188/186 97/189/187 96/190/188
f 96/190/188 95/191/189 63/188/186
f 63/188/186 95/191/189 94/192/190
f 63/188/186 94/192/190 93/193/191
f 93/193/191 92/194/192 63/188/186
f 63/188/186 92/194/192 91/195/193
f 63/188/186 91/195/193 90/196/194
f 90/196/194 89/197/195 63/188/186
f 63/188/186 89/197/195 88/198/196
f 63/188/186 88/198/196 87/199/197
f 87/199/197 86/200/198 63/188/186
f 63/188/186 86/200/198 85/201/199
f 63/188/186 85/201/199 84/202/200
f 84/202/200 83/203/201 63/188/186
f 63/188/186 83/203/201 82/204/202
f 63/188/186 82/204/202 81/205/203
f 81/205/203 80/206/204 63/188/186
f 63/188/186 80/206/204 79/207/205
f 63/188/186 79/207/205 78/208/206
f 63/188/186 78/208/206 64/209/207
f 64/209/207 78/208/206 77/210/208
f 64/209/207 77/210/208 65/211/209
f 65/211/209 77/210/208 76/212/210
f 65/211/209 76/212/210 66/213/211
f 66/213/211 76/212/210 75/214/212
f 66/213/211 75/214/212 67/215/213
f 67/215/213 75/214/212 74/216/214
f 67/215/213 74/216/214 68/217/215
f 68/217/215 74/216/214 73/218/216
f 68/217/215 73/218/216 69/219/217
f 69/219/217 73/218/216 72/220/218
f 69/219/217 72/220/218 70/221/219
f 70/221/219 72/220/218 71/222/220
# 102 vertices
# 222 texture params
# 220 normals
# 200 facets

# 1 groups
